{
.appVersion = "1352";
DisplayStrings = (

glyphs = (
{
glyphname = .notdef;
lastChange = "2022-04-07 17:16:53 +0000";
layers = (
{
background = {
paths = (
{
closed = 1;
nodes = (
"403 0 LINE",
"413 9 LINE",
"413 669 LINE",
"403 679 LINE",
"58 679 LINE",
"51 669 LINE",
"50 669 LINE",
"50 10 LINE",
"58 0 LINE"
);
},
{
closed = 1;
nodes = (
"232 325 LINE",
"368 62 LINE",
"95 62 LINE"
);
},
{
closed = 1;
nodes = (
"92 591 LINE",
"223 340 LINE",
"92 88 LINE"
);
},
{
closed = 1;
nodes = (
"239 340 LINE",
"371 591 LINE",
"371 88 LINE"
);
},
{
closed = 1;
nodes = (
"94 616 LINE",
"369 616 LINE",
"232 353 LINE"
);
}
);
};
layerId = "404CF7D8-B1FB-4D32-849A-66F5CDD10145";
paths = (
{
closed = 1;
nodes = (
"403 0 LINE",
"413 9 LINE",
"413 669 LINE",
"403 679 LINE",
"58 679 LINE",
"51 669 LINE",
"50 669 LINE",
"50 10 LINE",
"58 0 LINE"
);
},
{
closed = 1;
nodes = (
"95 62 LINE",
"232 325 LINE",
"368 62 LINE"
);
},
{
closed = 1;
nodes = (
"92 591 LINE",
"223 340 LINE",
"92 88 LINE"
);
},
{
closed = 1;
nodes = (
"371 88 LINE",
"239 340 LINE",
"371 591 LINE"
);
},
{
closed = 1;
nodes = (
"94 616 LINE",
"369 616 LINE",
"232 353 LINE"
);
}
);
width = 463;
}
);
note = .notdef;
},
{
color = 3;
glyphname = A;
lastChange = "2022-03-24 15:22:38 +0000";
layers = (
{
anchors = (
{
name = bottom;
position = "{366, 0}";
},
{
name = ogonek;
position = "{721, 10}";
},
{
name = top;
position = "{486, 640}";
}
);
background = {
paths = (
{
closed = 1;
nodes = (
"741 14 OFFCURVE",
"678 1 OFFCURVE",
"644 132 CURVE SMOOTH",
"605 285 OFFCURVE",
"582 428 OFFCURVE",
"558 584 CURVE SMOOTH",
"554 613 OFFCURVE",
"559 633 OFFCURVE",
"543 633 CURVE SMOOTH",
"512 632 OFFCURVE",
"482 632 OFFCURVE",
"452 631 CURVE SMOOTH",
"424 630 OFFCURVE",
"370 629 OFFCURVE",
"281 634 CURVE",
"270 636 OFFCURVE",
"270 614 OFFCURVE",
"282 617 CURVE",
"307 618 OFFCURVE",
"333 620 OFFCURVE",
"358 620 CURVE SMOOTH",
"423 619 OFFCURVE",
"418 570 OFFCURVE",
"401 529 CURVE SMOOTH",
"385 490 OFFCURVE",
"328 377 OFFCURVE",
"272 272 CURVE",
"214 269 OFFCURVE",
"167 267 OFFCURVE",
"130 261 CURVE",
"113 256 OFFCURVE",
"68 233 OFFCURVE",
"119 237 CURVE SMOOTH",
"175 241 OFFCURVE",
"204 241 OFFCURVE",
"254 239 CURVE",
"220 176 OFFCURVE",
"187 118 OFFCURVE",
"167 86 CURVE SMOOTH",
"115 4 OFFCURVE",
"58 14 OFFCURVE",
"-27 17 CURVE SMOOTH",
"-40 18 OFFCURVE",
"-32 0 OFFCURVE",
"-21 0 CURVE SMOOTH",
"48 0 OFFCURVE",
"112 6 OFFCURVE",
"176 3 CURVE SMOOTH",
"206 2 OFFCURVE",
"256 0 OFFCURVE",
"325 -3 CURVE SMOOTH",
"335 -4 OFFCURVE",
"351 18 OFFCURVE",
"336 14 CURVE",
"288 12 OFFCURVE",
"197 1 OFFCURVE",
"258 132 CURVE SMOOTH",
"274 168 OFFCURVE",
"291 203 OFFCURVE",
"309 238 CURVE",
"327 238 OFFCURVE",
"349 237 OFFCURVE",
"374 237 CURVE SMOOTH",
"401 237 OFFCURVE",
"427 234 OFFCURVE",
"451 246 CURVE SMOOTH",
"468 254 OFFCURVE",
"499 274 OFFCURVE",
"509 294 CURVE SMOOTH",
"512 301 OFFCURVE",
"511 305 OFFCURVE",
"505 300 CURVE SMOOTH",
"494 291 OFFCURVE",
"431 280 OFFCURVE",
"384 278 CURVE SMOOTH",
"364 277 OFFCURVE",
"345 276 OFFCURVE",
"327 275 CURVE",
"370 357 OFFCURVE",
"415 439 OFFCURVE",
"462 523 CURVE",
"484 445 OFFCURVE",
"544 144 OFFCURVE",
"552 57 CURVE SMOOTH",
"556 11 OFFCURVE",
"488 15 OFFCURVE",
"460 16 CURVE SMOOTH",
"447 17 OFFCURVE",
"459 -1 OFFCURVE",
"470 0 CURVE SMOOTH",
"536 4 OFFCURVE",
"589 3 OFFCURVE",
"656 0 CURVE SMOOTH",
"687 -1 OFFCURVE",
"703 3 OFFCURVE",
"774 0 CURVE SMOOTH",
"784 0 OFFCURVE",
"787 19 OFFCURVE",
"775 16 CURVE"
);
}
);
};
layerId = "404CF7D8-B1FB-4D32-849A-66F5CDD10145";
paths = (
{
closed = 1;
nodes = (
"332 -4 OFFCURVE",
"342 7 OFFCURVE",
"342 12 CURVE SMOOTH",
"342 13 OFFCURVE",
"341 14 OFFCURVE",
"339 14 CURVE SMOOTH",
"336 14 LINE SMOOTH",
"327 14 OFFCURVE",
"316 13 OFFCURVE",
"305 13 CURVE SMOOTH",
"273 13 OFFCURVE",
"238 20 OFFCURVE",
"238 61 CURVE SMOOTH",
"238 78 OFFCURVE",
"244 101 OFFCURVE",
"258 132 CURVE SMOOTH",
"274 168 OFFCURVE",
"291 203 OFFCURVE",
"309 238 CURVE",
"327 238 OFFCURVE",
"349 237 OFFCURVE",
"374 237 CURVE SMOOTH",
"401 237 OFFCURVE",
"427 234 OFFCURVE",
"451 246 CURVE SMOOTH",
"468 254 OFFCURVE",
"499 274 OFFCURVE",
"509 294 CURVE SMOOTH",
"511 299 OFFCURVE",
"511 302 OFFCURVE",
"509 302 CURVE SMOOTH",
"508 302 OFFCURVE",
"507 302 OFFCURVE",
"505 300 CURVE SMOOTH",
"494 291 OFFCURVE",
"431 280 OFFCURVE",
"384 278 CURVE SMOOTH",
"327 275 LINE",
"370 357 OFFCURVE",
"415 439 OFFCURVE",
"462 523 CURVE",
"484 445 OFFCURVE",
"544 144 OFFCURVE",
"552 57 CURVE SMOOTH",
"554 35 OFFCURVE",
"539 15 OFFCURVE",
"486 15 CURVE SMOOTH",
"476 15 OFFCURVE",
"466 16 OFFCURVE",
"459 16 CURVE SMOOTH",
"455 16 OFFCURVE",
"454 14 OFFCURVE",
"454 12 CURVE SMOOTH",
"454 7 OFFCURVE",
"463 0 OFFCURVE",
"469 0 CURVE SMOOTH",
"484 0 OFFCURVE",
"495 2 OFFCURVE",
"556 2 CURVE SMOOTH",
"588 2 OFFCURVE",
"620 2 OFFCURVE",
"656 2 CURVE SMOOTH",
"682 2 OFFCURVE",
"754 0 OFFCURVE",
"774 0 CURVE SMOOTH",
"779 0 OFFCURVE",
"783 6 OFFCURVE",
"783 10 CURVE SMOOTH",
"783 13 OFFCURVE",
"781 17 OFFCURVE",
"777 17 CURVE SMOOTH",
"771 17 OFFCURVE",
"761 15 OFFCURVE",
"751 15 CURVE SMOOTH",
"716 15 OFFCURVE",
"671 28 OFFCURVE",
"644 132 CURVE SMOOTH",
"605 285 OFFCURVE",
"582 428 OFFCURVE",
"558 584 CURVE SMOOTH",
"554 613 OFFCURVE",
"559 633 OFFCURVE",
"543 633 CURVE SMOOTH",
"512 632 OFFCURVE",
"482 632 OFFCURVE",
"452 631 CURVE SMOOTH",
"441 631 OFFCURVE",
"425 630 OFFCURVE",
"404 630 CURVE SMOOTH",
"374 630 OFFCURVE",
"334 631 OFFCURVE",
"281 634 CURVE",
"276 635 OFFCURVE",
"273 630 OFFCURVE",
"273 626 CURVE SMOOTH",
"273 621 OFFCURVE",
"275 617 OFFCURVE",
"280 617 CURVE SMOOTH",
"282 617 LINE SMOOTH",
"307 617 OFFCURVE",
"333 620 OFFCURVE",
"358 620 CURVE SMOOTH",
"399 619 OFFCURVE",
"412 600 OFFCURVE",
"412 575 CURVE SMOOTH",
"412 561 OFFCURVE",
"407 544 OFFCURVE",
"401 529 CURVE SMOOTH",
"385 490 OFFCURVE",
"328 377 OFFCURVE",
"272 272 CURVE",
"214 269 OFFCURVE",
"166 267 OFFCURVE",
"130 261 CURVE SMOOTH",
"120 259 OFFCURVE",
"96 246 OFFCURVE",
"96 241 CURVE SMOOTH",
"96 238 OFFCURVE",
"99 236 OFFCURVE",
"106 236 CURVE SMOOTH",
"116 236 OFFCURVE",
"142 240 OFFCURVE",
"199 240 CURVE SMOOTH",
"216 240 OFFCURVE",
"233 240 OFFCURVE",
"254 239 CURVE",
"220 176 OFFCURVE",
"187 118 OFFCURVE",
"167 86 CURVE SMOOTH",
"128 25 OFFCURVE",
"87 15 OFFCURVE",
"34 15 CURVE SMOOTH",
"15 15 OFFCURVE",
"-5 16 OFFCURVE",
"-27 17 CURVE SMOOTH",
"-32 17 OFFCURVE",
"-34 15 OFFCURVE",
"-34 12 CURVE SMOOTH",
"-34 7 OFFCURVE",
"-28 0 OFFCURVE",
"-21 0 CURVE SMOOTH",
"34 0 OFFCURVE",
"86 4 OFFCURVE",
"138 4 CURVE SMOOTH",
"150 4 OFFCURVE",
"163 4 OFFCURVE",
"176 3 CURVE SMOOTH",
"325 -3 LINE"
);
}
);
width = 749;
}
);
leftKerningGroup = A;
note = A;
rightKerningGroup = A;
unicode = 0041;
},
{
color = 3;
glyphname = AE;
lastChange = "2022-03-23 16:28:47 +0000";
layers = (
{
anchors = (
{
name = top;
position = "{628, 640}";
}
);
background = {
paths = (
{
closed = 1;
nodes = (
"953 182 OFFCURVE",
"943 190 OFFCURVE",
"940 183 CURVE SMOOTH",
"901 94 OFFCURVE",
"826 32 OFFCURVE",
"724 32 CURVE SMOOTH",
"620 32 OFFCURVE",
"607 64 OFFCURVE",
"611 113 CURVE SMOOTH",
"617 193 OFFCURVE",
"621 240 OFFCURVE",
"629 301 CURVE",
"659 301 OFFCURVE",
"698 299 OFFCURVE",
"757 299 CURVE SMOOTH",
"784 299 OFFCURVE",
"810 303 OFFCURVE",
"834 315 CURVE SMOOTH",
"851 323 OFFCURVE",
"883 343 OFFCURVE",
"892 363 CURVE SMOOTH",
"895 370 OFFCURVE",
"894 374 OFFCURVE",
"889 369 CURVE",
"877 361 OFFCURVE",
"814 349 OFFCURVE",
"767 347 CURVE SMOOTH",
"717 344 OFFCURVE",
"674 349 OFFCURVE",
"635 347 CURVE",
"641 395 OFFCURVE",
"646 445 OFFCURVE",
"657 506 CURVE SMOOTH",
"675 610 OFFCURVE",
"746 596 OFFCURVE",
"835 597 CURVE SMOOTH",
"892 598 OFFCURVE",
"932 550 OFFCURVE",
"925 454 CURVE SMOOTH",
"924 437 OFFCURVE",
"939 436 OFFCURVE",
"940 445 CURVE SMOOTH",
"943 499 OFFCURVE",
"942 524 OFFCURVE",
"947 572 CURVE SMOOTH",
"953 622 OFFCURVE",
"943 639 OFFCURVE",
"898 637 CURVE SMOOTH",
"804 632 OFFCURVE",
"727 631 OFFCURVE",
"634 630 CURVE SMOOTH",
"520 629 OFFCURVE",
"404 628 OFFCURVE",
"290 634 CURVE",
"279 636 OFFCURVE",
"278 614 OFFCURVE",
"291 617 CURVE",
"316 618 OFFCURVE",
"341 620 OFFCURVE",
"367 620 CURVE SMOOTH",
"432 619 OFFCURVE",
"427 570 OFFCURVE",
"410 529 CURVE SMOOTH",
"393 490 OFFCURVE",
"370 438 OFFCURVE",
"314 333 CURVE",
"257 330 OFFCURVE",
"209 327 OFFCURVE",
"173 322 CURVE",
"156 317 OFFCURVE",
"110 294 OFFCURVE",
"162 298 CURVE SMOOTH",
"217 302 OFFCURVE",
"246 301 OFFCURVE",
"296 300 CURVE",
"262 236 OFFCURVE",
"196 118 OFFCURVE",
"176 86 CURVE SMOOTH",
"124 4 OFFCURVE",
"63 12 OFFCURVE",
"-22 16 CURVE SMOOTH",
"-35 17 OFFCURVE",
"-35 -1 OFFCURVE",
"-24 0 CURVE SMOOTH",
"45 4 OFFCURVE",
"121 6 OFFCURVE",
"185 3 CURVE SMOOTH",
"215 2 OFFCURVE",
"265 0 OFFCURVE",
"334 -3 CURVE SMOOTH",
"344 -4 OFFCURVE",
"360 18 OFFCURVE",
"345 14 CURVE",
"297 12 OFFCURVE",
"206 1 OFFCURVE",
"266 132 CURVE SMOOTH",
"283 168 OFFCURVE",
"334 264 OFFCURVE",
"351 298 CURVE",
"380 298 OFFCURVE",
"494 303 OFFCURVE",
"533 303 CURVE",
"524 247 OFFCURVE",
"514 187 OFFCURVE",
"501 132 CURVE SMOOTH",
"470 2 OFFCURVE",
"446 17 OFFCURVE",
"435 17 CURVE SMOOTH",
"427 17 OFFCURVE",
"414 -2 OFFCURVE",
"425 0 CURVE",
"491 -1 OFFCURVE",
"463 2 OFFCURVE",
"494 3 CURVE SMOOTH",
"561 6 OFFCURVE",
"606 8 OFFCURVE",
"670 3 CURVE SMOOTH",
"790 -6 OFFCURVE",
"850 -13 OFFCURVE",
"870 0 CURVE SMOOTH",
"917 31 OFFCURVE",
"939 145 OFFCURVE",
"950 175 CURVE SMOOTH"
);
},
{
closed = 1;
nodes = (
"552 479 OFFCURVE",
"547 413 OFFCURVE",
"538 343 CURVE",
"514 343 OFFCURVE",
"426 338 OFFCURVE",
"370 336 CURVE",
"412 418 OFFCURVE",
"409 407 OFFCURVE",
"455 492 CURVE SMOOTH",
"497 571 OFFCURVE",
"557 688 OFFCURVE",
"553 509 CURVE SMOOTH"
);
}
);
};
layerId = "404CF7D8-B1FB-4D32-849A-66F5CDD10145";
paths = (
{
closed = 1;
nodes = (
"848 -7 OFFCURVE",
"862 -5 OFFCURVE",
"870 0 CURVE SMOOTH",
"917 31 OFFCURVE",
"939 145 OFFCURVE",
"950 175 CURVE SMOOTH",
"952 180 OFFCURVE",
"947 186 OFFCURVE",
"944 186 CURVE SMOOTH",
"942 186 OFFCURVE",
"941 185 OFFCURVE",
"940 183 CURVE SMOOTH",
"901 94 OFFCURVE",
"826 32 OFFCURVE",
"724 32 CURVE SMOOTH",
"620 32 OFFCURVE",
"607 64 OFFCURVE",
"611 113 CURVE SMOOTH",
"617 193 OFFCURVE",
"621 240 OFFCURVE",
"629 301 CURVE",
"659 301 OFFCURVE",
"698 299 OFFCURVE",
"757 299 CURVE SMOOTH",
"784 299 OFFCURVE",
"810 303 OFFCURVE",
"834 315 CURVE SMOOTH",
"851 323 OFFCURVE",
"883 343 OFFCURVE",
"892 363 CURVE SMOOTH",
"894 368 OFFCURVE",
"894 371 OFFCURVE",
"892 371 CURVE",
"892 371 OFFCURVE",
"891 371 OFFCURVE",
"889 369 CURVE",
"877 361 OFFCURVE",
"814 349 OFFCURVE",
"767 347 CURVE SMOOTH",
"755 346 OFFCURVE",
"743 346 OFFCURVE",
"732 346 CURVE SMOOTH",
"705 346 OFFCURVE",
"681 348 OFFCURVE",
"658 348 CURVE SMOOTH",
"650 348 OFFCURVE",
"643 348 OFFCURVE",
"635 347 CURVE",
"641 395 OFFCURVE",
"646 445 OFFCURVE",
"657 506 CURVE SMOOTH",
"671 589 OFFCURVE",
"719 598 OFFCURVE",
"783 598 CURVE SMOOTH",
"800 598 OFFCURVE",
"818 597 OFFCURVE",
"837 597 CURVE SMOOTH",
"889 597 OFFCURVE",
"926 556 OFFCURVE",
"926 475 CURVE SMOOTH",
"926 467 OFFCURVE",
"925 460 OFFCURVE",
"925 452 CURVE SMOOTH",
"925 443 OFFCURVE",
"930 439 OFFCURVE",
"934 439 CURVE SMOOTH",
"937 439 OFFCURVE",
"940 441 OFFCURVE",
"940 445 CURVE SMOOTH",
"943 499 OFFCURVE",
"942 524 OFFCURVE",
"947 572 CURVE SMOOTH",
"948 581 OFFCURVE",
"949 588 OFFCURVE",
"949 595 CURVE SMOOTH",
"949 627 OFFCURVE",
"935 639 OFFCURVE",
"898 637 CURVE SMOOTH",
"804 632 OFFCURVE",
"727 631 OFFCURVE",
"634 630 CURVE SMOOTH",
"591 630 OFFCURVE",
"548 629 OFFCURVE",
"504 629 CURVE SMOOTH",
"433 629 OFFCURVE",
"361 630 OFFCURVE",
"290 634 CURVE",
"285 635 OFFCURVE",
"282 630 OFFCURVE",
"282 625 CURVE SMOOTH",
"282 621 OFFCURVE",
"284 617 OFFCURVE",
"289 617 CURVE SMOOTH",
"291 617 LINE SMOOTH",
"316 617 OFFCURVE",
"341 620 OFFCURVE",
"367 620 CURVE SMOOTH",
"408 619 OFFCURVE",
"421 600 OFFCURVE",
"421 575 CURVE SMOOTH",
"421 561 OFFCURVE",
"416 544 OFFCURVE",
"410 529 CURVE SMOOTH",
"393 490 OFFCURVE",
"370 438 OFFCURVE",
"314 333 CURVE",
"257 330 OFFCURVE",
"209 327 OFFCURVE",
"173 322 CURVE",
"162 319 OFFCURVE",
"138 308 OFFCURVE",
"138 302 CURVE SMOOTH",
"138 299 OFFCURVE",
"142 298 OFFCURVE",
"151 298 CURVE SMOOTH",
"162 298 LINE SMOOTH",
"192 298 OFFCURVE",
"215 301 OFFCURVE",
"237 301 CURVE SMOOTH",
"255 301 OFFCURVE",
"274 300 OFFCURVE",
"296 300 CURVE",
"262 236 OFFCURVE",
"196 118 OFFCURVE",
"176 86 CURVE SMOOTH",
"137 25 OFFCURVE",
"93 14 OFFCURVE",
"38 14 CURVE SMOOTH",
"20 14 OFFCURVE",
"-1 16 OFFCURVE",
"-24 16 CURVE SMOOTH",
"-30 16 OFFCURVE",
"-32 12 OFFCURVE",
"-32 8 CURVE SMOOTH",
"-32 4 OFFCURVE",
"-30 0 OFFCURVE",
"-25 0 CURVE SMOOTH",
"-24 0 LINE SMOOTH",
"22 0 OFFCURVE",
"71 4 OFFCURVE",
"118 4 CURVE SMOOTH",
"141 4 OFFCURVE",
"164 4 OFFCURVE",
"185 3 CURVE SMOOTH",
"334 -3 LINE",
"341 -4 OFFCURVE",
"351 7 OFFCURVE",
"351 12 CURVE SMOOTH",
"351 13 OFFCURVE",
"350 14 OFFCURVE",
"348 14 CURVE SMOOTH",
"345 14 LINE SMOOTH",
"336 14 OFFCURVE",
"325 13 OFFCURVE",
"314 13 CURVE SMOOTH",
"281 13 OFFCURVE",
"246 20 OFFCURVE",
"246 61 CURVE SMOOTH",
"246 79 OFFCURVE",
"252 101 OFFCURVE",
"266 132 CURVE SMOOTH",
"283 168 OFFCURVE",
"334 264 OFFCURVE",
"351 298 CURVE",
"380 298 OFFCURVE",
"494 303 OFFCURVE",
"533 303 CURVE",
"524 247 OFFCURVE",
"514 187 OFFCURVE",
"501 132 CURVE SMOOTH",
"470 2 OFFCURVE",
"446 17 OFFCURVE",
"435 17 CURVE SMOOTH",
"429 17 OFFCURVE",
"421 7 OFFCURVE",
"421 3 CURVE SMOOTH",
"421 1 OFFCURVE",
"422 0 OFFCURVE",
"424 0 CURVE SMOOTH",
"425 0 LINE SMOOTH",
"491 0 OFFCURVE",
"463 2 OFFCURVE",
"494 3 CURVE SMOOTH",
"532 5 OFFCURVE",
"562 6 OFFCURVE",
"593 6 CURVE SMOOTH",
"617 6 OFFCURVE",
"642 5 OFFCURVE",
"670 3 CURVE SMOOTH",
"743 -2 OFFCURVE",
"793 -7 OFFCURVE",
"826 -7 CURVE SMOOTH"
);
},
{
closed = 1;
nodes = (
"412 418 OFFCURVE",
"409 407 OFFCURVE",
"455 492 CURVE SMOOTH",
"481 540 OFFCURVE",
"513 603 OFFCURVE",
"534 603 CURVE SMOOTH",
"545 603 OFFCURVE",
"553 582 OFFCURVE",
"553 525 CURVE SMOOTH",
"553 517 OFFCURVE",
"550 433 OFFCURVE",
"538 343 CURVE",
"514 343 OFFCURVE",
"426 338 OFFCURVE",
"370 336 CURVE"
);
}
);
width = 993;
}
);
leftKerningGroup = AE;
note = AE;
rightKerningGroup = E;
rightMetricsKey = E;
unicode = 00C6;
},
{
glyphname = B;
lastChange = "2022-03-24 15:22:57 +0000";
layers = (
{
background = {
paths = (
{
closed = 1;
nodes = (
"590 640 OFFCURVE",
"479 643 OFFCURVE",
"385 636 CURVE SMOOTH",
"349 634 OFFCURVE",
"309 630 OFFCURVE",
"285 630 CURVE SMOOTH",
"219 629 OFFCURVE",
"143 634 OFFCURVE",
"66 634 CURVE SMOOTH",
"55 634 OFFCURVE",
"44 617 OFFCURVE",
"57 617 CURVE SMOOTH",
"72 618 OFFCURVE",
"149 617 OFFCURVE",
"170 613 CURVE SMOOTH",
"213 606 OFFCURVE",
"206 541 OFFCURVE",
"205 509 CURVE SMOOTH",
"204 451 OFFCURVE",
"186 275 OFFCURVE",
"153 132 CURVE SMOOTH",
"122 2 OFFCURVE",
"129 15 OFFCURVE",
"-24 17 CURVE",
"-31 18 OFFCURVE",
"-44 -2 OFFCURVE",
"-34 0 CURVE",
"33 -1 OFFCURVE",
"115 2 OFFCURVE",
"145 3 CURVE SMOOTH",
"224 7 OFFCURVE",
"295 -1 OFFCURVE",
"372 -7 CURVE SMOOTH",
"441 -13 OFFCURVE",
"476 23 OFFCURVE",
"499 40 CURVE SMOOTH",
"574 95 LINE SMOOTH",
"654 154 OFFCURVE",
"640 242 OFFCURVE",
"566 301 CURVE SMOOTH",
"520 338 OFFCURVE",
"450 363 OFFCURVE",
"400 362 CURVE",
"419 372 OFFCURVE",
"441 383 OFFCURVE",
"450 388 CURVE SMOOTH",
"523 428 OFFCURVE",
"590 485 OFFCURVE",
"590 543 CURVE SMOOTH"
);
},
{
closed = 1;
nodes = (
"538 163 OFFCURVE",
"530 80 OFFCURVE",
"467 42 CURVE SMOOTH",
"404 5 OFFCURVE",
"271 16 OFFCURVE",
"263 106 CURVE SMOOTH",
"252 218 OFFCURVE",
"299 467 OFFCURVE",
"312 529 CURVE SMOOTH",
"339 659 OFFCURVE",
"489 637 OFFCURVE",
"485 516 CURVE SMOOTH",
"483 453 OFFCURVE",
"440 379 OFFCURVE",
"344 352 CURVE SMOOTH",
"332 349 OFFCURVE",
"327 339 OFFCURVE",
"341 340 CURVE SMOOTH",
"407 346 OFFCURVE",
"472 289 OFFCURVE",
"505 225 CURVE SMOOTH"
);
}
);
};
layerId = "404CF7D8-B1FB-4D32-849A-66F5CDD10145";
paths = (
{
closed = 1;
nodes = (
"441 -13 OFFCURVE",
"476 23 OFFCURVE",
"499 40 CURVE SMOOTH",
"574 95 LINE SMOOTH",
"611 122 OFFCURVE",
"628 156 OFFCURVE",
"628 190 CURVE SMOOTH",
"628 230 OFFCURVE",
"606 269 OFFCURVE",
"566 301 CURVE SMOOTH",
"520 338 OFFCURVE",
"450 363 OFFCURVE",
"400 362 CURVE",
"450 388 LINE SMOOTH",
"491 410 OFFCURVE",
"590 473 OFFCURVE",
"590 543 CURVE SMOOTH",
"590 603 OFFCURVE",
"550 638 OFFCURVE",
"440 638 CURVE SMOOTH",
"422 638 OFFCURVE",
"403 637 OFFCURVE",
"385 636 CURVE SMOOTH",
"349 634 OFFCURVE",
"309 630 OFFCURVE",
"285 630 CURVE SMOOTH",
"219 629 OFFCURVE",
"143 634 OFFCURVE",
"66 634 CURVE SMOOTH",
"59 634 OFFCURVE",
"51 626 OFFCURVE",
"51 621 CURVE SMOOTH",
"51 619 OFFCURVE",
"53 617 OFFCURVE",
"57 617 CURVE SMOOTH",
"72 618 OFFCURVE",
"149 617 OFFCURVE",
"170 613 CURVE SMOOTH",
"197 609 OFFCURVE",
"206 583 OFFCURVE",
"206 541 CURVE SMOOTH",
"206 435 OFFCURVE",
"181 252 OFFCURVE",
"153 132 CURVE SMOOTH",
"128 29 OFFCURVE",
"128 16 OFFCURVE",
"52 16 CURVE SMOOTH",
"17 16 OFFCURVE",
"-3 17 OFFCURVE",
"-25 17 CURVE SMOOTH",
"-29 17 OFFCURVE",
"-38 7 OFFCURVE",
"-38 2 CURVE SMOOTH",
"-38 1 OFFCURVE",
"-37 0 OFFCURVE",
"-35 0 CURVE SMOOTH",
"79 0 OFFCURVE",
"156 4 OFFCURVE",
"189 4 CURVE SMOOTH",
"251 4 OFFCURVE",
"309 -2 OFFCURVE",
"372 -7 CURVE SMOOTH"
);
},
{
closed = 1;
nodes = (
"304 22 OFFCURVE",
"261 65 OFFCURVE",
"261 127 CURVE SMOOTH",
"261 267 OFFCURVE",
"300 473 OFFCURVE",
"312 529 CURVE SMOOTH",
"326 592 OFFCURVE",
"364 617 OFFCURVE",
"402 617 CURVE SMOOTH",
"444 617 OFFCURVE",
"485 583 OFFCURVE",
"485 521 CURVE SMOOTH",
"485 457 OFFCURVE",
"443 380 OFFCURVE",
"344 352 CURVE SMOOTH",
"337 350 OFFCURVE",
"332 346 OFFCURVE",
"332 343 CURVE SMOOTH",
"332 341 OFFCURVE",
"334 340 OFFCURVE",
"339 340 CURVE SMOOTH",
"354 341 LINE SMOOTH",
"404 342 OFFCURVE",
"471 292 OFFCURVE",
"505 225 CURVE SMOOTH",
"517 202 OFFCURVE",
"524 175 OFFCURVE",
"524 149 CURVE SMOOTH",
"524 107 OFFCURVE",
"506 66 OFFCURVE",
"467 42 CURVE SMOOTH",
"445 29 OFFCURVE",
"415 22 OFFCURVE",
"384 22 CURVE SMOOTH"
);
}
);
width = 655;
}
);
leftKerningGroup = H;
note = B;
rightKerningGroup = B;
unicode = 0042;
},
{
color = 3;
glyphname = C;
lastChange = "2022-03-24 15:23:26 +0000";
layers = (
{
anchors = (
{
name = cedilla;
position = "{332, 0}";
},
{
name = top;
position = "{532, 650}";
}
);
background = {
paths = (
{
closed = 1;
nodes = (
"657 192 OFFCURVE",
"654 195 OFFCURVE",
"651 195 CURVE SMOOTH",
"644 195 OFFCURVE",
"639 189 OFFCURVE",
"636 185 CURVE SMOOTH",
"626 173 OFFCURVE",
"617 162 OFFCURVE",
"607 152 CURVE SMOOTH",
"551 100 OFFCURVE",
"472 74 OFFCURVE",
"396 74 CURVE SMOOTH",
"255 74 OFFCURVE",
"130 158 OFFCURVE",
"130 309 CURVE SMOOTH",
"130 477 OFFCURVE",
"287 580 OFFCURVE",
"443 580 CURVE SMOOTH",
"497 580 OFFCURVE",
"576 583 OFFCURVE",
"576 509 CURVE SMOOTH",
"576 485 OFFCURVE",
"569 462 OFFCURVE",
"562 439 CURVE SMOOTH",
"561 437 OFFCURVE",
"561 434 OFFCURVE",
"561 432 CURVE SMOOTH",
"561 428 OFFCURVE",
"563 424 OFFCURVE",
"567 424 CURVE SMOOTH",
"571 424 OFFCURVE",
"574 426 OFFCURVE",
"575 430 CURVE SMOOTH",
"583 452 OFFCURVE",
"589 477 OFFCURVE",
"596 500 CURVE SMOOTH",
"603 522 OFFCURVE",
"610 543 OFFCURVE",
"617 564 CURVE SMOOTH",
"620 572 OFFCURVE",
"622 579 OFFCURVE",
"622 587 CURVE SMOOTH",
"622 638 OFFCURVE",
"557 650 OFFCURVE",
"518 650 CURVE SMOOTH",
"514 650 OFFCURVE",
"510 650 OFFCURVE",
"506 650 CURVE SMOOTH",
"302 639 OFFCURVE",
"47 479 OFFCURVE",
"47 247 CURVE SMOOTH",
"47 209 OFFCURVE",
"56 170 OFFCURVE",
"72 136 CURVE SMOOTH",
"124 28 OFFCURVE",
"235 -16 OFFCURVE",
"349 -16 CURVE SMOOTH",
"393 -16 OFFCURVE",
"440 -12 OFFCURVE",
"482 0 CURVE SMOOTH",
"524 11 OFFCURVE",
"544 40 OFFCURVE",
"566 75 CURVE SMOOTH",
"588 111 OFFCURVE",
"614 143 OFFCURVE",
"645 172 CURVE SMOOTH",
"650 176 OFFCURVE",
"657 182 OFFCURVE",
"657 189 CURVE SMOOTH"
);
}
);
};
layerId = "404CF7D8-B1FB-4D32-849A-66F5CDD10145";
paths = (
{
closed = 1;
nodes = (
"393 -16 OFFCURVE",
"440 -12 OFFCURVE",
"482 0 CURVE SMOOTH",
"524 11 OFFCURVE",
"544 40 OFFCURVE",
"566 75 CURVE SMOOTH",
"588 111 OFFCURVE",
"614 143 OFFCURVE",
"645 172 CURVE SMOOTH",
"650 176 OFFCURVE",
"657 182 OFFCURVE",
"657 189 CURVE SMOOTH",
"657 192 OFFCURVE",
"654 195 OFFCURVE",
"651 195 CURVE SMOOTH",
"644 195 OFFCURVE",
"639 189 OFFCURVE",
"636 185 CURVE SMOOTH",
"626 173 OFFCURVE",
"617 162 OFFCURVE",
"607 152 CURVE SMOOTH",
"551 100 OFFCURVE",
"472 74 OFFCURVE",
"396 74 CURVE SMOOTH",
"255 74 OFFCURVE",
"130 158 OFFCURVE",
"130 309 CURVE SMOOTH",
"130 477 OFFCURVE",
"287 580 OFFCURVE",
"443 580 CURVE SMOOTH",
"497 580 OFFCURVE",
"576 583 OFFCURVE",
"576 509 CURVE SMOOTH",
"576 485 OFFCURVE",
"569 462 OFFCURVE",
"562 439 CURVE SMOOTH",
"561 437 OFFCURVE",
"561 434 OFFCURVE",
"561 432 CURVE SMOOTH",
"561 428 OFFCURVE",
"563 424 OFFCURVE",
"567 424 CURVE SMOOTH",
"571 424 OFFCURVE",
"574 426 OFFCURVE",
"575 430 CURVE SMOOTH",
"583 452 OFFCURVE",
"589 477 OFFCURVE",
"596 500 CURVE SMOOTH",
"617 564 LINE SMOOTH",
"620 572 OFFCURVE",
"622 579 OFFCURVE",
"622 587 CURVE SMOOTH",
"622 638 OFFCURVE",
"557 650 OFFCURVE",
"520 650 CURVE SMOOTH",
"323 650 OFFCURVE",
"47 487 OFFCURVE",
"47 247 CURVE SMOOTH",
"47 88 OFFCURVE",
"177 -16 OFFCURVE",
"349 -16 CURVE SMOOTH"
);
}
);
width = 626;
}
);
leftKerningGroup = C;
note = C;
rightKerningGroup = C;
unicode = 0043;
},
{
color = 3;
glyphname = D;
lastChange = "2022-03-24 13:56:42 +0000";
layers = (
{
anchors = (
{
name = bottom;
position = "{279, 0}";
},
{
name = top;
position = "{379, 640}";
}
);
background = {
paths = (
{
closed = 1;
nodes = (
"575 687 OFFCURVE",
"437 630 OFFCURVE",
"306 630 CURVE SMOOTH",
"300 630 OFFCURVE",
"293 630 OFFCURVE",
"285 630 CURVE SMOOTH",
"219 629 OFFCURVE",
"143 634 OFFCURVE",
"66 634 CURVE SMOOTH",
"55 634 OFFCURVE",
"44 617 OFFCURVE",
"57 617 CURVE SMOOTH",
"72 618 OFFCURVE",
"149 617 OFFCURVE",
"170 613 CURVE SMOOTH",
"213 606 OFFCURVE",
"206 541 OFFCURVE",
"205 509 CURVE SMOOTH",
"204 451 OFFCURVE",
"186 275 OFFCURVE",
"153 132 CURVE SMOOTH",
"122 2 OFFCURVE",
"129 15 OFFCURVE",
"-24 17 CURVE",
"-31 18 OFFCURVE",
"-44 -2 OFFCURVE",
"-34 0 CURVE",
"33 -1 OFFCURVE",
"115 2 OFFCURVE",
"145 3 CURVE SMOOTH",
"167 3 OFFCURVE",
"183 3 OFFCURVE",
"192 2 CURVE",
"376 -2 OFFCURVE",
"460 -50 OFFCURVE",
"596 85 CURVE SMOOTH",
"669 157 LINE SMOOTH",
"746 233 OFFCURVE",
"812 393 OFFCURVE",
"684 552 CURVE SMOOTH"
);
},
{
closed = 1;
nodes = (
"484 35 OFFCURVE",
"243 -44 OFFCURVE",
"271 208 CURVE SMOOTH",
"277 264 OFFCURVE",
"290 452 OFFCURVE",
"326 548 CURVE SMOOTH",
"355 628 OFFCURVE",
"431 625 OFFCURVE",
"497 588 CURVE SMOOTH",
"677 486 OFFCURVE",
"706 225 OFFCURVE",
"545 87 CURVE SMOOTH"
);
}
);
};
layerId = "404CF7D8-B1FB-4D32-849A-66F5CDD10145";
paths = (
{
closed = 1;
nodes = (
"458 -10 OFFCURVE",
"518 8 OFFCURVE",
"596 85 CURVE SMOOTH",
"669 157 LINE SMOOTH",
"715 202 OFFCURVE",
"756 276 OFFCURVE",
"756 362 CURVE SMOOTH",
"756 422 OFFCURVE",
"736 487 OFFCURVE",
"684 552 CURVE SMOOTH",
"625 625 OFFCURVE",
"557 642 OFFCURVE",
"487 642 CURVE SMOOTH",
"427 642 OFFCURVE",
"366 630 OFFCURVE",
"306 630 CURVE SMOOTH",
"285 630 LINE SMOOTH",
"219 630 OFFCURVE",
"143 634 OFFCURVE",
"66 634 CURVE SMOOTH",
"59 634 OFFCURVE",
"51 626 OFFCURVE",
"51 621 CURVE SMOOTH",
"51 619 OFFCURVE",
"53 617 OFFCURVE",
"57 617 CURVE SMOOTH",
"72 618 OFFCURVE",
"149 617 OFFCURVE",
"170 613 CURVE SMOOTH",
"201 608 OFFCURVE",
"206 573 OFFCURVE",
"206 541 CURVE SMOOTH",
"206 529 OFFCURVE",
"205 518 OFFCURVE",
"205 509 CURVE SMOOTH",
"204 451 OFFCURVE",
"186 275 OFFCURVE",
"153 132 CURVE SMOOTH",
"128 29 OFFCURVE",
"128 16 OFFCURVE",
"52 16 CURVE SMOOTH",
"32 16 OFFCURVE",
"8 17 OFFCURVE",
"-25 17 CURVE SMOOTH",
"-29 17 OFFCURVE",
"-38 7 OFFCURVE",
"-38 2 CURVE SMOOTH",
"-38 1 OFFCURVE",
"-37 0 OFFCURVE",
"-35 0 CURVE SMOOTH",
"-34 0 LINE SMOOTH",
"33 0 OFFCURVE",
"115 2 OFFCURVE",
"145 3 CURVE SMOOTH",
"167 3 OFFCURVE",
"183 3 OFFCURVE",
"192 2 CURVE SMOOTH",
"271 0 OFFCURVE",
"331 -10 OFFCURVE",
"386 -10 CURVE SMOOTH"
);
},
{
closed = 1;
nodes = (
"326 33 OFFCURVE",
"269 65 OFFCURVE",
"269 170 CURVE SMOOTH",
"269 257 OFFCURVE",
"300 478 OFFCURVE",
"326 548 CURVE SMOOTH",
"343 595 OFFCURVE",
"376 613 OFFCURVE",
"413 613 CURVE SMOOTH",
"440 613 OFFCURVE",
"469 603 OFFCURVE",
"497 588 CURVE SMOOTH",
"597 531 OFFCURVE",
"650 425 OFFCURVE",
"650 319 CURVE SMOOTH",
"650 234 OFFCURVE",
"616 148 OFFCURVE",
"545 87 CURVE SMOOTH",
"517 63 OFFCURVE",
"450 33 OFFCURVE",
"389 33 CURVE SMOOTH"
);
}
);
width = 760;
}
);
leftKerningGroup = H;
note = D;
rightKerningGroup = O;
unicode = 0044;
},
{
glyphname = Eth;
lastChange = "2022-03-23 16:31:02 +0000";
layers = (
{
background = {
components = (
{
name = D;
},
{
name = hyphen;
transform = "{1.24924, 0.04362, -0.02966, 0.84948, 66, 17}";
}
);
};
layerId = "404CF7D8-B1FB-4D32-849A-66F5CDD10145";
paths = (
{
closed = 1;
nodes = (
"458 -10 OFFCURVE",
"518 8 OFFCURVE",
"596 85 CURVE SMOOTH",
"669 157 LINE SMOOTH",
"715 202 OFFCURVE",
"756 276 OFFCURVE",
"756 362 CURVE SMOOTH",
"756 422 OFFCURVE",
"736 487 OFFCURVE",
"684 552 CURVE SMOOTH",
"625 625 OFFCURVE",
"557 642 OFFCURVE",
"487 642 CURVE SMOOTH",
"427 642 OFFCURVE",
"366 630 OFFCURVE",
"306 630 CURVE SMOOTH",
"285 630 LINE SMOOTH",
"219 630 OFFCURVE",
"143 634 OFFCURVE",
"66 634 CURVE SMOOTH",
"59 634 OFFCURVE",
"51 626 OFFCURVE",
"51 621 CURVE SMOOTH",
"51 619 OFFCURVE",
"53 617 OFFCURVE",
"57 617 CURVE SMOOTH",
"72 618 OFFCURVE",
"149 617 OFFCURVE",
"170 613 CURVE SMOOTH",
"201 608 OFFCURVE",
"206 573 OFFCURVE",
"206 541 CURVE SMOOTH",
"206 529 OFFCURVE",
"205 518 OFFCURVE",
"205 509 CURVE SMOOTH",
"204 451 OFFCURVE",
"186 275 OFFCURVE",
"153 132 CURVE SMOOTH",
"128 29 OFFCURVE",
"128 16 OFFCURVE",
"52 16 CURVE SMOOTH",
"32 16 OFFCURVE",
"8 17 OFFCURVE",
"-25 17 CURVE SMOOTH",
"-29 17 OFFCURVE",
"-38 7 OFFCURVE",
"-38 2 CURVE SMOOTH",
"-38 1 OFFCURVE",
"-37 0 OFFCURVE",
"-35 0 CURVE SMOOTH",
"-34 0 LINE SMOOTH",
"33 0 OFFCURVE",
"115 2 OFFCURVE",
"145 3 CURVE SMOOTH",
"167 3 OFFCURVE",
"183 3 OFFCURVE",
"192 2 CURVE SMOOTH",
"271 0 OFFCURVE",
"331 -10 OFFCURVE",
"386 -10 CURVE SMOOTH"
);
},
{
closed = 1;
nodes = (
"326 33 OFFCURVE",
"269 65 OFFCURVE",
"269 170 CURVE SMOOTH",
"269 257 OFFCURVE",
"300 478 OFFCURVE",
"326 548 CURVE SMOOTH",
"343 595 OFFCURVE",
"376 613 OFFCURVE",
"413 613 CURVE SMOOTH",
"440 613 OFFCURVE",
"469 603 OFFCURVE",
"497 588 CURVE SMOOTH",
"597 531 OFFCURVE",
"650 425 OFFCURVE",
"650 319 CURVE SMOOTH",
"650 234 OFFCURVE",
"616 148 OFFCURVE",
"545 87 CURVE SMOOTH",
"517 63 OFFCURVE",
"450 33 OFFCURVE",
"389 33 CURVE SMOOTH"
);
},
{
closed = 1;
nodes = (
"358.165 246.635 LINE SMOOTH",
"371.907 247.114 OFFCURVE",
"409.269 287.543 OFFCURVE",
"390.53 286.888 CURVE",
"390.53 286.888 LINE",
"100.707 276.769 LINE SMOOTH",
"89.464 276.376 OFFCURVE",
"57.098 236.122 OFFCURVE",
"68.342 236.515 CURVE SMOOTH"
);
}
);
width = 760;
}
);
leftKerningGroup = H;
widthMetricsKey = D;
note = Eth;
rightKerningGroup = O;
rightMetricsKey = D;
unicode = 00D0;
},
{
color = 3;
glyphname = E;
lastChange = "2022-03-24 15:24:15 +0000";
layers = (
{
anchors = (
{
name = bottom;
position = "{323, 0}";
},
{
name = ogonek;
position = "{521, 0}";
},
{
name = top;
position = "{419, 640}";
}
);
background = {
paths = (
{
closed = 1;
nodes = (
"604 182 OFFCURVE",
"595 190 OFFCURVE",
"592 183 CURVE SMOOTH",
"553 94 OFFCURVE",
"478 32 OFFCURVE",
"375 32 CURVE SMOOTH",
"272 32 OFFCURVE",
"259 64 OFFCURVE",
"263 113 CURVE SMOOTH",
"269 193 OFFCURVE",
"274 254 OFFCURVE",
"281 315 CURVE",
"312 315 OFFCURVE",
"350 314 OFFCURVE",
"409 313 CURVE SMOOTH",
"436 313 OFFCURVE",
"462 310 OFFCURVE",
"486 322 CURVE SMOOTH",
"503 330 OFFCURVE",
"534 350 OFFCURVE",
"544 370 CURVE SMOOTH",
"547 377 OFFCURVE",
"546 381 OFFCURVE",
"540 376 CURVE SMOOTH",
"529 368 OFFCURVE",
"466 356 OFFCURVE",
"419 354 CURVE SMOOTH",
"369 351 OFFCURVE",
"324 349 OFFCURVE",
"285 347 CURVE",
"291 395 OFFCURVE",
"298 445 OFFCURVE",
"309 506 CURVE SMOOTH",
"327 610 OFFCURVE",
"398 596 OFFCURVE",
"487 597 CURVE SMOOTH",
"544 598 OFFCURVE",
"584 550 OFFCURVE",
"577 454 CURVE SMOOTH",
"576 437 OFFCURVE",
"591 436 OFFCURVE",
"592 445 CURVE SMOOTH",
"595 499 OFFCURVE",
"594 524 OFFCURVE",
"599 572 CURVE SMOOTH",
"605 622 OFFCURVE",
"595 639 OFFCURVE",
"550 637 CURVE SMOOTH",
"455 632 OFFCURVE",
"379 631 OFFCURVE",
"285 630 CURVE SMOOTH",
"219 629 OFFCURVE",
"143 634 OFFCURVE",
"66 634 CURVE SMOOTH",
"55 634 OFFCURVE",
"44 617 OFFCURVE",
"57 617 CURVE SMOOTH",
"72 618 OFFCURVE",
"149 617 OFFCURVE",
"170 613 CURVE SMOOTH",
"213 606 OFFCURVE",
"206 541 OFFCURVE",
"205 509 CURVE SMOOTH",
"204 478 OFFCURVE",
"199 414 OFFCURVE",
"189 340 CURVE",
"180 339 OFFCURVE",
"170 338 OFFCURVE",
"165 337 CURVE SMOOTH",
"148 332 OFFCURVE",
"103 309 OFFCURVE",
"154 313 CURVE SMOOTH",
"163 314 OFFCURVE",
"176 314 OFFCURVE",
"186 315 CURVE",
"178 256 OFFCURVE",
"167 191 OFFCURVE",
"153 132 CURVE SMOOTH",
"123 2 OFFCURVE",
"129 14 OFFCURVE",
"-24 17 CURVE SMOOTH",
"-31 17 OFFCURVE",
"-44 -2 OFFCURVE",
"-34 0 CURVE",
"33 -1 OFFCURVE",
"115 2 OFFCURVE",
"145 3 CURVE SMOOTH",
"212 6 OFFCURVE",
"257 8 OFFCURVE",
"321 3 CURVE SMOOTH",
"442 -6 OFFCURVE",
"502 -13 OFFCURVE",
"521 0 CURVE SMOOTH",
"569 31 OFFCURVE",
"590 145 OFFCURVE",
"602 175 CURVE SMOOTH"
);
}
);
};
layerId = "404CF7D8-B1FB-4D32-849A-66F5CDD10145";
paths = (
{
closed = 1;
nodes = (
"500 -7 OFFCURVE",
"513 -5 OFFCURVE",
"521 0 CURVE SMOOTH",
"569 31 OFFCURVE",
"590 145 OFFCURVE",
"602 175 CURVE",
"603 180 OFFCURVE",
"599 186 OFFCURVE",
"595 186 CURVE SMOOTH",
"594 186 OFFCURVE",
"593 185 OFFCURVE",
"592 183 CURVE SMOOTH",
"553 94 OFFCURVE",
"478 32 OFFCURVE",
"375 32 CURVE SMOOTH",
"272 32 OFFCURVE",
"259 64 OFFCURVE",
"263 113 CURVE SMOOTH",
"269 193 OFFCURVE",
"274 254 OFFCURVE",
"281 315 CURVE",
"316 315 OFFCURVE",
"361 313 OFFCURVE",
"436 313 CURVE SMOOTH",
"453 313 OFFCURVE",
"470 314 OFFCURVE",
"486 322 CURVE SMOOTH",
"503 330 OFFCURVE",
"534 350 OFFCURVE",
"544 370 CURVE SMOOTH",
"546 375 OFFCURVE",
"546 378 OFFCURVE",
"544 378 CURVE SMOOTH",
"543 378 OFFCURVE",
"542 378 OFFCURVE",
"540 376 CURVE SMOOTH",
"529 368 OFFCURVE",
"466 356 OFFCURVE",
"419 354 CURVE SMOOTH",
"369 351 OFFCURVE",
"324 349 OFFCURVE",
"285 347 CURVE",
"291 395 OFFCURVE",
"298 445 OFFCURVE",
"309 506 CURVE SMOOTH",
"323 589 OFFCURVE",
"371 598 OFFCURVE",
"435 598 CURVE SMOOTH",
"452 598 OFFCURVE",
"470 597 OFFCURVE",
"489 597 CURVE SMOOTH",
"541 597 OFFCURVE",
"578 556 OFFCURVE",
"578 475 CURVE SMOOTH",
"578 467 OFFCURVE",
"577 460 OFFCURVE",
"577 452 CURVE SMOOTH",
"577 443 OFFCURVE",
"582 439 OFFCURVE",
"586 439 CURVE SMOOTH",
"589 439 OFFCURVE",
"592 441 OFFCURVE",
"592 445 CURVE SMOOTH",
"595 499 OFFCURVE",
"594 524 OFFCURVE",
"599 572 CURVE SMOOTH",
"600 581 OFFCURVE",
"601 588 OFFCURVE",
"601 595 CURVE SMOOTH",
"601 627 OFFCURVE",
"587 639 OFFCURVE",
"550 637 CURVE SMOOTH",
"449 632 OFFCURVE",
"370 630 OFFCURVE",
"267 630 CURVE SMOOTH",
"205 630 OFFCURVE",
"136 634 OFFCURVE",
"66 634 CURVE SMOOTH",
"59 634 OFFCURVE",
"51 626 OFFCURVE",
"51 621 CURVE SMOOTH",
"51 619 OFFCURVE",
"53 617 OFFCURVE",
"57 617 CURVE SMOOTH",
"72 618 OFFCURVE",
"149 617 OFFCURVE",
"170 613 CURVE SMOOTH",
"201 608 OFFCURVE",
"206 573 OFFCURVE",
"206 541 CURVE SMOOTH",
"206 499 OFFCURVE",
"197 400 OFFCURVE",
"189 340 CURVE",
"180 339 OFFCURVE",
"170 338 OFFCURVE",
"165 337 CURVE SMOOTH",
"154 334 OFFCURVE",
"130 323 OFFCURVE",
"130 317 CURVE SMOOTH",
"130 314 OFFCURVE",
"134 313 OFFCURVE",
"144 313 CURVE SMOOTH",
"154 313 LINE SMOOTH",
"163 313 OFFCURVE",
"176 314 OFFCURVE",
"186 315 CURVE",
"178 256 OFFCURVE",
"167 191 OFFCURVE",
"153 132 CURVE SMOOTH",
"129 30 OFFCURVE",
"128 15 OFFCURVE",
"54 15 CURVE SMOOTH",
"34 15 OFFCURVE",
"9 16 OFFCURVE",
"-24 17 CURVE SMOOTH",
"-29 17 OFFCURVE",
"-38 7 OFFCURVE",
"-38 2 CURVE SMOOTH",
"-38 1 OFFCURVE",
"-37 0 OFFCURVE",
"-35 0 CURVE SMOOTH",
"-34 0 LINE SMOOTH",
"33 0 OFFCURVE",
"115 2 OFFCURVE",
"145 3 CURVE SMOOTH",
"183 5 OFFCURVE",
"213 6 OFFCURVE",
"244 6 CURVE SMOOTH",
"268 6 OFFCURVE",
"293 5 OFFCURVE",
"321 3 CURVE SMOOTH",
"394 -2 OFFCURVE",
"445 -7 OFFCURVE",
"478 -7 CURVE SMOOTH"
);
}
);
width = 645;
}
);
leftKerningGroup = H;
note = E;
rightKerningGroup = E;
unicode = 0045;
},
{
glyphname = F;
lastChange = "2022-03-24 15:26:30 +0000";
layers = (
{
background = {
paths = (
{
closed = 1;
nodes = (
"603 622 OFFCURVE",
"593 639 OFFCURVE",
"547 637 CURVE SMOOTH",
"453 632 OFFCURVE",
"377 631 OFFCURVE",
"283 630 CURVE SMOOTH",
"217 629 OFFCURVE",
"141 634 OFFCURVE",
"64 634 CURVE SMOOTH",
"53 634 OFFCURVE",
"42 617 OFFCURVE",
"55 617 CURVE SMOOTH",
"70 618 OFFCURVE",
"147 617 OFFCURVE",
"168 613 CURVE SMOOTH",
"211 606 OFFCURVE",
"204 541 OFFCURVE",
"203 509 CURVE SMOOTH",
"202 478 OFFCURVE",
"197 414 OFFCURVE",
"187 340 CURVE",
"178 339 OFFCURVE",
"168 338 OFFCURVE",
"163 337 CURVE SMOOTH",
"146 332 OFFCURVE",
"101 309 OFFCURVE",
"152 313 CURVE SMOOTH",
"161 314 OFFCURVE",
"174 314 OFFCURVE",
"184 315 CURVE",
"176 256 OFFCURVE",
"165 191 OFFCURVE",
"151 132 CURVE SMOOTH",
"121 2 OFFCURVE",
"127 14 OFFCURVE",
"-26 17 CURVE SMOOTH",
"-33 17 OFFCURVE",
"-46 -2 OFFCURVE",
"-36 0 CURVE",
"31 -1 OFFCURVE",
"113 2 OFFCURVE",
"143 3 CURVE SMOOTH",
"210 6 OFFCURVE",
"337 4 OFFCURVE",
"403 0 CURVE SMOOTH",
"414 -1 OFFCURVE",
"425 17 OFFCURVE",
"412 16 CURVE SMOOTH",
"397 15 OFFCURVE",
"328 13 OFFCURVE",
"307 17 CURVE SMOOTH",
"295 19 OFFCURVE",
"270 30 OFFCURVE",
"263 63 CURVE SMOOTH",
"253 107 OFFCURVE",
"263 214 OFFCURVE",
"276 316 CURVE",
"307 315 OFFCURVE",
"346 314 OFFCURVE",
"407 313 CURVE SMOOTH",
"434 313 OFFCURVE",
"459 311 OFFCURVE",
"484 322 CURVE",
"500 331 OFFCURVE",
"532 350 OFFCURVE",
"542 370 CURVE SMOOTH",
"545 377 OFFCURVE",
"544 381 OFFCURVE",
"538 376 CURVE SMOOTH",
"527 368 OFFCURVE",
"463 356 OFFCURVE",
"417 354 CURVE SMOOTH",
"366 351 OFFCURVE",
"320 349 OFFCURVE",
"280 347 CURVE",
"292 428 OFFCURVE",
"304 500 OFFCURVE",
"310 529 CURVE SMOOTH",
"325 597 OFFCURVE",
"385 596 OFFCURVE",
"484 597 CURVE SMOOTH",
"541 598 OFFCURVE",
"581 550 OFFCURVE",
"574 454 CURVE SMOOTH",
"573 437 OFFCURVE",
"588 436 OFFCURVE",
"589 445 CURVE SMOOTH",
"593 499 OFFCURVE",
"592 524 OFFCURVE",
"597 572 CURVE SMOOTH"
);
}
);
};
layerId = "404CF7D8-B1FB-4D32-849A-66F5CDD10145";
paths = (
{
closed = 1;
nodes = (
"-36 0 LINE SMOOTH",
"31 0 OFFCURVE",
"113 2 OFFCURVE",
"143 3 CURVE SMOOTH",
"165 4 OFFCURVE",
"194 4 OFFCURVE",
"226 4 CURVE SMOOTH",
"288 4 OFFCURVE",
"359 3 OFFCURVE",
"403 0 CURVE SMOOTH",
"411 -1 OFFCURVE",
"418 7 OFFCURVE",
"418 12 CURVE SMOOTH",
"418 14 OFFCURVE",
"416 16 OFFCURVE",
"413 16 CURVE SMOOTH",
"412 16 LINE SMOOTH",
"404 16 OFFCURVE",
"379 15 OFFCURVE",
"356 15 CURVE SMOOTH",
"336 15 OFFCURVE",
"317 15 OFFCURVE",
"307 17 CURVE SMOOTH",
"274 22 OFFCURVE",
"259 55 OFFCURVE",
"259 100 CURVE SMOOTH",
"259 167 OFFCURVE",
"267 243 OFFCURVE",
"276 316 CURVE",
"310 315 OFFCURVE",
"355 313 OFFCURVE",
"428 313 CURVE SMOOTH",
"447 313 OFFCURVE",
"466 314 OFFCURVE",
"484 322 CURVE SMOOTH",
"500 331 OFFCURVE",
"532 350 OFFCURVE",
"542 370 CURVE SMOOTH",
"544 375 OFFCURVE",
"544 378 OFFCURVE",
"542 378 CURVE SMOOTH",
"541 378 OFFCURVE",
"540 378 OFFCURVE",
"538 376 CURVE SMOOTH",
"527 368 OFFCURVE",
"463 356 OFFCURVE",
"417 354 CURVE SMOOTH",
"366 351 OFFCURVE",
"320 349 OFFCURVE",
"280 347 CURVE",
"292 428 OFFCURVE",
"304 500 OFFCURVE",
"310 529 CURVE SMOOTH",
"317 561 OFFCURVE",
"334 577 OFFCURVE",
"360 586 CURVE SMOOTH",
"383 594 OFFCURVE",
"420 597 OFFCURVE",
"486 597 CURVE SMOOTH",
"538 597 OFFCURVE",
"575 556 OFFCURVE",
"575 475 CURVE SMOOTH",
"575 467 OFFCURVE",
"574 460 OFFCURVE",
"574 452 CURVE SMOOTH",
"574 443 OFFCURVE",
"579 439 OFFCURVE",
"583 439 CURVE SMOOTH",
"587 439 OFFCURVE",
"590 442 OFFCURVE",
"590 451 CURVE SMOOTH",
"590 508 OFFCURVE",
"599 581 OFFCURVE",
"599 595 CURVE SMOOTH",
"599 626 OFFCURVE",
"585 639 OFFCURVE",
"547 637 CURVE SMOOTH",
"447 632 OFFCURVE",
"368 630 OFFCURVE",
"265 630 CURVE SMOOTH",
"203 630 OFFCURVE",
"134 634 OFFCURVE",
"64 634 CURVE SMOOTH",
"57 634 OFFCURVE",
"49 626 OFFCURVE",
"49 621 CURVE SMOOTH",
"49 619 OFFCURVE",
"51 617 OFFCURVE",
"55 617 CURVE SMOOTH",
"70 618 OFFCURVE",
"147 617 OFFCURVE",
"168 613 CURVE SMOOTH",
"199 608 OFFCURVE",
"204 573 OFFCURVE",
"204 541 CURVE SMOOTH",
"204 499 OFFCURVE",
"195 400 OFFCURVE",
"187 340 CURVE",
"178 339 OFFCURVE",
"168 338 OFFCURVE",
"163 337 CURVE SMOOTH",
"152 334 OFFCURVE",
"128 323 OFFCURVE",
"128 317 CURVE SMOOTH",
"128 314 OFFCURVE",
"132 313 OFFCURVE",
"142 313 CURVE SMOOTH",
"152 313 LINE SMOOTH",
"161 313 OFFCURVE",
"174 314 OFFCURVE",
"184 315 CURVE",
"176 256 OFFCURVE",
"165 191 OFFCURVE",
"148 120 CURVE SMOOTH",
"125 22 OFFCURVE",
"119 15 OFFCURVE",
"49 15 CURVE SMOOTH",
"32 15 OFFCURVE",
"7 16 OFFCURVE",
"-26 17 CURVE SMOOTH",
"-31 17 OFFCURVE",
"-40 7 OFFCURVE",
"-40 2 CURVE SMOOTH",
"-40 1 OFFCURVE",
"-39 0 OFFCURVE",
"-37 0 CURVE SMOOTH"
);
}
);
width = 587;
}
);
leftKerningGroup = H;
note = F;
rightKerningGroup = F;
unicode = 0046;
},
{
color = 3;
glyphname = G;
lastChange = "2022-03-24 13:58:52 +0000";
layers = (
{
anchors = (
{
name = bottom;
position = "{370, 0}";
},
{
name = top;
position = "{530, 640}";
}
);
background = {
paths = (
{
closed = 1;
nodes = (
"703 275 OFFCURVE",
"623 274 OFFCURVE",
"598 274 CURVE SMOOTH",
"532 274 OFFCURVE",
"484 276 OFFCURVE",
"417 279 CURVE SMOOTH",
"407 280 OFFCURVE",
"394 262 OFFCURVE",
"408 262 CURVE SMOOTH",
"423 263 OFFCURVE",
"501 265 OFFCURVE",
"522 262 CURVE SMOOTH",
"534 260 OFFCURVE",
"555 247 OFFCURVE",
"551 221 CURVE SMOOTH",
"546 183 OFFCURVE",
"544 129 OFFCURVE",
"535 91 CURVE SMOOTH",
"501 -59 OFFCURVE",
"153 30 OFFCURVE",
"152 307 CURVE SMOOTH",
"152 508 OFFCURVE",
"297 583 OFFCURVE",
"461 583 CURVE SMOOTH",
"519 583 OFFCURVE",
"615 578 OFFCURVE",
"615 505 CURVE SMOOTH",
"615 482 OFFCURVE",
"607 459 OFFCURVE",
"600 437 CURVE SMOOTH",
"599 434 OFFCURVE",
"599 432 OFFCURVE",
"599 430 CURVE SMOOTH",
"599 426 OFFCURVE",
"601 422 OFFCURVE",
"606 422 CURVE SMOOTH",
"610 422 OFFCURVE",
"613 424 OFFCURVE",
"614 427 CURVE SMOOTH",
"623 450 OFFCURVE",
"629 473 OFFCURVE",
"637 496 CURVE SMOOTH",
"644 517 OFFCURVE",
"654 537 OFFCURVE",
"659 560 CURVE SMOOTH",
"661 567 OFFCURVE",
"664 574 OFFCURVE",
"664 582 CURVE SMOOTH",
"664 632 OFFCURVE",
"594 644 OFFCURVE",
"552 644 CURVE SMOOTH",
"255 644 OFFCURVE",
"47 458 OFFCURVE",
"47 248 CURVE SMOOTH",
"47 84 OFFCURVE",
"188 -9 OFFCURVE",
"344 -9 CURVE SMOOTH",
"421 -9 OFFCURVE",
"582 26 OFFCURVE",
"613 0 CURVE SMOOTH",
"628 -12 OFFCURVE",
"634 -8 OFFCURVE",
"634 6 CURVE SMOOTH",
"632 57 OFFCURVE",
"640 148 OFFCURVE",
"647 172 CURVE SMOOTH",
"667 242 OFFCURVE",
"676 267 OFFCURVE",
"726 267 CURVE SMOOTH",
"745 267 OFFCURVE",
"768 265 OFFCURVE",
"798 263 CURVE",
"811 260 OFFCURVE",
"810 282 OFFCURVE",
"799 280 CURVE"
);
}
);
};
layerId = "404CF7D8-B1FB-4D32-849A-66F5CDD10145";
paths = (
{
closed = 1;
nodes = (
"400 -9 OFFCURVE",
"501 10 OFFCURVE",
"563 10 CURVE SMOOTH",
"587 10 OFFCURVE",
"605 7 OFFCURVE",
"613 0 CURVE SMOOTH",
"619 -5 OFFCURVE",
"624 -7 OFFCURVE",
"627 -7 CURVE SMOOTH",
"632 -7 OFFCURVE",
"634 -2 OFFCURVE",
"634 6 CURVE SMOOTH",
"632 57 OFFCURVE",
"640 148 OFFCURVE",
"647 172 CURVE SMOOTH",
"667 242 OFFCURVE",
"676 267 OFFCURVE",
"726 267 CURVE SMOOTH",
"756 267 OFFCURVE",
"788 263 OFFCURVE",
"798 263 CURVE SMOOTH",
"805 263 OFFCURVE",
"808 266 OFFCURVE",
"808 271 CURVE SMOOTH",
"808 275 OFFCURVE",
"805 280 OFFCURVE",
"800 280 CURVE SMOOTH",
"792 280 OFFCURVE",
"686 274 OFFCURVE",
"598 274 CURVE SMOOTH",
"481 274 OFFCURVE",
"435 279 OFFCURVE",
"416 279 CURVE SMOOTH",
"410 279 OFFCURVE",
"402 272 OFFCURVE",
"402 266 CURVE SMOOTH",
"402 264 OFFCURVE",
"404 262 OFFCURVE",
"408 262 CURVE SMOOTH",
"416 262 OFFCURVE",
"457 264 OFFCURVE",
"501 264 CURVE SMOOTH",
"533 264 OFFCURVE",
"551 252 OFFCURVE",
"551 227 CURVE SMOOTH",
"551 217 OFFCURVE",
"544 129 OFFCURVE",
"535 91 CURVE SMOOTH",
"524 42 OFFCURVE",
"480 19 OFFCURVE",
"425 19 CURVE SMOOTH",
"311 19 OFFCURVE",
"153 120 OFFCURVE",
"152 307 CURVE SMOOTH",
"152 508 OFFCURVE",
"297 583 OFFCURVE",
"461 583 CURVE SMOOTH",
"519 583 OFFCURVE",
"615 578 OFFCURVE",
"615 505 CURVE SMOOTH",
"615 482 OFFCURVE",
"607 459 OFFCURVE",
"601 440 CURVE SMOOTH",
"600 436 OFFCURVE",
"599 434 OFFCURVE",
"599 430 CURVE SMOOTH",
"599 426 OFFCURVE",
"601 422 OFFCURVE",
"607 422 CURVE SMOOTH",
"611 422 OFFCURVE",
"613 425 OFFCURVE",
"614 427 CURVE SMOOTH",
"623 450 OFFCURVE",
"628 473 OFFCURVE",
"637 496 CURVE SMOOTH",
"648 525 OFFCURVE",
"664 564 OFFCURVE",
"664 582 CURVE SMOOTH",
"664 632 OFFCURVE",
"594 644 OFFCURVE",
"552 644 CURVE SMOOTH",
"255 644 OFFCURVE",
"47 458 OFFCURVE",
"47 248 CURVE SMOOTH",
"47 84 OFFCURVE",
"188 -9 OFFCURVE",
"344 -9 CURVE SMOOTH"
);
}
);
width = 718;
}
);
leftKerningGroup = C;
note = G;
rightKerningGroup = G;
unicode = 0047;
},
{
color = 3;
glyphname = H;
lastChange = "2022-03-24 15:28:14 +0000";
layers = (
{
anchors = (
{
name = top;
position = "{522, 640}";
}
);
background = {
paths = (
{
closed = 1;
nodes = (
"850 635 OFFCURVE",
"768 632 OFFCURVE",
"737 631 CURVE SMOOTH",
"713 630 OFFCURVE",
"696 629 OFFCURVE",
"686 629 CURVE SMOOTH",
"621 629 OFFCURVE",
"604 630 OFFCURVE",
"538 634 CURVE SMOOTH",
"528 635 OFFCURVE",
"516 617 OFFCURVE",
"529 618 CURVE SMOOTH",
"544 619 OFFCURVE",
"583 621 OFFCURVE",
"604 618 CURVE SMOOTH",
"616 615 OFFCURVE",
"637 603 OFFCURVE",
"634 577 CURVE SMOOTH",
"627 511 OFFCURVE",
"620 449 OFFCURVE",
"613 388 CURVE SMOOTH",
"611 367 OFFCURVE",
"602 362 OFFCURVE",
"582 362 CURVE SMOOTH",
"315 362 LINE SMOOTH",
"291 362 OFFCURVE",
"290 374 OFFCURVE",
"291 382 CURVE SMOOTH",
"300 448 OFFCURVE",
"311 508 OFFCURVE",
"317 532 CURVE SMOOTH",
"333 600 OFFCURVE",
"349 614 OFFCURVE",
"391 618 CURVE SMOOTH",
"409 620 OFFCURVE",
"425 620 OFFCURVE",
"455 619 CURVE",
"467 615 OFFCURVE",
"466 637 OFFCURVE",
"455 635 CURVE",
"403 633 OFFCURVE",
"346 632 OFFCURVE",
"318 631 CURVE SMOOTH",
"252 628 OFFCURVE",
"143 634 OFFCURVE",
"76 634 CURVE SMOOTH",
"65 634 OFFCURVE",
"54 617 OFFCURVE",
"67 617 CURVE SMOOTH",
"82 618 OFFCURVE",
"159 616 OFFCURVE",
"180 613 CURVE SMOOTH",
"198 610 OFFCURVE",
"217 587 OFFCURVE",
"215 561 CURVE SMOOTH",
"201 412 OFFCURVE",
"185 280 OFFCURVE",
"153 132 CURVE SMOOTH",
"124 1 OFFCURVE",
"129 15 OFFCURVE",
"-24 17 CURVE",
"-31 18 OFFCURVE",
"-44 -2 OFFCURVE",
"-33 0 CURVE",
"33 -1 OFFCURVE",
"115 2 OFFCURVE",
"145 3 CURVE SMOOTH",
"212 6 OFFCURVE",
"290 4 OFFCURVE",
"356 0 CURVE SMOOTH",
"367 -1 OFFCURVE",
"379 17 OFFCURVE",
"365 16 CURVE SMOOTH",
"350 15 OFFCURVE",
"305 17 OFFCURVE",
"284 20 CURVE SMOOTH",
"272 23 OFFCURVE",
"252 35 OFFCURVE",
"253 61 CURVE SMOOTH",
"255 104 OFFCURVE",
"270 222 OFFCURVE",
"278 293 CURVE SMOOTH",
"280 309 OFFCURVE",
"286 321 OFFCURVE",
"300 321 CURVE SMOOTH",
"575 321 LINE SMOOTH",
"595 321 OFFCURVE",
"604 321 OFFCURVE",
"601 299 CURVE SMOOTH",
"593 244 OFFCURVE",
"591 190 OFFCURVE",
"578 132 CURVE SMOOTH",
"550 1 OFFCURVE",
"530 13 OFFCURVE",
"455 17 CURVE",
"442 20 OFFCURVE",
"445 -2 OFFCURVE",
"455 0 CURVE",
"526 2 OFFCURVE",
"534 2 OFFCURVE",
"564 3 CURVE SMOOTH",
"631 6 OFFCURVE",
"740 0 OFFCURVE",
"807 0 CURVE SMOOTH",
"817 0 OFFCURVE",
"829 17 OFFCURVE",
"816 16 CURVE SMOOTH",
"801 15 OFFCURVE",
"724 17 OFFCURVE",
"703 20 CURVE SMOOTH",
"691 23 OFFCURVE",
"672 35 OFFCURVE",
"673 61 CURVE SMOOTH",
"677 139 OFFCURVE",
"708 395 OFFCURVE",
"730 501 CURVE SMOOTH",
"757 633 OFFCURVE",
"754 618 OFFCURVE",
"906 616 CURVE",
"914 615 OFFCURVE",
"927 635 OFFCURVE",
"916 633 CURVE"
);
}
);
};
layerId = "404CF7D8-B1FB-4D32-849A-66F5CDD10145";
paths = (
{
closed = 1;
nodes = (
"-33 0 LINE SMOOTH",
"33 0 OFFCURVE",
"115 2 OFFCURVE",
"145 3 CURVE SMOOTH",
"167 4 OFFCURVE",
"191 4 OFFCURVE",
"215 4 CURVE SMOOTH",
"263 4 OFFCURVE",
"312 3 OFFCURVE",
"356 0 CURVE SMOOTH",
"364 -1 OFFCURVE",
"371 7 OFFCURVE",
"371 12 CURVE SMOOTH",
"371 14 OFFCURVE",
"370 16 OFFCURVE",
"366 16 CURVE SMOOTH",
"365 16 LINE SMOOTH",
"350 16 OFFCURVE",
"305 16 OFFCURVE",
"284 20 CURVE SMOOTH",
"270 22 OFFCURVE",
"253 35 OFFCURVE",
"253 59 CURVE SMOOTH",
"253 101 OFFCURVE",
"270 221 OFFCURVE",
"278 293 CURVE SMOOTH",
"280 309 OFFCURVE",
"286 321 OFFCURVE",
"300 321 CURVE SMOOTH",
"582 321 LINE SMOOTH",
"597 321 OFFCURVE",
"602 317 OFFCURVE",
"602 306 CURVE SMOOTH",
"602 294 OFFCURVE",
"590 190 OFFCURVE",
"578 132 CURVE SMOOTH",
"557 30 OFFCURVE",
"539 15 OFFCURVE",
"498 15 CURVE SMOOTH",
"475 15 OFFCURVE",
"467 17 OFFCURVE",
"453 17 CURVE SMOOTH",
"449 17 OFFCURVE",
"446 14 OFFCURVE",
"446 10 CURVE SMOOTH",
"446 5 OFFCURVE",
"449 0 OFFCURVE",
"454 0 CURVE SMOOTH",
"462 0 OFFCURVE",
"527 2 OFFCURVE",
"564 3 CURVE SMOOTH",
"577 3 OFFCURVE",
"592 4 OFFCURVE",
"609 4 CURVE SMOOTH",
"673 4 OFFCURVE",
"753 0 OFFCURVE",
"807 0 CURVE SMOOTH",
"814 0 OFFCURVE",
"822 8 OFFCURVE",
"822 12 CURVE SMOOTH",
"822 15 OFFCURVE",
"820 16 OFFCURVE",
"817 16 CURVE SMOOTH",
"801 16 OFFCURVE",
"724 17 OFFCURVE",
"703 20 CURVE SMOOTH",
"691 22 OFFCURVE",
"672 35 OFFCURVE",
"673 61 CURVE SMOOTH",
"677 139 OFFCURVE",
"708 395 OFFCURVE",
"730 501 CURVE SMOOTH",
"751 604 OFFCURVE",
"754 618 OFFCURVE",
"826 618 CURVE SMOOTH",
"847 618 OFFCURVE",
"873 616 OFFCURVE",
"906 616 CURVE",
"912 615 OFFCURVE",
"920 625 OFFCURVE",
"920 630 CURVE SMOOTH",
"920 632 OFFCURVE",
"919 633 OFFCURVE",
"917 633 CURVE SMOOTH",
"916 633 LINE SMOOTH",
"900 633 OFFCURVE",
"883 634 OFFCURVE",
"867 634 CURVE SMOOTH",
"814 634 OFFCURVE",
"721 629 OFFCURVE",
"673 629 CURVE SMOOTH",
"591 629 OFFCURVE",
"550 634 OFFCURVE",
"537 634 CURVE SMOOTH",
"531 634 OFFCURVE",
"523 626 OFFCURVE",
"523 622 CURVE SMOOTH",
"523 619 OFFCURVE",
"525 618 OFFCURVE",
"528 618 CURVE SMOOTH",
"538 618 OFFCURVE",
"556 620 OFFCURVE",
"574 620 CURVE SMOOTH",
"585 620 OFFCURVE",
"596 619 OFFCURVE",
"604 618 CURVE SMOOTH",
"616 615 OFFCURVE",
"637 603 OFFCURVE",
"634 577 CURVE SMOOTH",
"627 511 OFFCURVE",
"620 449 OFFCURVE",
"613 388 CURVE SMOOTH",
"611 367 OFFCURVE",
"602 362 OFFCURVE",
"582 362 CURVE SMOOTH",
"311 362 LINE SMOOTH",
"299 362 OFFCURVE",
"291 368 OFFCURVE",
"291 378 CURVE SMOOTH",
"291 400 OFFCURVE",
"309 499 OFFCURVE",
"317 532 CURVE SMOOTH",
"333 600 OFFCURVE",
"349 614 OFFCURVE",
"391 618 CURVE SMOOTH",
"402 619 OFFCURVE",
"411 620 OFFCURVE",
"424 620 CURVE SMOOTH",
"441 620 OFFCURVE",
"451 618 OFFCURVE",
"458 618 CURVE SMOOTH",
"461 618 OFFCURVE",
"464 621 OFFCURVE",
"464 626 CURVE SMOOTH",
"464 630 OFFCURVE",
"461 635 OFFCURVE",
"456 635 CURVE SMOOTH",
"403 635 OFFCURVE",
"346 632 OFFCURVE",
"318 631 CURVE SMOOTH",
"305 630 OFFCURVE",
"290 630 OFFCURVE",
"274 630 CURVE SMOOTH",
"210 630 OFFCURVE",
"130 634 OFFCURVE",
"76 634 CURVE SMOOTH",
"69 634 OFFCURVE",
"61 626 OFFCURVE",
"61 621 CURVE SMOOTH",
"61 619 OFFCURVE",
"63 617 OFFCURVE",
"67 617 CURVE SMOOTH",
"82 618 OFFCURVE",
"159 616 OFFCURVE",
"180 613 CURVE SMOOTH",
"198 610 OFFCURVE",
"217 587 OFFCURVE",
"215 561 CURVE SMOOTH",
"201 412 OFFCURVE",
"185 280 OFFCURVE",
"153 132 CURVE SMOOTH",
"130 29 OFFCURVE",
"128 16 OFFCURVE",
"54 16 CURVE SMOOTH",
"34 16 OFFCURVE",
"9 17 OFFCURVE",
"-24 17 CURVE",
"-29 18 OFFCURVE",
"-37 8 OFFCURVE",
"-37 3 CURVE SMOOTH",
"-37 1 OFFCURVE",
"-36 0 OFFCURVE",
"-34 0 CURVE SMOOTH"
);
}
);
width = 828;
}
);
leftKerningGroup = H;
note = H;
rightKerningGroup = H;
unicode = 0048;
},
{
glyphname = Hbar;
lastChange = "2022-03-24 09:50:08 +0000";
layers = (
{
background = {
components = (
{
name = H;
},
{
name = emdash;
transform = "{0.92023, 0, 0, 1, 143, 198}";
}
);
};
layerId = "404CF7D8-B1FB-4D32-849A-66F5CDD10145";
paths = (
{
closed = 1;
nodes = (
"-33 0 LINE SMOOTH",
"33 0 OFFCURVE",
"115 2 OFFCURVE",
"145 3 CURVE SMOOTH",
"167 4 OFFCURVE",
"191 4 OFFCURVE",
"215 4 CURVE SMOOTH",
"263 4 OFFCURVE",
"312 3 OFFCURVE",
"356 0 CURVE SMOOTH",
"364 -1 OFFCURVE",
"371 7 OFFCURVE",
"371 12 CURVE SMOOTH",
"371 14 OFFCURVE",
"370 16 OFFCURVE",
"366 16 CURVE SMOOTH",
"365 16 LINE SMOOTH",
"350 16 OFFCURVE",
"305 16 OFFCURVE",
"284 20 CURVE SMOOTH",
"270 22 OFFCURVE",
"253 35 OFFCURVE",
"253 59 CURVE SMOOTH",
"253 101 OFFCURVE",
"270 221 OFFCURVE",
"278 293 CURVE SMOOTH",
"280 309 OFFCURVE",
"286 321 OFFCURVE",
"300 321 CURVE SMOOTH",
"582 321 LINE SMOOTH",
"597 321 OFFCURVE",
"602 317 OFFCURVE",
"602 306 CURVE SMOOTH",
"602 294 OFFCURVE",
"590 190 OFFCURVE",
"578 132 CURVE SMOOTH",
"557 30 OFFCURVE",
"539 15 OFFCURVE",
"498 15 CURVE SMOOTH",
"475 15 OFFCURVE",
"467 17 OFFCURVE",
"453 17 CURVE SMOOTH",
"449 17 OFFCURVE",
"446 14 OFFCURVE",
"446 10 CURVE SMOOTH",
"446 5 OFFCURVE",
"449 0 OFFCURVE",
"454 0 CURVE SMOOTH",
"462 0 OFFCURVE",
"527 2 OFFCURVE",
"564 3 CURVE SMOOTH",
"577 3 OFFCURVE",
"592 4 OFFCURVE",
"609 4 CURVE SMOOTH",
"673 4 OFFCURVE",
"753 0 OFFCURVE",
"807 0 CURVE SMOOTH",
"814 0 OFFCURVE",
"822 8 OFFCURVE",
"822 12 CURVE SMOOTH",
"822 15 OFFCURVE",
"820 16 OFFCURVE",
"817 16 CURVE SMOOTH",
"801 16 OFFCURVE",
"724 17 OFFCURVE",
"703 20 CURVE SMOOTH",
"691 22 OFFCURVE",
"672 35 OFFCURVE",
"673 61 CURVE SMOOTH",
"677 139 OFFCURVE",
"708 395 OFFCURVE",
"730 501 CURVE SMOOTH",
"751 604 OFFCURVE",
"754 618 OFFCURVE",
"826 618 CURVE SMOOTH",
"847 618 OFFCURVE",
"873 616 OFFCURVE",
"906 616 CURVE",
"912 615 OFFCURVE",
"920 625 OFFCURVE",
"920 630 CURVE SMOOTH",
"920 632 OFFCURVE",
"919 633 OFFCURVE",
"917 633 CURVE SMOOTH",
"916 633 LINE SMOOTH",
"900 633 OFFCURVE",
"883 634 OFFCURVE",
"867 634 CURVE SMOOTH",
"814 634 OFFCURVE",
"721 629 OFFCURVE",
"673 629 CURVE SMOOTH",
"591 629 OFFCURVE",
"550 634 OFFCURVE",
"537 634 CURVE SMOOTH",
"531 634 OFFCURVE",
"523 626 OFFCURVE",
"523 622 CURVE SMOOTH",
"523 619 OFFCURVE",
"525 618 OFFCURVE",
"528 618 CURVE SMOOTH",
"538 618 OFFCURVE",
"556 620 OFFCURVE",
"574 620 CURVE SMOOTH",
"585 620 OFFCURVE",
"596 619 OFFCURVE",
"604 618 CURVE SMOOTH",
"616 615 OFFCURVE",
"637 603 OFFCURVE",
"634 577 CURVE SMOOTH",
"627 511 OFFCURVE",
"620 449 OFFCURVE",
"613 388 CURVE SMOOTH",
"611 367 OFFCURVE",
"602 362 OFFCURVE",
"582 362 CURVE SMOOTH",
"311 362 LINE SMOOTH",
"299 362 OFFCURVE",
"291 368 OFFCURVE",
"291 378 CURVE SMOOTH",
"291 400 OFFCURVE",
"309 499 OFFCURVE",
"317 532 CURVE SMOOTH",
"333 600 OFFCURVE",
"349 614 OFFCURVE",
"391 618 CURVE SMOOTH",
"402 619 OFFCURVE",
"411 620 OFFCURVE",
"424 620 CURVE SMOOTH",
"441 620 OFFCURVE",
"451 618 OFFCURVE",
"458 618 CURVE SMOOTH",
"461 618 OFFCURVE",
"464 621 OFFCURVE",
"464 626 CURVE SMOOTH",
"464 630 OFFCURVE",
"461 635 OFFCURVE",
"456 635 CURVE SMOOTH",
"403 635 OFFCURVE",
"346 632 OFFCURVE",
"318 631 CURVE SMOOTH",
"305 630 OFFCURVE",
"290 630 OFFCURVE",
"274 630 CURVE SMOOTH",
"210 630 OFFCURVE",
"130 634 OFFCURVE",
"76 634 CURVE SMOOTH",
"69 634 OFFCURVE",
"61 626 OFFCURVE",
"61 621 CURVE SMOOTH",
"61 619 OFFCURVE",
"63 617 OFFCURVE",
"67 617 CURVE SMOOTH",
"82 618 OFFCURVE",
"159 616 OFFCURVE",
"180 613 CURVE SMOOTH",
"198 610 OFFCURVE",
"217 587 OFFCURVE",
"215 561 CURVE SMOOTH",
"201 412 OFFCURVE",
"185 280 OFFCURVE",
"153 132 CURVE SMOOTH",
"130 29 OFFCURVE",
"128 16 OFFCURVE",
"54 16 CURVE SMOOTH",
"34 16 OFFCURVE",
"9 17 OFFCURVE",
"-24 17 CURVE",
"-29 18 OFFCURVE",
"-37 8 OFFCURVE",
"-37 3 CURVE SMOOTH",
"-37 1 OFFCURVE",
"-36 0 OFFCURVE",
"-34 0 CURVE SMOOTH"
);
},
{
closed = 1;
nodes = (
"796.791 456 LINE SMOOTH",
"805.993 456 OFFCURVE",
"834.52 502 OFFCURVE",
"821.637 502 CURVE",
"821.637 502 LINE",
"144.348 502 LINE SMOOTH",
"136.066 502 OFFCURVE",
"111.22 456 OFFCURVE",
"119.502 456 CURVE SMOOTH"
);
}
);
width = 828;
}
);
leftKerningGroup = H;
rightKerningGroup = H;
unicode = 0126;
},
{
color = 3;
glyphname = I;
lastChange = "2022-03-23 13:51:31 +0000";
layers = (
{
anchors = (
{
name = bottom;
position = "{169, 0}";
},
{
name = ogonek;
position = "{236, 10}";
},
{
name = top;
position = "{300, 640}";
}
);
background = {
paths = (
{
closed = 1;
nodes = (
"431 635 OFFCURVE",
"349 632 OFFCURVE",
"318 631 CURVE SMOOTH",
"252 628 OFFCURVE",
"143 634 OFFCURVE",
"76 634 CURVE SMOOTH",
"66 634 OFFCURVE",
"54 617 OFFCURVE",
"67 617 CURVE SMOOTH",
"82 618 OFFCURVE",
"159 616 OFFCURVE",
"180 613 CURVE SMOOTH",
"198 610 OFFCURVE",
"218 587 OFFCURVE",
"215 561 CURVE SMOOTH",
"201 412 OFFCURVE",
"185 280 OFFCURVE",
"153 132 CURVE SMOOTH",
"124 1 OFFCURVE",
"129 15 OFFCURVE",
"-23 17 CURVE",
"-31 18 OFFCURVE",
"-44 -2 OFFCURVE",
"-33 0 CURVE",
"33 -1 OFFCURVE",
"115 2 OFFCURVE",
"146 3 CURVE SMOOTH",
"212 6 OFFCURVE",
"321 0 OFFCURVE",
"388 0 CURVE SMOOTH",
"399 0 OFFCURVE",
"410 17 OFFCURVE",
"397 16 CURVE SMOOTH",
"382 15 OFFCURVE",
"305 17 OFFCURVE",
"284 20 CURVE SMOOTH",
"272 23 OFFCURVE",
"253 35 OFFCURVE",
"254 61 CURVE SMOOTH",
"257 139 OFFCURVE",
"290 395 OFFCURVE",
"311 501 CURVE SMOOTH",
"338 633 OFFCURVE",
"335 618 OFFCURVE",
"488 616 CURVE",
"495 615 OFFCURVE",
"508 635 OFFCURVE",
"497 633 CURVE"
);
}
);
};
layerId = "404CF7D8-B1FB-4D32-849A-66F5CDD10145";
paths = (
{
closed = 1;
nodes = (
"-33 0 LINE SMOOTH",
"87 0 OFFCURVE",
"156 4 OFFCURVE",
"190 4 CURVE SMOOTH",
"254 4 OFFCURVE",
"334 0 OFFCURVE",
"388 0 CURVE SMOOTH",
"396 0 OFFCURVE",
"403 8 OFFCURVE",
"403 12 CURVE SMOOTH",
"403 14 OFFCURVE",
"401 16 OFFCURVE",
"398 16 CURVE SMOOTH",
"380 16 OFFCURVE",
"310 16 OFFCURVE",
"284 20 CURVE SMOOTH",
"272 22 OFFCURVE",
"253 35 OFFCURVE",
"254 61 CURVE SMOOTH",
"257 139 OFFCURVE",
"290 395 OFFCURVE",
"311 501 CURVE SMOOTH",
"332 604 OFFCURVE",
"335 618 OFFCURVE",
"408 618 CURVE SMOOTH",
"428 618 OFFCURVE",
"454 616 OFFCURVE",
"488 616 CURVE",
"493 615 OFFCURVE",
"501 625 OFFCURVE",
"501 630 CURVE SMOOTH",
"501 632 OFFCURVE",
"500 634 OFFCURVE",
"498 634 CURVE SMOOTH",
"380 634 OFFCURVE",
"323 630 OFFCURVE",
"274 630 CURVE SMOOTH",
"210 630 OFFCURVE",
"130 634 OFFCURVE",
"76 634 CURVE SMOOTH",
"69 634 OFFCURVE",
"61 626 OFFCURVE",
"61 621 CURVE SMOOTH",
"61 619 OFFCURVE",
"63 617 OFFCURVE",
"67 617 CURVE SMOOTH",
"82 618 OFFCURVE",
"159 616 OFFCURVE",
"180 613 CURVE SMOOTH",
"198 610 OFFCURVE",
"218 587 OFFCURVE",
"215 561 CURVE SMOOTH",
"201 412 OFFCURVE",
"185 280 OFFCURVE",
"153 132 CURVE SMOOTH",
"130 29 OFFCURVE",
"128 16 OFFCURVE",
"55 16 CURVE SMOOTH",
"13 16 OFFCURVE",
"-10 17 OFFCURVE",
"-24 17 CURVE SMOOTH",
"-29 17 OFFCURVE",
"-37 8 OFFCURVE",
"-37 3 CURVE SMOOTH",
"-37 1 OFFCURVE",
"-36 0 OFFCURVE",
"-34 0 CURVE SMOOTH"
);
}
);
width = 409;
}
);
leftKerningGroup = H;
note = I;
rightKerningGroup = H;
unicode = 0049;
},
{
color = 3;
glyphname = J;
lastChange = "2022-03-24 15:28:41 +0000";
layers = (
{
anchors = (
{
name = top;
position = "{363, 640}";
}
);
background = {
paths = (
{
closed = 1;
nodes = (
"469 635 OFFCURVE",
"404 632 OFFCURVE",
"366 631 CURVE SMOOTH",
"341 630 OFFCURVE",
"316 631 OFFCURVE",
"291 631 CURVE SMOOTH",
"237 632 OFFCURVE",
"191 631 OFFCURVE",
"134 634 CURVE SMOOTH",
"124 635 OFFCURVE",
"109 614 OFFCURVE",
"122 616 CURVE SMOOTH",
"139 619 OFFCURVE",
"217 618 OFFCURVE",
"238 615 CURVE SMOOTH",
"250 612 OFFCURVE",
"271 600 OFFCURVE",
"268 574 CURVE SMOOTH",
"253 423 OFFCURVE",
"238 299 OFFCURVE",
"207 151 CURVE SMOOTH",
"196 100 OFFCURVE",
"182 20 OFFCURVE",
"116 18 CURVE SMOOTH",
"81 17 OFFCURVE",
"65 45 OFFCURVE",
"58 76 CURVE SMOOTH",
"54 94 OFFCURVE",
"50 121 OFFCURVE",
"57 139 CURVE SMOOTH",
"61 151 OFFCURVE",
"51 158 OFFCURVE",
"44 144 CURVE SMOOTH",
"40 136 OFFCURVE",
"37 124 OFFCURVE",
"35 118 CURVE SMOOTH",
"21 71 OFFCURVE",
"5 71 OFFCURVE",
"-12 48 CURVE SMOOTH",
"-19 39 OFFCURVE",
"-15 28 OFFCURVE",
"-8 19 CURVE SMOOTH",
"27 -25 OFFCURVE",
"113 -20 OFFCURVE",
"162 -12 CURVE SMOOTH",
"217 -3 OFFCURVE",
"255 20 OFFCURVE",
"280 49 CURVE SMOOTH",
"311 87 OFFCURVE",
"309 122 OFFCURVE",
"315 167 CURVE SMOOTH",
"325 244 OFFCURVE",
"339 348 OFFCURVE",
"350 429 CURVE SMOOTH",
"356 474 OFFCURVE",
"362 514 OFFCURVE",
"367 532 CURVE SMOOTH",
"381 580 OFFCURVE",
"404 619 OFFCURVE",
"448 618 CURVE SMOOTH",
"466 618 OFFCURVE",
"488 617 OFFCURVE",
"514 616 CURVE SMOOTH",
"521 615 OFFCURVE",
"534 635 OFFCURVE",
"524 633 CURVE"
);
}
);
};
layerId = "404CF7D8-B1FB-4D32-849A-66F5CDD10145";
paths = (
{
closed = 1;
nodes = (
"122 -17 OFFCURVE",
"145 -15 OFFCURVE",
"162 -12 CURVE SMOOTH",
"217 -3 OFFCURVE",
"255 20 OFFCURVE",
"280 49 CURVE SMOOTH",
"311 87 OFFCURVE",
"309 122 OFFCURVE",
"315 167 CURVE SMOOTH",
"350 429 LINE SMOOTH",
"356 474 OFFCURVE",
"362 514 OFFCURVE",
"367 532 CURVE SMOOTH",
"381 579 OFFCURVE",
"403 618 OFFCURVE",
"446 618 CURVE SMOOTH",
"465 618 OFFCURVE",
"487 617 OFFCURVE",
"514 616 CURVE",
"519 615 OFFCURVE",
"528 626 OFFCURVE",
"528 631 CURVE SMOOTH",
"528 632 OFFCURVE",
"527 633 OFFCURVE",
"525 633 CURVE SMOOTH",
"524 633 LINE SMOOTH",
"508 633 OFFCURVE",
"490 634 OFFCURVE",
"473 634 CURVE SMOOTH",
"416 634 OFFCURVE",
"360 631 OFFCURVE",
"341 631 CURVE SMOOTH",
"291 631 LINE SMOOTH",
"237 631 OFFCURVE",
"191 631 OFFCURVE",
"134 634 CURVE SMOOTH",
"126 635 OFFCURVE",
"117 624 OFFCURVE",
"117 619 CURVE SMOOTH",
"117 617 OFFCURVE",
"118 616 OFFCURVE",
"120 616 CURVE SMOOTH",
"122 616 LINE SMOOTH",
"129 616 OFFCURVE",
"147 618 OFFCURVE",
"167 618 CURVE SMOOTH",
"194 618 OFFCURVE",
"228 618 OFFCURVE",
"241 614 CURVE SMOOTH",
"260 608 OFFCURVE",
"270 593 OFFCURVE",
"268 574 CURVE SMOOTH",
"253 423 OFFCURVE",
"238 299 OFFCURVE",
"207 151 CURVE SMOOTH",
"196 100 OFFCURVE",
"182 18 OFFCURVE",
"114 18 CURVE SMOOTH",
"78 18 OFFCURVE",
"53 53 OFFCURVE",
"53 116 CURVE SMOOTH",
"53 123 OFFCURVE",
"55 132 OFFCURVE",
"57 139 CURVE SMOOTH",
"59 146 OFFCURVE",
"57 152 OFFCURVE",
"53 152 CURVE SMOOTH",
"49 152 OFFCURVE",
"46 148 OFFCURVE",
"44 144 CURVE SMOOTH",
"40 136 OFFCURVE",
"37 124 OFFCURVE",
"35 118 CURVE SMOOTH",
"21 71 OFFCURVE",
"5 71 OFFCURVE",
"-12 48 CURVE SMOOTH",
"-15 44 OFFCURVE",
"-16 41 OFFCURVE",
"-16 37 CURVE SMOOTH",
"-16 31 OFFCURVE",
"-12 25 OFFCURVE",
"-8 19 CURVE SMOOTH",
"15 -9 OFFCURVE",
"58 -17 OFFCURVE",
"99 -17 CURVE SMOOTH"
);
}
);
width = 456;
}
);
leftKerningGroup = J;
note = J;
rightKerningGroup = J;
unicode = 004A;
},
{
color = 3;
glyphname = K;
lastChange = "2022-03-24 15:29:58 +0000";
layers = (
{
anchors = (
{
name = bottom;
position = "{346, 0}";
}
);
background = {
paths = (
{
closed = 1;
nodes = (
"692 635 OFFCURVE",
"646 629 OFFCURVE",
"605 629 CURVE SMOOTH",
"576 629 OFFCURVE",
"514 634 OFFCURVE",
"496 634 CURVE SMOOTH",
"474 636 OFFCURVE",
"470 614 OFFCURVE",
"487 618 CURVE",
"502 619 OFFCURVE",
"574 612 OFFCURVE",
"477 500 CURVE SMOOTH",
"410 423 OFFCURVE",
"341 342 OFFCURVE",
"275 267 CURVE",
"289 376 OFFCURVE",
"306 491 OFFCURVE",
"316 529 CURVE SMOOTH",
"335 598 OFFCURVE",
"347 621 OFFCURVE",
"397 620 CURVE SMOOTH",
"415 620 OFFCURVE",
"424 619 OFFCURVE",
"433 618 CURVE SMOOTH",
"442 617 OFFCURVE",
"451 635 OFFCURVE",
"440 634 CURVE SMOOTH",
"389 631 OFFCURVE",
"345 632 OFFCURVE",
"318 631 CURVE SMOOTH",
"252 628 OFFCURVE",
"143 634 OFFCURVE",
"76 634 CURVE SMOOTH",
"65 634 OFFCURVE",
"54 617 OFFCURVE",
"67 617 CURVE SMOOTH",
"82 618 OFFCURVE",
"159 616 OFFCURVE",
"180 613 CURVE SMOOTH",
"198 610 OFFCURVE",
"217 587 OFFCURVE",
"215 561 CURVE SMOOTH",
"201 412 OFFCURVE",
"185 280 OFFCURVE",
"153 132 CURVE SMOOTH",
"124 1 OFFCURVE",
"129 15 OFFCURVE",
"-24 17 CURVE",
"-31 18 OFFCURVE",
"-44 -2 OFFCURVE",
"-33 0 CURVE",
"33 -1 OFFCURVE",
"115 2 OFFCURVE",
"146 3 CURVE SMOOTH",
"212 6 OFFCURVE",
"321 4 OFFCURVE",
"388 0 CURVE SMOOTH",
"398 -1 OFFCURVE",
"410 17 OFFCURVE",
"397 16 CURVE SMOOTH",
"382 15 OFFCURVE",
"305 17 OFFCURVE",
"284 20 CURVE SMOOTH",
"272 23 OFFCURVE",
"252 35 OFFCURVE",
"253 61 CURVE SMOOTH",
"255 90 OFFCURVE",
"260 143 OFFCURVE",
"267 203 CURVE",
"287 226 OFFCURVE",
"309 251 OFFCURVE",
"331 276 CURVE",
"362 193 OFFCURVE",
"454 16 OFFCURVE",
"563 -50 CURVE SMOOTH",
"604 -75 OFFCURVE",
"652 -64 OFFCURVE",
"681 -44 CURVE SMOOTH",
"689 -38 OFFCURVE",
"695 -26 OFFCURVE",
"718 -36 CURVE SMOOTH",
"737 -45 OFFCURVE",
"741 -28 OFFCURVE",
"730 -24 CURVE SMOOTH",
"720 -20 OFFCURVE",
"690 -9 OFFCURVE",
"670 3 CURVE SMOOTH",
"620 32 OFFCURVE",
"388 231 OFFCURVE",
"345 291 CURVE",
"434 390 OFFCURVE",
"535 497 OFFCURVE",
"587 546 CURVE SMOOTH",
"624 582 OFFCURVE",
"658 602 OFFCURVE",
"683 611 CURVE SMOOTH",
"700 617 OFFCURVE",
"721 617 OFFCURVE",
"748 616 CURVE SMOOTH",
"756 615 OFFCURVE",
"769 635 OFFCURVE",
"758 633 CURVE"
);
}
);
};
layerId = "404CF7D8-B1FB-4D32-849A-66F5CDD10145";
paths = (
{
closed = 1;
nodes = (
"640 -64 OFFCURVE",
"664 -56 OFFCURVE",
"681 -44 CURVE SMOOTH",
"687 -40 OFFCURVE",
"692 -32 OFFCURVE",
"702 -32 CURVE SMOOTH",
"712 -32 OFFCURVE",
"722 -39 OFFCURVE",
"728 -39 CURVE SMOOTH",
"733 -39 OFFCURVE",
"736 -36 OFFCURVE",
"736 -32 CURVE SMOOTH",
"736 -29 OFFCURVE",
"735 -27 OFFCURVE",
"730 -24 CURVE SMOOTH",
"720 -20 OFFCURVE",
"690 -9 OFFCURVE",
"670 3 CURVE SMOOTH",
"620 32 OFFCURVE",
"388 231 OFFCURVE",
"345 291 CURVE",
"434 390 OFFCURVE",
"535 497 OFFCURVE",
"587 546 CURVE SMOOTH",
"624 582 OFFCURVE",
"658 602 OFFCURVE",
"683 611 CURVE SMOOTH",
"700 617 OFFCURVE",
"722 616 OFFCURVE",
"749 616 CURVE SMOOTH",
"754 616 OFFCURVE",
"762 625 OFFCURVE",
"762 630 CURVE SMOOTH",
"762 632 OFFCURVE",
"761 633 OFFCURVE",
"759 633 CURVE SMOOTH",
"706 633 LINE SMOOTH",
"683 633 OFFCURVE",
"646 629 OFFCURVE",
"605 629 CURVE SMOOTH",
"574 629 OFFCURVE",
"507 634 OFFCURVE",
"494 634 CURVE SMOOTH",
"482 634 OFFCURVE",
"477 628 OFFCURVE",
"477 623 CURVE SMOOTH",
"477 620 OFFCURVE",
"479 618 OFFCURVE",
"483 618 CURVE SMOOTH",
"487 618 LINE SMOOTH",
"496 618 OFFCURVE",
"527 616 OFFCURVE",
"527 589 CURVE SMOOTH",
"527 571 OFFCURVE",
"515 543 OFFCURVE",
"477 500 CURVE SMOOTH",
"410 423 OFFCURVE",
"341 342 OFFCURVE",
"275 267 CURVE",
"289 376 OFFCURVE",
"306 491 OFFCURVE",
"316 529 CURVE SMOOTH",
"338 607 OFFCURVE",
"353 620 OFFCURVE",
"394 620 CURVE SMOOTH",
"415 620 OFFCURVE",
"425 618 OFFCURVE",
"434 618 CURVE SMOOTH",
"440 618 OFFCURVE",
"445 625 OFFCURVE",
"445 630 CURVE SMOOTH",
"445 632 OFFCURVE",
"444 634 OFFCURVE",
"441 634 CURVE SMOOTH",
"436 634 OFFCURVE",
"320 630 OFFCURVE",
"274 630 CURVE SMOOTH",
"210 630 OFFCURVE",
"130 634 OFFCURVE",
"76 634 CURVE SMOOTH",
"69 634 OFFCURVE",
"61 626 OFFCURVE",
"61 621 CURVE SMOOTH",
"61 619 OFFCURVE",
"63 617 OFFCURVE",
"67 617 CURVE SMOOTH",
"82 618 OFFCURVE",
"159 616 OFFCURVE",
"180 613 CURVE SMOOTH",
"198 610 OFFCURVE",
"217 587 OFFCURVE",
"215 561 CURVE SMOOTH",
"201 412 OFFCURVE",
"185 280 OFFCURVE",
"153 132 CURVE SMOOTH",
"130 29 OFFCURVE",
"128 16 OFFCURVE",
"54 16 CURVE SMOOTH",
"9 16 OFFCURVE",
"-6 17 OFFCURVE",
"-25 17 CURVE SMOOTH",
"-30 17 OFFCURVE",
"-37 8 OFFCURVE",
"-37 3 CURVE SMOOTH",
"-37 1 OFFCURVE",
"-36 0 OFFCURVE",
"-34 0 CURVE SMOOTH",
"-33 0 LINE SMOOTH",
"33 0 OFFCURVE",
"115 2 OFFCURVE",
"146 3 CURVE SMOOTH",
"168 4 OFFCURVE",
"195 4 OFFCURVE",
"223 4 CURVE SMOOTH",
"280 4 OFFCURVE",
"343 3 OFFCURVE",
"388 0 CURVE SMOOTH",
"395 -1 OFFCURVE",
"403 8 OFFCURVE",
"403 12 CURVE SMOOTH",
"403 15 OFFCURVE",
"401 16 OFFCURVE",
"398 16 CURVE SMOOTH",
"372 16 OFFCURVE",
"306 17 OFFCURVE",
"284 20 CURVE SMOOTH",
"268 23 OFFCURVE",
"252 38 OFFCURVE",
"253 61 CURVE SMOOTH",
"255 90 OFFCURVE",
"260 143 OFFCURVE",
"267 203 CURVE",
"331 276 LINE",
"362 193 OFFCURVE",
"454 16 OFFCURVE",
"563 -50 CURVE SMOOTH",
"580 -60 OFFCURVE",
"598 -64 OFFCURVE",
"615 -64 CURVE SMOOTH"
);
}
);
width = 719;
}
);
leftKerningGroup = H;
note = K;
rightKerningGroup = K;
unicode = 004B;
},
{
glyphname = L;
lastChange = "2022-04-07 17:24:08 +0000";
layers = (
{
anchors = (
{
name = bottom;
position = "{303, 0}";
},
{
name = top;
position = "{283, 640}";
},
{
name = topright;
position = "{524, 640}";
}
);
background = {
paths = (
{
closed = 1;
nodes = (
"604 182 OFFCURVE",
"595 190 OFFCURVE",
"592 183 CURVE SMOOTH",
"553 94 OFFCURVE",
"477 32 OFFCURVE",
"375 32 CURVE SMOOTH",
"271 32 OFFCURVE",
"258 64 OFFCURVE",
"262 113 CURVE SMOOTH",
"273 268 OFFCURVE",
"282 353 OFFCURVE",
"308 506 CURVE SMOOTH",
"331 637 OFFCURVE",
"354 628 OFFCURVE",
"505 624 CURVE",
"518 621 OFFCURVE",
"516 643 OFFCURVE",
"505 641 CURVE",
"435 639 OFFCURVE",
"337 634 OFFCURVE",
"306 634 CURVE SMOOTH",
"240 634 OFFCURVE",
"138 636 OFFCURVE",
"72 639 CURVE SMOOTH",
"61 640 OFFCURVE",
"51 622 OFFCURVE",
"64 622 CURVE SMOOTH",
"79 623 OFFCURVE",
"154 624 OFFCURVE",
"176 618 CURVE SMOOTH",
"189 615 OFFCURVE",
"209 604 OFFCURVE",
"209 578 CURVE SMOOTH",
"209 438 OFFCURVE",
"168 184 OFFCURVE",
"153 117 CURVE SMOOTH",
"134 31 OFFCURVE",
"99 16 OFFCURVE",
"50 16 CURVE SMOOTH",
"32 16 OFFCURVE",
"13 15 OFFCURVE",
"-17 17 CURVE",
"-30 20 OFFCURVE",
"-27 -2 OFFCURVE",
"-17 0 CURVE",
"51 0 OFFCURVE",
"121 0 OFFCURVE",
"147 0 CURVE SMOOTH",
"211 0 OFFCURVE",
"283 10 OFFCURVE",
"328 5 CURVE SMOOTH",
"440 -8 OFFCURVE",
"501 -13 OFFCURVE",
"521 0 CURVE SMOOTH",
"568 31 OFFCURVE",
"590 145 OFFCURVE",
"601 175 CURVE SMOOTH"
);
}
);
};
layerId = "404CF7D8-B1FB-4D32-849A-66F5CDD10145";
paths = (
{
closed = 1;
nodes = (
"498 -8 OFFCURVE",
"513 -5 OFFCURVE",
"521 0 CURVE SMOOTH",
"568 31 OFFCURVE",
"590 145 OFFCURVE",
"601 175 CURVE SMOOTH",
"603 180 OFFCURVE",
"599 186 OFFCURVE",
"595 186 CURVE SMOOTH",
"594 186 OFFCURVE",
"593 185 OFFCURVE",
"592 183 CURVE SMOOTH",
"553 94 OFFCURVE",
"477 32 OFFCURVE",
"375 32 CURVE SMOOTH",
"271 32 OFFCURVE",
"258 64 OFFCURVE",
"262 113 CURVE SMOOTH",
"273 268 OFFCURVE",
"282 353 OFFCURVE",
"308 506 CURVE SMOOTH",
"326 610 OFFCURVE",
"345 626 OFFCURVE",
"427 626 CURVE SMOOTH",
"449 626 OFFCURVE",
"474 625 OFFCURVE",
"505 624 CURVE",
"511 623 OFFCURVE",
"514 627 OFFCURVE",
"514 631 CURVE SMOOTH",
"514 636 OFFCURVE",
"511 641 OFFCURVE",
"506 641 CURVE SMOOTH",
"505 641 LINE SMOOTH",
"435 641 OFFCURVE",
"337 634 OFFCURVE",
"306 634 CURVE SMOOTH",
"240 634 OFFCURVE",
"138 636 OFFCURVE",
"72 639 CURVE SMOOTH",
"65 640 OFFCURVE",
"58 632 OFFCURVE",
"58 627 CURVE SMOOTH",
"58 624 OFFCURVE",
"60 622 OFFCURVE",
"64 622 CURVE SMOOTH",
"70 622 OFFCURVE",
"84 623 OFFCURVE",
"101 623 CURVE SMOOTH",
"128 623 OFFCURVE",
"162 622 OFFCURVE",
"176 618 CURVE SMOOTH",
"189 615 OFFCURVE",
"209 604 OFFCURVE",
"209 578 CURVE SMOOTH",
"209 438 OFFCURVE",
"168 184 OFFCURVE",
"153 117 CURVE SMOOTH",
"134 31 OFFCURVE",
"99 16 OFFCURVE",
"50 16 CURVE SMOOTH",
"32 16 OFFCURVE",
"13 15 OFFCURVE",
"-17 17 CURVE SMOOTH",
"-23 18 OFFCURVE",
"-25 14 OFFCURVE",
"-25 10 CURVE SMOOTH",
"-25 5 OFFCURVE",
"-23 0 OFFCURVE",
"-18 0 CURVE",
"-18 0 OFFCURVE",
"-17 0 OFFCURVE",
"-17 0 CURVE",
"147 0 LINE SMOOTH",
"198 0 OFFCURVE",
"255 6 OFFCURVE",
"298 6 CURVE SMOOTH",
"309 6 OFFCURVE",
"319 6 OFFCURVE",
"328 5 CURVE SMOOTH",
"394 -3 OFFCURVE",
"443 -8 OFFCURVE",
"476 -8 CURVE SMOOTH"
);
}
);
width = 596;
}
);
leftKerningGroup = H;
note = L;
rightKerningGroup = L;
unicode = 004C;
},
{
color = 3;
glyphname = Ldot;
lastChange = "2022-03-24 09:57:39 +0000";
layers = (
{
background = {
components = (
{
name = L;
},
{
name = periodcentered;
}
);
};
layerId = "404CF7D8-B1FB-4D32-849A-66F5CDD10145";
paths = (
{
closed = 1;
nodes = (
"498 -8 OFFCURVE",
"513 -5 OFFCURVE",
"521 0 CURVE SMOOTH",
"568 31 OFFCURVE",
"590 145 OFFCURVE",
"601 175 CURVE SMOOTH",
"603 180 OFFCURVE",
"599 186 OFFCURVE",
"595 186 CURVE SMOOTH",
"594 186 OFFCURVE",
"593 185 OFFCURVE",
"592 183 CURVE SMOOTH",
"553 94 OFFCURVE",
"477 32 OFFCURVE",
"375 32 CURVE SMOOTH",
"271 32 OFFCURVE",
"258 64 OFFCURVE",
"262 113 CURVE SMOOTH",
"273 268 OFFCURVE",
"282 353 OFFCURVE",
"308 506 CURVE SMOOTH",
"326 610 OFFCURVE",
"345 626 OFFCURVE",
"427 626 CURVE SMOOTH",
"449 626 OFFCURVE",
"474 625 OFFCURVE",
"505 624 CURVE",
"511 623 OFFCURVE",
"514 627 OFFCURVE",
"514 631 CURVE SMOOTH",
"514 636 OFFCURVE",
"511 641 OFFCURVE",
"506 641 CURVE SMOOTH",
"505 641 LINE SMOOTH",
"435 641 OFFCURVE",
"337 634 OFFCURVE",
"306 634 CURVE SMOOTH",
"240 634 OFFCURVE",
"138 636 OFFCURVE",
"72 639 CURVE SMOOTH",
"65 640 OFFCURVE",
"58 632 OFFCURVE",
"58 627 CURVE SMOOTH",
"58 624 OFFCURVE",
"60 622 OFFCURVE",
"64 622 CURVE SMOOTH",
"70 622 OFFCURVE",
"84 623 OFFCURVE",
"101 623 CURVE SMOOTH",
"128 623 OFFCURVE",
"162 622 OFFCURVE",
"176 618 CURVE SMOOTH",
"189 615 OFFCURVE",
"209 604 OFFCURVE",
"209 578 CURVE SMOOTH",
"209 438 OFFCURVE",
"168 184 OFFCURVE",
"153 117 CURVE SMOOTH",
"134 31 OFFCURVE",
"99 16 OFFCURVE",
"50 16 CURVE SMOOTH",
"32 16 OFFCURVE",
"13 15 OFFCURVE",
"-17 17 CURVE SMOOTH",
"-23 18 OFFCURVE",
"-25 14 OFFCURVE",
"-25 10 CURVE SMOOTH",
"-25 5 OFFCURVE",
"-23 0 OFFCURVE",
"-18 0 CURVE",
"-18 0 OFFCURVE",
"-17 0 OFFCURVE",
"-17 0 CURVE",
"147 0 LINE SMOOTH",
"198 0 OFFCURVE",
"255 6 OFFCURVE",
"298 6 CURVE SMOOTH",
"309 6 OFFCURVE",
"319 6 OFFCURVE",
"328 5 CURVE SMOOTH",
"394 -3 OFFCURVE",
"443 -8 OFFCURVE",
"476 -8 CURVE SMOOTH"
);
},
{
closed = 1;
nodes = (
"547 302 OFFCURVE",
"554 303 OFFCURVE",
"560 306 CURVE SMOOTH",
"574 313 OFFCURVE",
"610 368 OFFCURVE",
"610 380 CURVE SMOOTH",
"610 383 OFFCURVE",
"609 384 OFFCURVE",
"606 381 CURVE SMOOTH",
"602 377 OFFCURVE",
"594 375 OFFCURVE",
"582 375 CURVE SMOOTH",
"569 375 OFFCURVE",
"555 379 OFFCURVE",
"539 379 CURVE SMOOTH",
"513 379 OFFCURVE",
"494 353 OFFCURVE",
"478 320 CURVE SMOOTH",
"472 308 OFFCURVE",
"479 303 OFFCURVE",
"495 303 CURVE SMOOTH",
"504 303 LINE SMOOTH",
"516 304 OFFCURVE",
"528 302 OFFCURVE",
"540 302 CURVE SMOOTH"
);
}
);
width = 602;
}
);
leftKerningGroup = H;
rightKerningGroup = L;
unicode = 013F;
},
{
color = 3;
glyphname = Lslash;
lastChange = "2022-03-23 16:37:22 +0000";
layers = (
{
background = {
components = (
{
name = L;
transform = "{1, 0, 0, 1, 2, 0}";
},
{
name = hyphen;
transform = "{1.19538, 0.36546, -0.24852, 0.81286, 136, -17}";
}
);
};
layerId = "404CF7D8-B1FB-4D32-849A-66F5CDD10145";
paths = (
{
closed = 1;
nodes = (
"498 -8 OFFCURVE",
"513 -5 OFFCURVE",
"521 0 CURVE SMOOTH",
"568 31 OFFCURVE",
"590 145 OFFCURVE",
"601 175 CURVE SMOOTH",
"603 180 OFFCURVE",
"599 186 OFFCURVE",
"595 186 CURVE SMOOTH",
"594 186 OFFCURVE",
"593 185 OFFCURVE",
"592 183 CURVE SMOOTH",
"553 94 OFFCURVE",
"477 32 OFFCURVE",
"375 32 CURVE SMOOTH",
"271 32 OFFCURVE",
"258 64 OFFCURVE",
"262 113 CURVE SMOOTH",
"273 268 OFFCURVE",
"282 353 OFFCURVE",
"308 506 CURVE SMOOTH",
"326 610 OFFCURVE",
"345 626 OFFCURVE",
"427 626 CURVE SMOOTH",
"449 626 OFFCURVE",
"474 625 OFFCURVE",
"505 624 CURVE",
"511 623 OFFCURVE",
"514 627 OFFCURVE",
"514 631 CURVE SMOOTH",
"514 636 OFFCURVE",
"511 641 OFFCURVE",
"506 641 CURVE SMOOTH",
"505 641 LINE SMOOTH",
"435 641 OFFCURVE",
"337 634 OFFCURVE",
"306 634 CURVE SMOOTH",
"240 634 OFFCURVE",
"138 636 OFFCURVE",
"72 639 CURVE SMOOTH",
"65 640 OFFCURVE",
"58 632 OFFCURVE",
"58 627 CURVE SMOOTH",
"58 624 OFFCURVE",
"60 622 OFFCURVE",
"64 622 CURVE SMOOTH",
"70 622 OFFCURVE",
"84 623 OFFCURVE",
"101 623 CURVE SMOOTH",
"128 623 OFFCURVE",
"162 622 OFFCURVE",
"176 618 CURVE SMOOTH",
"189 615 OFFCURVE",
"209 604 OFFCURVE",
"209 578 CURVE SMOOTH",
"209 438 OFFCURVE",
"168 184 OFFCURVE",
"153 117 CURVE SMOOTH",
"134 31 OFFCURVE",
"99 16 OFFCURVE",
"50 16 CURVE SMOOTH",
"32 16 OFFCURVE",
"13 15 OFFCURVE",
"-17 17 CURVE SMOOTH",
"-23 18 OFFCURVE",
"-25 14 OFFCURVE",
"-25 10 CURVE SMOOTH",
"-25 5 OFFCURVE",
"-23 0 OFFCURVE",
"-18 0 CURVE",
"-18 0 OFFCURVE",
"-17 0 OFFCURVE",
"-17 0 CURVE",
"147 0 LINE SMOOTH",
"198 0 OFFCURVE",
"255 6 OFFCURVE",
"298 6 CURVE SMOOTH",
"309 6 OFFCURVE",
"319 6 OFFCURVE",
"328 5 CURVE SMOOTH",
"394 -3 OFFCURVE",
"443 -8 OFFCURVE",
"476 -8 CURVE SMOOTH"
);
},
{
closed = 1;
nodes = (
"363 336 LINE SMOOTH",
"376 340 OFFCURVE",
"402 389 OFFCURVE",
"384 384 CURVE",
"384 384 LINE",
"106 299 LINE SMOOTH",
"96 296 OFFCURVE",
"75 248 OFFCURVE",
"85 252 CURVE SMOOTH"
);
}
);
width = 596;
}
);
leftKerningGroup = H;
leftMetricsKey = L;
widthMetricsKey = L;
rightKerningGroup = L;
unicode = 0141;
},
{
glyphname = M;
lastChange = "2022-03-23 16:38:53 +0000";
layers = (
{
background = {
paths = (
{
closed = 1;
nodes = (
"1021 616 OFFCURVE",
"1019 638 OFFCURVE",
"1008 636 CURVE",
"922 631 OFFCURVE",
"894 629 OFFCURVE",
"867 630 CURVE SMOOTH",
"855 630 OFFCURVE",
"776 635 OFFCURVE",
"767 632 CURVE SMOOTH",
"744 624 OFFCURVE",
"734 587 OFFCURVE",
"693 508 CURVE SMOOTH",
"630 387 OFFCURVE",
"555 242 OFFCURVE",
"495 137 CURVE SMOOTH",
"488 126 OFFCURVE",
"481 125 OFFCURVE",
"477 136 CURVE SMOOTH",
"431 262 OFFCURVE",
"367 525 OFFCURVE",
"358 601 CURVE SMOOTH",
"352 647 OFFCURVE",
"357 634 OFFCURVE",
"253 630 CURVE SMOOTH",
"197 628 OFFCURVE",
"141 631 OFFCURVE",
"85 634 CURVE SMOOTH",
"74 635 OFFCURVE",
"63 618 OFFCURVE",
"76 618 CURVE SMOOTH",
"91 619 OFFCURVE",
"168 621 OFFCURVE",
"189 618 CURVE SMOOTH",
"201 615 OFFCURVE",
"222 603 OFFCURVE",
"219 577 CURVE SMOOTH",
"203 421 OFFCURVE",
"189 285 OFFCURVE",
"155 132 CURVE SMOOTH",
"126 1 OFFCURVE",
"95 16 OFFCURVE",
"-32 17 CURVE",
"-44 20 OFFCURVE",
"-38 0 OFFCURVE",
"-27 2 CURVE",
"42 -2 OFFCURVE",
"117 4 OFFCURVE",
"148 5 CURVE SMOOTH",
"214 8 OFFCURVE",
"279 0 OFFCURVE",
"300 0 CURVE SMOOTH",
"311 0 OFFCURVE",
"322 17 OFFCURVE",
"309 16 CURVE SMOOTH",
"294 15 OFFCURVE",
"268 16 OFFCURVE",
"248 20 CURVE SMOOTH",
"235 22 OFFCURVE",
"216 35 OFFCURVE",
"217 61 CURVE SMOOTH",
"221 139 OFFCURVE",
"253 388 OFFCURVE",
"273 494 CURVE",
"321 341 OFFCURVE",
"373 126 OFFCURVE",
"390 45 CURVE SMOOTH",
"396 16 OFFCURVE",
"390 -5 OFFCURVE",
"409 -4 CURVE SMOOTH",
"424 -4 OFFCURVE",
"450 16 OFFCURVE",
"472 31 CURVE SMOOTH",
"489 43 OFFCURVE",
"504 50 OFFCURVE",
"509 54 CURVE",
"523 62 OFFCURVE",
"526 65 OFFCURVE",
"522 76 CURVE SMOOTH",
"520 82 OFFCURVE",
"522 94 OFFCURVE",
"527 106 CURVE SMOOTH",
"553 164 OFFCURVE",
"679 379 OFFCURVE",
"753 492 CURVE",
"742 371 OFFCURVE",
"726 255 OFFCURVE",
"703 132 CURVE SMOOTH",
"679 1 OFFCURVE",
"654 11 OFFCURVE",
"566 14 CURVE",
"553 18 OFFCURVE",
"555 -4 OFFCURVE",
"567 -3 CURVE SMOOTH",
"643 0 OFFCURVE",
"669 -1 OFFCURVE",
"702 0 CURVE SMOOTH",
"773 3 OFFCURVE",
"877 0 OFFCURVE",
"942 0 CURVE SMOOTH",
"953 0 OFFCURVE",
"964 17 OFFCURVE",
"951 16 CURVE SMOOTH",
"936 15 OFFCURVE",
"861 16 OFFCURVE",
"840 20 CURVE SMOOTH",
"827 22 OFFCURVE",
"806 31 OFFCURVE",
"806 57 CURVE SMOOTH",
"806 146 OFFCURVE",
"848 462 OFFCURVE",
"864 529 CURVE SMOOTH",
"880 598 OFFCURVE",
"888 623 OFFCURVE",
"937 622 CURVE SMOOTH",
"955 622 OFFCURVE",
"978 620 OFFCURVE",
"1009 619 CURVE"
);
}
);
};
layerId = "404CF7D8-B1FB-4D32-849A-66F5CDD10145";
paths = (
{
closed = 1;
nodes = (
"423 -4 OFFCURVE",
"449 16 OFFCURVE",
"472 31 CURVE SMOOTH",
"489 43 OFFCURVE",
"504 50 OFFCURVE",
"509 54 CURVE SMOOTH",
"519 60 OFFCURVE",
"524 63 OFFCURVE",
"524 69 CURVE SMOOTH",
"524 71 OFFCURVE",
"523 73 OFFCURVE",
"522 76 CURVE SMOOTH",
"520 82 OFFCURVE",
"522 94 OFFCURVE",
"527 106 CURVE SMOOTH",
"553 164 OFFCURVE",
"679 379 OFFCURVE",
"753 492 CURVE",
"742 371 OFFCURVE",
"726 255 OFFCURVE",
"703 132 CURVE SMOOTH",
"684 27 OFFCURVE",
"664 13 OFFCURVE",
"611 13 CURVE SMOOTH",
"598 13 OFFCURVE",
"583 13 OFFCURVE",
"566 14 CURVE",
"560 16 OFFCURVE",
"557 12 OFFCURVE",
"557 7 CURVE SMOOTH",
"557 2 OFFCURVE",
"560 -3 OFFCURVE",
"566 -3 CURVE SMOOTH",
"567 -3 LINE SMOOTH",
"643 0 OFFCURVE",
"669 -1 OFFCURVE",
"702 0 CURVE SMOOTH",
"726 1 OFFCURVE",
"753 1 OFFCURVE",
"781 1 CURVE SMOOTH",
"838 1 OFFCURVE",
"899 0 OFFCURVE",
"942 0 CURVE SMOOTH",
"950 0 OFFCURVE",
"957 8 OFFCURVE",
"957 12 CURVE SMOOTH",
"957 14 OFFCURVE",
"955 16 OFFCURVE",
"952 16 CURVE SMOOTH",
"951 16 LINE SMOOTH",
"936 15 OFFCURVE",
"861 16 OFFCURVE",
"840 20 CURVE SMOOTH",
"827 22 OFFCURVE",
"806 31 OFFCURVE",
"806 57 CURVE SMOOTH",
"806 146 OFFCURVE",
"848 462 OFFCURVE",
"864 529 CURVE SMOOTH",
"880 597 OFFCURVE",
"888 622 OFFCURVE",
"934 622 CURVE SMOOTH",
"953 622 OFFCURVE",
"976 620 OFFCURVE",
"1009 619 CURVE",
"1014 618 OFFCURVE",
"1017 622 OFFCURVE",
"1017 626 CURVE SMOOTH",
"1017 631 OFFCURVE",
"1014 636 OFFCURVE",
"1009 636 CURVE SMOOTH",
"1008 636 LINE SMOOTH",
"922 631 OFFCURVE",
"894 629 OFFCURVE",
"867 630 CURVE SMOOTH",
"858 630 OFFCURVE",
"809 633 OFFCURVE",
"783 633 CURVE SMOOTH",
"775 633 OFFCURVE",
"769 633 OFFCURVE",
"767 632 CURVE SMOOTH",
"744 624 OFFCURVE",
"734 587 OFFCURVE",
"693 508 CURVE SMOOTH",
"630 387 OFFCURVE",
"555 242 OFFCURVE",
"495 137 CURVE SMOOTH",
"491 131 OFFCURVE",
"488 128 OFFCURVE",
"484 128 CURVE SMOOTH",
"482 128 OFFCURVE",
"479 131 OFFCURVE",
"477 136 CURVE SMOOTH",
"431 262 OFFCURVE",
"367 525 OFFCURVE",
"358 601 CURVE SMOOTH",
"354 628 OFFCURVE",
"355 635 OFFCURVE",
"334 635 CURVE SMOOTH",
"320 635 OFFCURVE",
"295 632 OFFCURVE",
"253 630 CURVE SMOOTH",
"240 630 OFFCURVE",
"228 629 OFFCURVE",
"215 629 CURVE SMOOTH",
"172 629 OFFCURVE",
"128 632 OFFCURVE",
"85 634 CURVE SMOOTH",
"78 635 OFFCURVE",
"70 627 OFFCURVE",
"70 622 CURVE SMOOTH",
"70 620 OFFCURVE",
"72 618 OFFCURVE",
"76 618 CURVE SMOOTH",
"85 619 OFFCURVE",
"117 620 OFFCURVE",
"146 620 CURVE SMOOTH",
"164 620 OFFCURVE",
"181 619 OFFCURVE",
"189 618 CURVE SMOOTH",
"201 615 OFFCURVE",
"222 603 OFFCURVE",
"219 577 CURVE SMOOTH",
"203 421 OFFCURVE",
"189 285 OFFCURVE",
"155 132 CURVE SMOOTH",
"132 28 OFFCURVE",
"108 16 OFFCURVE",
"35 16 CURVE SMOOTH",
"16 16 OFFCURVE",
"-6 17 OFFCURVE",
"-32 17 CURVE",
"-43 20 OFFCURVE",
"-39 2 OFFCURVE",
"-29 2 CURVE SMOOTH",
"-27 2 LINE SMOOTH",
"-10 1 OFFCURVE",
"7 1 OFFCURVE",
"24 1 CURVE SMOOTH",
"76 1 OFFCURVE",
"125 4 OFFCURVE",
"148 5 CURVE SMOOTH",
"158 5 OFFCURVE",
"169 6 OFFCURVE",
"179 6 CURVE SMOOTH",
"233 6 OFFCURVE",
"282 0 OFFCURVE",
"300 0 CURVE SMOOTH",
"308 0 OFFCURVE",
"315 8 OFFCURVE",
"315 12 CURVE SMOOTH",
"315 14 OFFCURVE",
"313 16 OFFCURVE",
"310 16 CURVE SMOOTH",
"309 16 LINE SMOOTH",
"294 15 OFFCURVE",
"268 16 OFFCURVE",
"248 20 CURVE SMOOTH",
"235 22 OFFCURVE",
"216 35 OFFCURVE",
"217 61 CURVE SMOOTH",
"221 139 OFFCURVE",
"253 388 OFFCURVE",
"273 494 CURVE",
"321 341 OFFCURVE",
"373 126 OFFCURVE",
"390 45 CURVE SMOOTH",
"396 17 OFFCURVE",
"390 -4 OFFCURVE",
"408 -4 CURVE SMOOTH"
);
}
);
width = 955;
}
);
leftKerningGroup = H;
note = M;
rightKerningGroup = H;
unicode = 004D;
},
{
color = 3;
glyphname = N;
lastChange = "2022-03-24 15:32:31 +0000";
layers = (
{
anchors = (
{
name = bottom;
position = "{370, 0}";
},
{
name = top;
position = "{507, 640}";
}
);
background = {
paths = (
{
closed = 1;
nodes = (
"830 634 OFFCURVE",
"749 633 OFFCURVE",
"718 632 CURVE SMOOTH",
"651 629 OFFCURVE",
"568 635 OFFCURVE",
"547 635 CURVE SMOOTH",
"537 635 OFFCURVE",
"525 618 OFFCURVE",
"538 619 CURVE SMOOTH",
"569 620 OFFCURVE",
"653 615 OFFCURVE",
"651 568 CURVE SMOOTH",
"648 495 OFFCURVE",
"618 259 OFFCURVE",
"604 181 CURVE",
"562 237 OFFCURVE",
"378 531 OFFCURVE",
"343 606 CURVE SMOOTH",
"329 636 OFFCURVE",
"326 636 OFFCURVE",
"305 634 CURVE SMOOTH",
"287 633 OFFCURVE",
"267 630 OFFCURVE",
"237 630 CURVE SMOOTH",
"181 631 OFFCURVE",
"120 634 OFFCURVE",
"76 634 CURVE SMOOTH",
"66 634 OFFCURVE",
"54 617 OFFCURVE",
"67 617 CURVE SMOOTH",
"82 618 OFFCURVE",
"159 616 OFFCURVE",
"180 613 CURVE SMOOTH",
"199 610 OFFCURVE",
"218 587 OFFCURVE",
"215 561 CURVE SMOOTH",
"201 412 OFFCURVE",
"185 280 OFFCURVE",
"153 132 CURVE SMOOTH",
"125 5 OFFCURVE",
"93 16 OFFCURVE",
"-34 17 CURVE",
"-46 20 OFFCURVE",
"-40 0 OFFCURVE",
"-29 2 CURVE",
"40 -2 OFFCURVE",
"115 4 OFFCURVE",
"146 5 CURVE SMOOTH",
"212 8 OFFCURVE",
"337 0 OFFCURVE",
"358 0 CURVE SMOOTH",
"369 0 OFFCURVE",
"381 16 OFFCURVE",
"367 16 CURVE SMOOTH",
"325 16 OFFCURVE",
"288 17 OFFCURVE",
"265 19 CURVE SMOOTH",
"253 20 OFFCURVE",
"214 35 OFFCURVE",
"215 61 CURVE SMOOTH",
"219 139 OFFCURVE",
"261 441 OFFCURVE",
"270 494 CURVE",
"320 413 OFFCURVE",
"499 142 OFFCURVE",
"586 -21 CURVE SMOOTH",
"593 -35 OFFCURVE",
"632 19 OFFCURVE",
"650 34 CURVE SMOOTH",
"668 50 OFFCURVE",
"678 83 OFFCURVE",
"659 113 CURVE",
"665 176 OFFCURVE",
"695 415 OFFCURVE",
"711 501 CURVE SMOOTH",
"731 605 OFFCURVE",
"734 618 OFFCURVE",
"887 616 CURVE",
"895 615 OFFCURVE",
"908 635 OFFCURVE",
"897 634 CURVE"
);
}
);
};
layerId = "404CF7D8-B1FB-4D32-849A-66F5CDD10145";
paths = (
{
closed = 1;
nodes = (
"593 -35 OFFCURVE",
"632 19 OFFCURVE",
"650 34 CURVE SMOOTH",
"661 44 OFFCURVE",
"669 60 OFFCURVE",
"669 79 CURVE SMOOTH",
"669 90 OFFCURVE",
"666 102 OFFCURVE",
"659 113 CURVE",
"665 176 OFFCURVE",
"695 415 OFFCURVE",
"711 501 CURVE SMOOTH",
"731 605 OFFCURVE",
"734 618 OFFCURVE",
"887 616 CURVE",
"893 615 OFFCURVE",
"901 626 OFFCURVE",
"901 631 CURVE SMOOTH",
"901 633 OFFCURVE",
"900 634 OFFCURVE",
"897 634 CURVE SMOOTH",
"830 634 OFFCURVE",
"749 633 OFFCURVE",
"718 632 CURVE SMOOTH",
"705 631 OFFCURVE",
"691 631 OFFCURVE",
"677 631 CURVE SMOOTH",
"620 631 OFFCURVE",
"564 635 OFFCURVE",
"547 635 CURVE SMOOTH",
"540 635 OFFCURVE",
"532 627 OFFCURVE",
"532 622 CURVE SMOOTH",
"532 620 OFFCURVE",
"534 619 OFFCURVE",
"537 619 CURVE SMOOTH",
"538 619 LINE SMOOTH",
"569 619 OFFCURVE",
"653 615 OFFCURVE",
"651 568 CURVE SMOOTH",
"648 495 OFFCURVE",
"618 259 OFFCURVE",
"604 181 CURVE",
"562 237 OFFCURVE",
"378 531 OFFCURVE",
"343 606 CURVE SMOOTH",
"332 630 OFFCURVE",
"328 635 OFFCURVE",
"316 635 CURVE SMOOTH",
"295 635 OFFCURVE",
"273 630 OFFCURVE",
"237 630 CURVE SMOOTH",
"181 631 OFFCURVE",
"120 634 OFFCURVE",
"76 634 CURVE SMOOTH",
"69 634 OFFCURVE",
"61 626 OFFCURVE",
"61 621 CURVE SMOOTH",
"61 619 OFFCURVE",
"63 617 OFFCURVE",
"67 617 CURVE SMOOTH",
"82 618 OFFCURVE",
"159 616 OFFCURVE",
"180 613 CURVE SMOOTH",
"199 610 OFFCURVE",
"218 587 OFFCURVE",
"215 561 CURVE SMOOTH",
"201 412 OFFCURVE",
"185 280 OFFCURVE",
"153 132 CURVE SMOOTH",
"130 27 OFFCURVE",
"104 16 OFFCURVE",
"24 16 CURVE SMOOTH",
"7 16 OFFCURVE",
"-12 17 OFFCURVE",
"-34 17 CURVE",
"-45 20 OFFCURVE",
"-41 2 OFFCURVE",
"-31 2 CURVE SMOOTH",
"-29 2 LINE SMOOTH",
"-12 2 OFFCURVE",
"5 1 OFFCURVE",
"22 1 CURVE SMOOTH",
"74 1 OFFCURVE",
"123 4 OFFCURVE",
"146 5 CURVE SMOOTH",
"156 5 OFFCURVE",
"168 6 OFFCURVE",
"181 6 CURVE SMOOTH",
"249 6 OFFCURVE",
"340 0 OFFCURVE",
"358 0 CURVE SMOOTH",
"365 0 OFFCURVE",
"373 7 OFFCURVE",
"373 12 CURVE SMOOTH",
"373 14 OFFCURVE",
"372 16 OFFCURVE",
"367 16 CURVE SMOOTH",
"325 16 OFFCURVE",
"288 17 OFFCURVE",
"265 19 CURVE SMOOTH",
"253 20 OFFCURVE",
"214 35 OFFCURVE",
"215 61 CURVE SMOOTH",
"219 139 OFFCURVE",
"261 441 OFFCURVE",
"270 494 CURVE",
"320 413 OFFCURVE",
"499 142 OFFCURVE",
"586 -21 CURVE SMOOTH"
);
}
);
width = 806;
}
);
leftKerningGroup = H;
note = N;
rightKerningGroup = N;
unicode = 004E;
},
{
glyphname = Eng;
lastChange = "2022-03-23 16:40:03 +0000";
layers = (
{
background = {
paths = (
{
closed = 1;
nodes = (
"830 634 OFFCURVE",
"749 633 OFFCURVE",
"718 632 CURVE SMOOTH",
"651 629 OFFCURVE",
"568 635 OFFCURVE",
"547 635 CURVE SMOOTH",
"537 635 OFFCURVE",
"525 618 OFFCURVE",
"538 619 CURVE SMOOTH",
"569 620 OFFCURVE",
"653 615 OFFCURVE",
"651 568 CURVE SMOOTH",
"648 495 OFFCURVE",
"618 259 OFFCURVE",
"604 181 CURVE",
"562 237 OFFCURVE",
"378 531 OFFCURVE",
"343 606 CURVE SMOOTH",
"329 636 OFFCURVE",
"326 636 OFFCURVE",
"305 634 CURVE SMOOTH",
"287 633 OFFCURVE",
"267 630 OFFCURVE",
"237 630 CURVE SMOOTH",
"181 631 OFFCURVE",
"120 634 OFFCURVE",
"76 634 CURVE SMOOTH",
"66 634 OFFCURVE",
"54 617 OFFCURVE",
"67 617 CURVE SMOOTH",
"82 618 OFFCURVE",
"159 616 OFFCURVE",
"180 613 CURVE SMOOTH",
"199 610 OFFCURVE",
"218 587 OFFCURVE",
"215 561 CURVE SMOOTH",
"201 412 OFFCURVE",
"185 280 OFFCURVE",
"153 132 CURVE SMOOTH",
"125 5 OFFCURVE",
"93 16 OFFCURVE",
"-34 17 CURVE",
"-46 20 OFFCURVE",
"-40 0 OFFCURVE",
"-29 2 CURVE",
"40 -2 OFFCURVE",
"115 4 OFFCURVE",
"146 5 CURVE SMOOTH",
"212 8 OFFCURVE",
"337 0 OFFCURVE",
"358 0 CURVE SMOOTH",
"369 0 OFFCURVE",
"381 16 OFFCURVE",
"367 16 CURVE SMOOTH",
"325 16 OFFCURVE",
"288 17 OFFCURVE",
"265 19 CURVE SMOOTH",
"253 20 OFFCURVE",
"214 35 OFFCURVE",
"215 61 CURVE SMOOTH",
"219 139 OFFCURVE",
"261 441 OFFCURVE",
"270 494 CURVE",
"320 413 OFFCURVE",
"499 142 OFFCURVE",
"586 -21 CURVE",
"659 113 LINE",
"665 176 OFFCURVE",
"695 415 OFFCURVE",
"711 501 CURVE SMOOTH",
"731 605 OFFCURVE",
"734 618 OFFCURVE",
"887 616 CURVE",
"895 615 OFFCURVE",
"908 635 OFFCURVE",
"897 634 CURVE"
);
},
{
closed = 1;
nodes = (
"589 106 OFFCURVE",
"582 64 OFFCURVE",
"575 23 CURVE SMOOTH",
"564 -40 OFFCURVE",
"541 -98 OFFCURVE",
"521 -124 CURVE SMOOTH",
"485 -169 OFFCURVE",
"438 -201 OFFCURVE",
"394 -149 CURVE SMOOTH",
"384 -137 OFFCURVE",
"377 -120 OFFCURVE",
"377 -101 CURVE SMOOTH",
"377 -90 OFFCURVE",
"383 -78 OFFCURVE",
"377 -76 CURVE SMOOTH",
"368 -73 OFFCURVE",
"360 -97 OFFCURVE",
"355 -106 CURVE SMOOTH",
"344 -128 OFFCURVE",
"337 -135 OFFCURVE",
"321 -158 CURVE SMOOTH",
"308 -175 OFFCURVE",
"336 -197 OFFCURVE",
"347 -205 CURVE SMOOTH",
"359 -214 OFFCURVE",
"381 -218 OFFCURVE",
"406 -218 CURVE SMOOTH",
"461 -218 OFFCURVE",
"503 -199 OFFCURVE",
"539 -175 CURVE SMOOTH",
"600 -134 OFFCURVE",
"630 -77 OFFCURVE",
"637 -18 CURVE SMOOTH",
"640 10 OFFCURVE",
"656 85 OFFCURVE",
"659 113 CURVE",
"596 148 LINE"
);
}
);
};
layerId = "404CF7D8-B1FB-4D32-849A-66F5CDD10145";
paths = (
{
closed = 1;
nodes = (
"659 113 LINE",
"665 176 OFFCURVE",
"695 415 OFFCURVE",
"711 501 CURVE SMOOTH",
"731 605 OFFCURVE",
"734 618 OFFCURVE",
"887 616 CURVE",
"893 615 OFFCURVE",
"901 626 OFFCURVE",
"901 631 CURVE SMOOTH",
"901 633 OFFCURVE",
"900 634 OFFCURVE",
"897 634 CURVE SMOOTH",
"830 634 OFFCURVE",
"749 633 OFFCURVE",
"718 632 CURVE SMOOTH",
"705 631 OFFCURVE",
"691 631 OFFCURVE",
"677 631 CURVE SMOOTH",
"620 631 OFFCURVE",
"564 635 OFFCURVE",
"547 635 CURVE SMOOTH",
"540 635 OFFCURVE",
"532 627 OFFCURVE",
"532 622 CURVE SMOOTH",
"532 620 OFFCURVE",
"534 619 OFFCURVE",
"537 619 CURVE SMOOTH",
"538 619 LINE SMOOTH",
"569 620 OFFCURVE",
"653 615 OFFCURVE",
"651 568 CURVE SMOOTH",
"648 495 OFFCURVE",
"618 259 OFFCURVE",
"604 181 CURVE",
"562 237 OFFCURVE",
"378 531 OFFCURVE",
"343 606 CURVE SMOOTH",
"332 630 OFFCURVE",
"328 635 OFFCURVE",
"316 635 CURVE SMOOTH",
"295 635 OFFCURVE",
"273 630 OFFCURVE",
"237 630 CURVE SMOOTH",
"181 631 OFFCURVE",
"120 634 OFFCURVE",
"76 634 CURVE SMOOTH",
"69 634 OFFCURVE",
"61 626 OFFCURVE",
"61 621 CURVE SMOOTH",
"61 619 OFFCURVE",
"63 617 OFFCURVE",
"67 617 CURVE SMOOTH",
"82 618 OFFCURVE",
"159 616 OFFCURVE",
"180 613 CURVE SMOOTH",
"199 610 OFFCURVE",
"218 587 OFFCURVE",
"215 561 CURVE SMOOTH",
"201 412 OFFCURVE",
"185 280 OFFCURVE",
"153 132 CURVE SMOOTH",
"130 27 OFFCURVE",
"104 16 OFFCURVE",
"24 16 CURVE SMOOTH",
"7 16 OFFCURVE",
"-12 17 OFFCURVE",
"-34 17 CURVE",
"-45 20 OFFCURVE",
"-41 2 OFFCURVE",
"-31 2 CURVE SMOOTH",
"-29 2 LINE SMOOTH",
"-12 1 OFFCURVE",
"5 1 OFFCURVE",
"22 1 CURVE SMOOTH",
"74 1 OFFCURVE",
"123 4 OFFCURVE",
"146 5 CURVE SMOOTH",
"156 5 OFFCURVE",
"168 6 OFFCURVE",
"181 6 CURVE SMOOTH",
"249 6 OFFCURVE",
"340 0 OFFCURVE",
"358 0 CURVE SMOOTH",
"365 0 OFFCURVE",
"373 7 OFFCURVE",
"373 12 CURVE SMOOTH",
"373 14 OFFCURVE",
"372 16 OFFCURVE",
"367 16 CURVE SMOOTH",
"325 16 OFFCURVE",
"288 17 OFFCURVE",
"265 19 CURVE SMOOTH",
"253 20 OFFCURVE",
"214 35 OFFCURVE",
"215 61 CURVE SMOOTH",
"219 139 OFFCURVE",
"261 441 OFFCURVE",
"270 494 CURVE",
"320 413 OFFCURVE",
"499 142 OFFCURVE",
"586 -21 CURVE"
);
},
{
closed = 1;
nodes = (
"461 -218 OFFCURVE",
"503 -199 OFFCURVE",
"539 -175 CURVE SMOOTH",
"600 -134 OFFCURVE",
"630 -77 OFFCURVE",
"637 -18 CURVE SMOOTH",
"640 10 OFFCURVE",
"656 85 OFFCURVE",
"659 113 CURVE",
"596 148 LINE",
"596 148 LINE",
"575 23 LINE SMOOTH",
"564 -40 OFFCURVE",
"541 -98 OFFCURVE",
"521 -124 CURVE SMOOTH",
"498 -153 OFFCURVE",
"471 -176 OFFCURVE",
"443 -176 CURVE SMOOTH",
"427 -176 OFFCURVE",
"410 -168 OFFCURVE",
"394 -149 CURVE SMOOTH",
"384 -137 OFFCURVE",
"377 -120 OFFCURVE",
"377 -101 CURVE SMOOTH",
"377 -94 OFFCURVE",
"380 -86 OFFCURVE",
"380 -81 CURVE SMOOTH",
"380 -78 OFFCURVE",
"379 -76 OFFCURVE",
"375 -76 CURVE SMOOTH",
"367 -76 OFFCURVE",
"360 -98 OFFCURVE",
"355 -106 CURVE SMOOTH",
"344 -128 OFFCURVE",
"337 -135 OFFCURVE",
"321 -158 CURVE SMOOTH",
"319 -161 OFFCURVE",
"318 -164 OFFCURVE",
"318 -168 CURVE SMOOTH",
"318 -183 OFFCURVE",
"338 -198 OFFCURVE",
"347 -205 CURVE SMOOTH",
"359 -214 OFFCURVE",
"381 -218 OFFCURVE",
"406 -218 CURVE SMOOTH"
);
}
);
width = 806;
}
);
leftKerningGroup = H;
leftMetricsKey = N;
widthMetricsKey = N;
rightKerningGroup = N;
unicode = 014A;
},
{
color = 3;
glyphname = O;
lastChange = "2022-03-24 14:08:51 +0000";
layers = (
{
anchors = (
{
name = bottom;
position = "{368, 0}";
},
{
name = horn;
position = "{582, 620}";
},
{
name = ogonek;
position = "{476, 0}";
},
{
name = top;
position = "{456, 640}";
}
);
background = {
paths = (
{
closed = 1;
nodes = (
"648 610 OFFCURVE",
"539 654 OFFCURVE",
"431 654 CURVE SMOOTH",
"343 654 OFFCURVE",
"260 614 OFFCURVE",
"195 552 CURVE SMOOTH",
"79 441 OFFCURVE",
"30 258 OFFCURVE",
"96 133 CURVE SMOOTH",
"154 24 OFFCURVE",
"262 -20 OFFCURVE",
"370 -20 CURVE SMOOTH",
"458 -20 OFFCURVE",
"541 21 OFFCURVE",
"606 82 CURVE SMOOTH",
"722 193 OFFCURVE",
"772 376 OFFCURVE",
"706 501 CURVE SMOOTH"
);
},
{
closed = 1;
nodes = (
"495 41 OFFCURVE",
"355 32 OFFCURVE",
"246 127 CURVE SMOOTH",
"104 250 OFFCURVE",
"145 446 OFFCURVE",
"226 520 CURVE SMOOTH",
"307 594 OFFCURVE",
"446 602 OFFCURVE",
"555 507 CURVE SMOOTH",
"697 384 OFFCURVE",
"656 188 OFFCURVE",
"575 114 CURVE SMOOTH"
);
}
);
};
layerId = "404CF7D8-B1FB-4D32-849A-66F5CDD10145";
paths = (
{
closed = 1;
nodes = (
"458 -20 OFFCURVE",
"541 21 OFFCURVE",
"606 82 CURVE SMOOTH",
"687 159 OFFCURVE",
"735 271 OFFCURVE",
"735 374 CURVE SMOOTH",
"735 420 OFFCURVE",
"726 463 OFFCURVE",
"706 501 CURVE SMOOTH",
"648 610 OFFCURVE",
"539 654 OFFCURVE",
"431 654 CURVE SMOOTH",
"343 654 OFFCURVE",
"260 614 OFFCURVE",
"195 552 CURVE SMOOTH",
"115 475 OFFCURVE",
"66 363 OFFCURVE",
"66 261 CURVE SMOOTH",
"66 215 OFFCURVE",
"76 171 OFFCURVE",
"96 133 CURVE SMOOTH",
"154 24 OFFCURVE",
"262 -20 OFFCURVE",
"370 -20 CURVE SMOOTH"
);
},
{
closed = 1;
nodes = (
"364 57 OFFCURVE",
"301 79 OFFCURVE",
"246 127 CURVE SMOOTH",
"178 186 OFFCURVE",
"152 261 OFFCURVE",
"152 332 CURVE SMOOTH",
"152 409 OFFCURVE",
"184 481 OFFCURVE",
"226 520 CURVE SMOOTH",
"266 556 OFFCURVE",
"320 577 OFFCURVE",
"377 577 CURVE SMOOTH",
"437 577 OFFCURVE",
"500 555 OFFCURVE",
"555 507 CURVE SMOOTH",
"623 448 OFFCURVE",
"649 373 OFFCURVE",
"649 302 CURVE SMOOTH",
"649 225 OFFCURVE",
"617 153 OFFCURVE",
"575 114 CURVE SMOOTH",
"535 78 OFFCURVE",
"481 57 OFFCURVE",
"423 57 CURVE SMOOTH"
);
}
);
width = 737;
}
);
leftKerningGroup = O;
note = O;
rightKerningGroup = O;
unicode = 004F;
},
{
color = 3;
glyphname = Oslash;
lastChange = "2022-03-23 16:40:28 +0000";
layers = (
{
anchors = (
{
name = top;
position = "{456, 640}";
}
);
background = {
paths = (
{
closed = 1;
nodes = (
"648 610 OFFCURVE",
"539 654 OFFCURVE",
"431 654 CURVE SMOOTH",
"343 654 OFFCURVE",
"260 614 OFFCURVE",
"195 552 CURVE SMOOTH",
"79 441 OFFCURVE",
"30 258 OFFCURVE",
"96 133 CURVE SMOOTH",
"154 24 OFFCURVE",
"262 -20 OFFCURVE",
"370 -20 CURVE SMOOTH",
"458 -20 OFFCURVE",
"541 21 OFFCURVE",
"606 82 CURVE SMOOTH",
"722 193 OFFCURVE",
"772 376 OFFCURVE",
"706 501 CURVE SMOOTH"
);
},
{
closed = 1;
nodes = (
"495 41 OFFCURVE",
"355 32 OFFCURVE",
"246 127 CURVE SMOOTH",
"104 250 OFFCURVE",
"145 446 OFFCURVE",
"226 520 CURVE SMOOTH",
"306 594 OFFCURVE",
"446 602 OFFCURVE",
"555 507 CURVE SMOOTH",
"697 384 OFFCURVE",
"656 188 OFFCURVE",
"575 114 CURVE SMOOTH"
);
},
{
closed = 1;
nodes = (
"726 770 OFFCURVE",
"647 753 OFFCURVE",
"639 737 CURVE",
"78 -75 LINE SMOOTH",
"63 -96 OFFCURVE",
"142 -79 OFFCURVE",
"150 -64 CURVE",
"315 180 OFFCURVE",
"673 696 OFFCURVE",
"711 749 CURVE SMOOTH"
);
}
);
};
layerId = "404CF7D8-B1FB-4D32-849A-66F5CDD10145";
paths = (
{
closed = 1;
nodes = (
"108 -85 OFFCURVE",
"145 -74 OFFCURVE",
"150 -64 CURVE",
"315 180 OFFCURVE",
"673 696 OFFCURVE",
"711 749 CURVE SMOOTH",
"716 756 OFFCURVE",
"711 759 OFFCURVE",
"701 759 CURVE SMOOTH",
"681 759 OFFCURVE",
"644 748 OFFCURVE",
"639 737 CURVE",
"78 -75 LINE SMOOTH",
"73 -82 OFFCURVE",
"79 -85 OFFCURVE",
"88 -85 CURVE SMOOTH"
);
},
{
closed = 1;
nodes = (
"458 -20 OFFCURVE",
"541 21 OFFCURVE",
"606 82 CURVE SMOOTH",
"687 159 OFFCURVE",
"735 271 OFFCURVE",
"735 374 CURVE SMOOTH",
"735 420 OFFCURVE",
"726 463 OFFCURVE",
"706 501 CURVE SMOOTH",
"648 610 OFFCURVE",
"539 654 OFFCURVE",
"431 654 CURVE SMOOTH",
"343 654 OFFCURVE",
"260 614 OFFCURVE",
"195 552 CURVE SMOOTH",
"115 475 OFFCURVE",
"66 363 OFFCURVE",
"66 261 CURVE SMOOTH",
"66 215 OFFCURVE",
"76 171 OFFCURVE",
"96 133 CURVE SMOOTH",
"154 24 OFFCURVE",
"262 -20 OFFCURVE",
"370 -20 CURVE SMOOTH"
);
},
{
closed = 1;
nodes = (
"364 57 OFFCURVE",
"301 79 OFFCURVE",
"246 127 CURVE SMOOTH",
"178 186 OFFCURVE",
"152 261 OFFCURVE",
"152 332 CURVE SMOOTH",
"152 409 OFFCURVE",
"184 481 OFFCURVE",
"226 520 CURVE SMOOTH",
"265 556 OFFCURVE",
"319 577 OFFCURVE",
"377 577 CURVE SMOOTH",
"436 577 OFFCURVE",
"500 555 OFFCURVE",
"555 507 CURVE SMOOTH",
"623 448 OFFCURVE",
"649 373 OFFCURVE",
"649 302 CURVE SMOOTH",
"649 225 OFFCURVE",
"617 153 OFFCURVE",
"575 114 CURVE SMOOTH",
"535 78 OFFCURVE",
"481 57 OFFCURVE",
"423 57 CURVE SMOOTH"
);
}
);
width = 737;
}
);
leftKerningGroup = O;
leftMetricsKey = O;
widthMetricsKey = O;
note = Oslash;
rightKerningGroup = O;
unicode = 00D8;
},
{
glyphname = OE;
lastChange = "2022-03-23 16:40:41 +0000";
layers = (
{
background = {
paths = (
{
closed = 1;
nodes = (
"997 182 OFFCURVE",
"987 190 OFFCURVE",
"984 183 CURVE SMOOTH",
"945 94 OFFCURVE",
"870 32 OFFCURVE",
"768 32 CURVE SMOOTH",
"664 32 OFFCURVE",
"651 64 OFFCURVE",
"655 113 CURVE SMOOTH",
"661 193 OFFCURVE",
"666 254 OFFCURVE",
"673 315 CURVE",
"704 315 OFFCURVE",
"742 314 OFFCURVE",
"802 313 CURVE SMOOTH",
"828 313 OFFCURVE",
"854 310 OFFCURVE",
"878 322 CURVE SMOOTH",
"895 330 OFFCURVE",
"927 350 OFFCURVE",
"936 370 CURVE SMOOTH",
"939 377 OFFCURVE",
"938 381 OFFCURVE",
"932 376 CURVE SMOOTH",
"921 368 OFFCURVE",
"858 356 OFFCURVE",
"811 354 CURVE SMOOTH",
"761 351 OFFCURVE",
"716 349 OFFCURVE",
"677 347 CURVE",
"683 395 OFFCURVE",
"690 445 OFFCURVE",
"701 506 CURVE SMOOTH",
"719 610 OFFCURVE",
"790 596 OFFCURVE",
"879 597 CURVE SMOOTH",
"936 598 OFFCURVE",
"976 550 OFFCURVE",
"969 454 CURVE SMOOTH",
"968 437 OFFCURVE",
"983 436 OFFCURVE",
"984 445 CURVE SMOOTH",
"987 499 OFFCURVE",
"986 524 OFFCURVE",
"991 572 CURVE SMOOTH",
"997 622 OFFCURVE",
"987 639 OFFCURVE",
"942 637 CURVE SMOOTH",
"847 632 OFFCURVE",
"771 631 OFFCURVE",
"678 630 CURVE SMOOTH",
"636 629 OFFCURVE",
"590 631 OFFCURVE",
"542 632 CURVE",
"506 645 OFFCURVE",
"466 651 OFFCURVE",
"427 651 CURVE SMOOTH",
"341 651 OFFCURVE",
"258 611 OFFCURVE",
"194 550 CURVE SMOOTH",
"79 440 OFFCURVE",
"30 259 OFFCURVE",
"95 135 CURVE SMOOTH",
"152 27 OFFCURVE",
"260 -16 OFFCURVE",
"367 -16 CURVE SMOOTH",
"401 -16 OFFCURVE",
"434 -10 OFFCURVE",
"465 0 CURVE",
"496 1 OFFCURVE",
"523 2 OFFCURVE",
"538 3 CURVE SMOOTH",
"605 5 OFFCURVE",
"649 8 OFFCURVE",
"713 3 CURVE SMOOTH",
"834 -6 OFFCURVE",
"894 -13 OFFCURVE",
"913 0 CURVE SMOOTH",
"961 31 OFFCURVE",
"982 145 OFFCURVE",
"994 175 CURVE SMOOTH"
);
},
{
closed = 1;
nodes = (
"591 415 OFFCURVE",
"587 379 OFFCURVE",
"581 340 CURVE",
"572 339 OFFCURVE",
"562 338 OFFCURVE",
"558 337 CURVE SMOOTH",
"540 332 OFFCURVE",
"495 309 OFFCURVE",
"546 313 CURVE SMOOTH",
"555 314 OFFCURVE",
"568 314 OFFCURVE",
"578 315 CURVE",
"570 256 OFFCURVE",
"559 191 OFFCURVE",
"545 132 CURVE SMOOTH",
"541 116 OFFCURVE",
"538 102 OFFCURVE",
"535 90 CURVE",
"454 43 OFFCURVE",
"338 48 OFFCURVE",
"244 129 CURVE SMOOTH",
"104 251 OFFCURVE",
"144 444 OFFCURVE",
"225 518 CURVE SMOOTH",
"304 591 OFFCURVE",
"442 599 OFFCURVE",
"550 505 CURVE SMOOTH",
"572 486 OFFCURVE",
"585 466 OFFCURVE",
"593 446 CURVE"
);
}
);
};
layerId = "404CF7D8-B1FB-4D32-849A-66F5CDD10145";
paths = (
{
closed = 1;
nodes = (
"401 -16 OFFCURVE",
"434 -10 OFFCURVE",
"465 0 CURVE",
"496 1 OFFCURVE",
"523 2 OFFCURVE",
"538 3 CURVE SMOOTH",
"578 4 OFFCURVE",
"610 6 OFFCURVE",
"642 6 CURVE SMOOTH",
"664 6 OFFCURVE",
"687 5 OFFCURVE",
"713 3 CURVE SMOOTH",
"786 -2 OFFCURVE",
"837 -7 OFFCURVE",
"870 -7 CURVE SMOOTH",
"892 -7 OFFCURVE",
"905 -5 OFFCURVE",
"913 0 CURVE SMOOTH",
"961 31 OFFCURVE",
"982 145 OFFCURVE",
"994 175 CURVE SMOOTH",
"996 180 OFFCURVE",
"991 186 OFFCURVE",
"988 186 CURVE SMOOTH",
"986 186 OFFCURVE",
"985 185 OFFCURVE",
"984 183 CURVE SMOOTH",
"945 94 OFFCURVE",
"870 32 OFFCURVE",
"768 32 CURVE SMOOTH",
"664 32 OFFCURVE",
"651 64 OFFCURVE",
"655 113 CURVE SMOOTH",
"661 193 OFFCURVE",
"666 254 OFFCURVE",
"673 315 CURVE",
"708 315 OFFCURVE",
"753 313 OFFCURVE",
"828 313 CURVE SMOOTH",
"845 313 OFFCURVE",
"862 314 OFFCURVE",
"878 322 CURVE SMOOTH",
"895 330 OFFCURVE",
"927 350 OFFCURVE",
"936 370 CURVE SMOOTH",
"938 375 OFFCURVE",
"938 378 OFFCURVE",
"936 378 CURVE SMOOTH",
"935 378 OFFCURVE",
"934 378 OFFCURVE",
"932 376 CURVE SMOOTH",
"921 368 OFFCURVE",
"858 356 OFFCURVE",
"811 354 CURVE SMOOTH",
"761 351 OFFCURVE",
"716 349 OFFCURVE",
"677 347 CURVE",
"683 395 OFFCURVE",
"690 445 OFFCURVE",
"701 506 CURVE SMOOTH",
"715 589 OFFCURVE",
"763 598 OFFCURVE",
"827 598 CURVE SMOOTH",
"844 598 OFFCURVE",
"862 597 OFFCURVE",
"881 597 CURVE SMOOTH",
"933 597 OFFCURVE",
"970 556 OFFCURVE",
"970 475 CURVE SMOOTH",
"970 467 OFFCURVE",
"969 460 OFFCURVE",
"969 452 CURVE SMOOTH",
"969 443 OFFCURVE",
"974 439 OFFCURVE",
"978 439 CURVE SMOOTH",
"981 439 OFFCURVE",
"984 441 OFFCURVE",
"984 445 CURVE SMOOTH",
"987 499 OFFCURVE",
"986 524 OFFCURVE",
"991 572 CURVE SMOOTH",
"992 581 OFFCURVE",
"993 588 OFFCURVE",
"993 595 CURVE SMOOTH",
"993 627 OFFCURVE",
"979 639 OFFCURVE",
"942 637 CURVE SMOOTH",
"839 632 OFFCURVE",
"758 630 OFFCURVE",
"654 630 CURVE SMOOTH",
"618 630 OFFCURVE",
"581 631 OFFCURVE",
"542 632 CURVE",
"506 645 OFFCURVE",
"466 651 OFFCURVE",
"427 651 CURVE SMOOTH",
"341 651 OFFCURVE",
"258 611 OFFCURVE",
"194 550 CURVE SMOOTH",
"114 474 OFFCURVE",
"66 363 OFFCURVE",
"66 261 CURVE SMOOTH",
"66 216 OFFCURVE",
"75 173 OFFCURVE",
"95 135 CURVE SMOOTH",
"152 27 OFFCURVE",
"260 -16 OFFCURVE",
"367 -16 CURVE SMOOTH"
);
},
{
closed = 1;
nodes = (
"362 60 OFFCURVE",
"299 81 OFFCURVE",
"244 129 CURVE SMOOTH",
"177 187 OFFCURVE",
"151 261 OFFCURVE",
"151 331 CURVE SMOOTH",
"151 408 OFFCURVE",
"183 479 OFFCURVE",
"225 518 CURVE SMOOTH",
"264 554 OFFCURVE",
"317 574 OFFCURVE",
"374 574 CURVE SMOOTH",
"433 574 OFFCURVE",
"495 553 OFFCURVE",
"550 505 CURVE SMOOTH",
"572 486 OFFCURVE",
"585 466 OFFCURVE",
"593 446 CURVE",
"591 415 OFFCURVE",
"587 379 OFFCURVE",
"581 340 CURVE",
"572 339 OFFCURVE",
"562 338 OFFCURVE",
"558 337 CURVE SMOOTH",
"546 334 OFFCURVE",
"522 323 OFFCURVE",
"522 316 CURVE SMOOTH",
"522 314 OFFCURVE",
"526 313 OFFCURVE",
"535 313 CURVE SMOOTH",
"546 313 LINE SMOOTH",
"555 314 OFFCURVE",
"568 314 OFFCURVE",
"578 315 CURVE",
"570 256 OFFCURVE",
"559 191 OFFCURVE",
"545 132 CURVE SMOOTH",
"535 90 LINE",
"502 71 OFFCURVE",
"462 60 OFFCURVE",
"421 60 CURVE SMOOTH"
);
}
);
width = 1037;
}
);
leftKerningGroup = O;
leftMetricsKey = O;
note = OE;
rightKerningGroup = E;
rightMetricsKey = E;
unicode = 0152;
},
{
glyphname = P;
lastChange = "2022-03-24 15:33:29 +0000";
layers = (
{
background = {
paths = (
{
closed = 1;
nodes = (
"649 588 OFFCURVE",
"566 646 OFFCURVE",
"481 649 CURVE SMOOTH",
"416 652 OFFCURVE",
"345 631 OFFCURVE",
"302 630 CURVE SMOOTH",
"291 630 OFFCURVE",
"296 630 OFFCURVE",
"284 630 CURVE SMOOTH",
"219 630 OFFCURVE",
"133 634 OFFCURVE",
"76 634 CURVE SMOOTH",
"66 634 OFFCURVE",
"54 617 OFFCURVE",
"67 617 CURVE SMOOTH",
"82 618 OFFCURVE",
"159 616 OFFCURVE",
"180 613 CURVE SMOOTH",
"198 610 OFFCURVE",
"218 587 OFFCURVE",
"215 561 CURVE SMOOTH",
"201 412 OFFCURVE",
"185 280 OFFCURVE",
"153 132 CURVE SMOOTH",
"124 1 OFFCURVE",
"129 15 OFFCURVE",
"-23 17 CURVE",
"-31 18 OFFCURVE",
"-44 -2 OFFCURVE",
"-33 0 CURVE",
"33 -1 OFFCURVE",
"115 3 OFFCURVE",
"146 3 CURVE SMOOTH",
"190 4 OFFCURVE",
"254 1 OFFCURVE",
"410 -2 CURVE",
"420 -4 OFFCURVE",
"432 18 OFFCURVE",
"423 17 CURVE SMOOTH",
"393 14 OFFCURVE",
"349 15 OFFCURVE",
"324 18 CURVE SMOOTH",
"295 22 OFFCURVE",
"273 44 OFFCURVE",
"268 75 CURVE SMOOTH",
"261 122 OFFCURVE",
"269 208 OFFCURVE",
"271 225 CURVE SMOOTH",
"292 407 OFFCURVE",
"309 482 OFFCURVE",
"317 507 CURVE SMOOTH",
"338 574 OFFCURVE",
"359 623 OFFCURVE",
"421 623 CURVE SMOOTH",
"482 623 OFFCURVE",
"508 566 OFFCURVE",
"508 496 CURVE SMOOTH",
"508 381 OFFCURVE",
"449 249 OFFCURVE",
"362 241 CURVE SMOOTH",
"349 240 OFFCURVE",
"335 241 OFFCURVE",
"322 251 CURVE SMOOTH",
"313 257 OFFCURVE",
"307 269 OFFCURVE",
"297 279 CURVE SMOOTH",
"288 288 OFFCURVE",
"276 261 OFFCURVE",
"291 244 CURVE SMOOTH",
"303 231 OFFCURVE",
"352 209 OFFCURVE",
"442 245 CURVE SMOOTH",
"529 279 OFFCURVE",
"622 373 OFFCURVE",
"634 469 CURVE SMOOTH"
);
}
);
};
layerId = "404CF7D8-B1FB-4D32-849A-66F5CDD10145";
paths = (
{
closed = 1;
nodes = (
"418 -4 OFFCURVE",
"426 9 OFFCURVE",
"426 14 CURVE SMOOTH",
"426 16 OFFCURVE",
"425 17 OFFCURVE",
"423 17 CURVE SMOOTH",
"410 16 OFFCURVE",
"395 15 OFFCURVE",
"380 15 CURVE SMOOTH",
"359 15 OFFCURVE",
"339 16 OFFCURVE",
"324 18 CURVE SMOOTH",
"295 22 OFFCURVE",
"273 44 OFFCURVE",
"268 75 CURVE SMOOTH",
"266 89 OFFCURVE",
"265 106 OFFCURVE",
"265 124 CURVE SMOOTH",
"265 167 OFFCURVE",
"270 213 OFFCURVE",
"271 225 CURVE SMOOTH",
"292 407 OFFCURVE",
"309 482 OFFCURVE",
"317 507 CURVE SMOOTH",
"338 574 OFFCURVE",
"359 623 OFFCURVE",
"421 623 CURVE SMOOTH",
"482 623 OFFCURVE",
"508 566 OFFCURVE",
"508 496 CURVE SMOOTH",
"508 378 OFFCURVE",
"446 241 OFFCURVE",
"355 241 CURVE SMOOTH",
"344 241 OFFCURVE",
"333 243 OFFCURVE",
"322 251 CURVE SMOOTH",
"313 257 OFFCURVE",
"307 269 OFFCURVE",
"297 279 CURVE SMOOTH",
"291 285 OFFCURVE",
"284 275 OFFCURVE",
"284 263 CURVE SMOOTH",
"284 257 OFFCURVE",
"286 250 OFFCURVE",
"291 244 CURVE SMOOTH",
"298 236 OFFCURVE",
"318 225 OFFCURVE",
"353 225 CURVE SMOOTH",
"376 225 OFFCURVE",
"406 230 OFFCURVE",
"442 245 CURVE SMOOTH",
"529 279 OFFCURVE",
"622 373 OFFCURVE",
"634 469 CURVE SMOOTH",
"635 478 OFFCURVE",
"636 488 OFFCURVE",
"636 496 CURVE SMOOTH",
"636 597 OFFCURVE",
"559 646 OFFCURVE",
"481 649 CURVE SMOOTH",
"416 652 OFFCURVE",
"345 631 OFFCURVE",
"302 630 CURVE SMOOTH",
"284 630 LINE SMOOTH",
"219 630 OFFCURVE",
"133 634 OFFCURVE",
"76 634 CURVE SMOOTH",
"69 634 OFFCURVE",
"61 626 OFFCURVE",
"61 621 CURVE SMOOTH",
"61 619 OFFCURVE",
"63 617 OFFCURVE",
"67 617 CURVE SMOOTH",
"82 618 OFFCURVE",
"159 616 OFFCURVE",
"180 613 CURVE SMOOTH",
"198 610 OFFCURVE",
"218 587 OFFCURVE",
"215 561 CURVE SMOOTH",
"201 412 OFFCURVE",
"185 280 OFFCURVE",
"153 132 CURVE SMOOTH",
"130 29 OFFCURVE",
"128 16 OFFCURVE",
"55 16 CURVE SMOOTH",
"35 16 OFFCURVE",
"9 17 OFFCURVE",
"-23 17 CURVE",
"-29 18 OFFCURVE",
"-37 8 OFFCURVE",
"-37 3 CURVE SMOOTH",
"-37 1 OFFCURVE",
"-36 0 OFFCURVE",
"-34 0 CURVE SMOOTH",
"-33 0 LINE SMOOTH",
"33 -1 OFFCURVE",
"115 3 OFFCURVE",
"146 3 CURVE SMOOTH",
"190 4 OFFCURVE",
"254 1 OFFCURVE",
"410 -2 CURVE"
);
}
);
width = 643;
}
);
leftKerningGroup = H;
note = P;
rightKerningGroup = P;
unicode = 0050;
},
{
glyphname = Thorn;
lastChange = "2022-03-23 16:41:05 +0000";
layers = (
{
background = {
paths = (
{
closed = 1;
nodes = (
"555 574 OFFCURVE",
"522 631 OFFCURVE",
"444 649 CURVE SMOOTH",
"403 659 OFFCURVE",
"366 647 OFFCURVE",
"327 643 CURVE SMOOTH",
"322 642 OFFCURVE",
"317 642 OFFCURVE",
"312 642 CURVE",
"320 716 OFFCURVE",
"322 718 OFFCURVE",
"323 728 CURVE SMOOTH",
"324 739 OFFCURVE",
"328 752 OFFCURVE",
"314 751 CURVE SMOOTH",
"278 749 OFFCURVE",
"235 751 OFFCURVE",
"170 752 CURVE SMOOTH",
"162 752 OFFCURVE",
"120 753 OFFCURVE",
"108 753 CURVE SMOOTH",
"97 754 OFFCURVE",
"80 736 OFFCURVE",
"105 736 CURVE SMOOTH",
"173 736 OFFCURVE",
"203 743 OFFCURVE",
"202 668 CURVE SMOOTH",
"200 512 OFFCURVE",
"181 181 OFFCURVE",
"146 76 CURVE SMOOTH",
"134 41 OFFCURVE",
"116 13 OFFCURVE",
"90 14 CURVE SMOOTH",
"71 14 OFFCURVE",
"56 16 OFFCURVE",
"32 17 CURVE SMOOTH",
"23 18 OFFCURVE",
"25 -3 OFFCURVE",
"35 -2 CURVE SMOOTH",
"72 0 OFFCURVE",
"204 2 OFFCURVE",
"224 2 CURVE SMOOTH",
"290 2 OFFCURVE",
"393 -2 OFFCURVE",
"406 -2 CURVE SMOOTH",
"425 -2 OFFCURVE",
"422 14 OFFCURVE",
"412 13 CURVE SMOOTH",
"389 12 OFFCURVE",
"259 5 OFFCURVE",
"256 49 CURVE SMOOTH",
"253 85 OFFCURVE",
"264 246 OFFCURVE",
"279 367 CURVE SMOOTH",
"282 392 OFFCURVE",
"285 416 OFFCURVE",
"288 437 CURVE SMOOTH",
"300 538 OFFCURVE",
"310 598 OFFCURVE",
"315 611 CURVE",
"323 612 OFFCURVE",
"332 614 OFFCURVE",
"343 617 CURVE",
"327 535 OFFCURVE",
"313 436 OFFCURVE",
"303 361 CURVE SMOOTH",
"292 272 OFFCURVE",
"294 183 OFFCURVE",
"378 183 CURVE SMOOTH",
"541 183 OFFCURVE",
"566 380 OFFCURVE",
"560 481 CURVE SMOOTH"
);
},
{
closed = 1;
nodes = (
"460 458 OFFCURVE",
"495 206 OFFCURVE",
"378 206 CURVE SMOOTH",
"298 206 OFFCURVE",
"318 374 OFFCURVE",
"326 433 CURVE SMOOTH",
"330 462 OFFCURVE",
"340 532 OFFCURVE",
"357 617 CURVE",
"399 628 OFFCURVE",
"432 584 OFFCURVE",
"445 524 CURVE SMOOTH"
);
}
);
};
layerId = "404CF7D8-B1FB-4D32-849A-66F5CDD10145";
paths = (
{
closed = 1;
nodes = (
"35 -2 LINE SMOOTH",
"72 0 OFFCURVE",
"204 2 OFFCURVE",
"224 2 CURVE SMOOTH",
"290 2 OFFCURVE",
"393 -2 OFFCURVE",
"406 -2 CURVE SMOOTH",
"416 -2 OFFCURVE",
"420 2 OFFCURVE",
"420 7 CURVE SMOOTH",
"420 10 OFFCURVE",
"417 13 OFFCURVE",
"413 13 CURVE SMOOTH",
"412 13 LINE SMOOTH",
"406 13 OFFCURVE",
"391 12 OFFCURVE",
"374 12 CURVE SMOOTH",
"327 12 OFFCURVE",
"258 17 OFFCURVE",
"256 49 CURVE SMOOTH",
"253 85 OFFCURVE",
"264 246 OFFCURVE",
"279 367 CURVE SMOOTH",
"288 437 LINE SMOOTH",
"300 538 OFFCURVE",
"310 598 OFFCURVE",
"315 611 CURVE",
"323 612 OFFCURVE",
"332 614 OFFCURVE",
"343 617 CURVE",
"327 535 OFFCURVE",
"313 436 OFFCURVE",
"303 361 CURVE SMOOTH",
"300 338 OFFCURVE",
"298 316 OFFCURVE",
"298 295 CURVE SMOOTH",
"298 233 OFFCURVE",
"315 183 OFFCURVE",
"378 183 CURVE SMOOTH",
"527 183 OFFCURVE",
"561 348 OFFCURVE",
"561 454 CURVE SMOOTH",
"561 563 OFFCURVE",
"529 629 OFFCURVE",
"444 649 CURVE SMOOTH",
"432 652 OFFCURVE",
"421 653 OFFCURVE",
"410 653 CURVE SMOOTH",
"382 653 OFFCURVE",
"355 646 OFFCURVE",
"327 643 CURVE SMOOTH",
"322 642 OFFCURVE",
"317 642 OFFCURVE",
"312 642 CURVE",
"320 716 OFFCURVE",
"322 718 OFFCURVE",
"323 728 CURVE SMOOTH",
"323 733 OFFCURVE",
"324 737 OFFCURVE",
"324 741 CURVE SMOOTH",
"324 747 OFFCURVE",
"323 751 OFFCURVE",
"315 751 CURVE SMOOTH",
"314 751 LINE SMOOTH",
"303 750 OFFCURVE",
"291 750 OFFCURVE",
"278 750 CURVE SMOOTH",
"249 750 OFFCURVE",
"215 751 OFFCURVE",
"170 752 CURVE SMOOTH",
"107 753 LINE SMOOTH",
"100 753 OFFCURVE",
"92 747 OFFCURVE",
"92 742 CURVE SMOOTH",
"92 739 OFFCURVE",
"95 736 OFFCURVE",
"105 736 CURVE SMOOTH",
"135 736 LINE SMOOTH",
"181 736 OFFCURVE",
"202 731 OFFCURVE",
"202 672 CURVE SMOOTH",
"202 517 OFFCURVE",
"181 182 OFFCURVE",
"146 76 CURVE SMOOTH",
"134 42 OFFCURVE",
"117 14 OFFCURVE",
"91 14 CURVE SMOOTH",
"72 14 OFFCURVE",
"57 16 OFFCURVE",
"32 17 CURVE SMOOTH",
"28 17 OFFCURVE",
"26 14 OFFCURVE",
"26 9 CURVE SMOOTH",
"26 4 OFFCURVE",
"29 -2 OFFCURVE",
"34 -2 CURVE SMOOTH"
);
},
{
closed = 1;
nodes = (
"330 206 OFFCURVE",
"318 267 OFFCURVE",
"318 329 CURVE SMOOTH",
"318 369 OFFCURVE",
"323 410 OFFCURVE",
"326 433 CURVE SMOOTH",
"330 462 OFFCURVE",
"340 532 OFFCURVE",
"357 617 CURVE",
"361 618 OFFCURVE",
"366 619 OFFCURVE",
"370 619 CURVE SMOOTH",
"406 619 OFFCURVE",
"433 578 OFFCURVE",
"445 524 CURVE SMOOTH",
"452 495 OFFCURVE",
"462 432 OFFCURVE",
"462 369 CURVE SMOOTH",
"462 287 OFFCURVE",
"444 206 OFFCURVE",
"378 206 CURVE SMOOTH"
);
}
);
width = 582;
}
);
note = Thorn;
unicode = 00DE;
},
{
glyphname = Q;
lastChange = "2022-04-06 17:46:15 +0000";
layers = (
{
background = {
paths = (
{
closed = 1;
nodes = (
"697 -193 OFFCURVE",
"665 -195 OFFCURVE",
"642 -193 CURVE SMOOTH",
"588 -187 OFFCURVE",
"325 -116 OFFCURVE",
"240 -77 CURVE",
"316 -61 OFFCURVE",
"383 -45 OFFCURVE",
"445 -18 CURVE SMOOTH",
"631 61 OFFCURVE",
"808 296 OFFCURVE",
"700 499 CURVE SMOOTH",
"643 607 OFFCURVE",
"535 651 OFFCURVE",
"428 651 CURVE SMOOTH",
"341 651 OFFCURVE",
"259 611 OFFCURVE",
"194 550 CURVE SMOOTH",
"79 440 OFFCURVE",
"30 259 OFFCURVE",
"96 135 CURVE SMOOTH",
"135 61 OFFCURVE",
"199 17 OFFCURVE",
"269 -3 CURVE SMOOTH",
"300 -12 OFFCURVE",
"333 21 OFFCURVE",
"381 42 CURVE SMOOTH",
"414 57 OFFCURVE",
"406 60 OFFCURVE",
"386 63 CURVE SMOOTH",
"338 70 OFFCURVE",
"289 91 OFFCURVE",
"245 129 CURVE SMOOTH",
"177 188 OFFCURVE",
"152 264 OFFCURVE",
"152 335 CURVE SMOOTH",
"152 467 OFFCURVE",
"238 575 OFFCURVE",
"375 575 CURVE SMOOTH",
"521 575 OFFCURVE",
"646 455 OFFCURVE",
"646 313 CURVE SMOOTH",
"646 190 OFFCURVE",
"551 67 OFFCURVE",
"432 6 CURVE SMOOTH",
"404 -9 OFFCURVE",
"245 -68 OFFCURVE",
"216 -53 CURVE SMOOTH",
"204 -46 OFFCURVE",
"196 -63 OFFCURVE",
"205 -73 CURVE SMOOTH",
"254 -127 OFFCURVE",
"429 -271 OFFCURVE",
"567 -286 CURVE SMOOTH",
"615 -291 OFFCURVE",
"654 -261 OFFCURVE",
"671 -231 CURVE SMOOTH",
"676 -222 OFFCURVE",
"677 -208 OFFCURVE",
"702 -208 CURVE SMOOTH",
"723 -208 OFFCURVE",
"719 -191 OFFCURVE",
"708 -192 CURVE SMOOTH"
);
},
{
closed = 1;
nodes = (
"615 -291 OFFCURVE",
"654 -261 OFFCURVE",
"671 -231 CURVE SMOOTH",
"676 -222 OFFCURVE",
"677 -208 OFFCURVE",
"702 -208 CURVE SMOOTH",
"713 -208 OFFCURVE",
"717 -203 OFFCURVE",
"717 -199 CURVE SMOOTH",
"717 -195 OFFCURVE",
"714 -192 OFFCURVE",
"709 -192 CURVE SMOOTH",
"708 -192 LINE SMOOTH",
"700 -193 OFFCURVE",
"683 -194 OFFCURVE",
"665 -194 CURVE SMOOTH",
"657 -194 OFFCURVE",
"649 -194 OFFCURVE",
"642 -193 CURVE SMOOTH",
"588 -187 OFFCURVE",
"325 -116 OFFCURVE",
"240 -77 CURVE",
"316 -61 OFFCURVE",
"383 -45 OFFCURVE",
"445 -18 CURVE SMOOTH",
"592 44 OFFCURVE",
"733 204 OFFCURVE",
"733 368 CURVE SMOOTH",
"733 412 OFFCURVE",
"723 456 OFFCURVE",
"700 499 CURVE SMOOTH",
"643 607 OFFCURVE",
"535 651 OFFCURVE",
"428 651 CURVE SMOOTH",
"341 651 OFFCURVE",
"259 611 OFFCURVE",
"194 550 CURVE SMOOTH",
"114 474 OFFCURVE",
"66 363 OFFCURVE",
"66 262 CURVE SMOOTH",
"66 217 OFFCURVE",
"76 173 OFFCURVE",
"96 135 CURVE SMOOTH",
"135 61 OFFCURVE",
"199 17 OFFCURVE",
"269 -3 CURVE SMOOTH",
"273 -4 OFFCURVE",
"276 -5 OFFCURVE",
"280 -5 CURVE SMOOTH",
"308 -5 OFFCURVE",
"339 23 OFFCURVE",
"381 42 CURVE SMOOTH",
"397 49 OFFCURVE",
"403 54 OFFCURVE",
"403 57 CURVE SMOOTH",
"403 60 OFFCURVE",
"396 61 OFFCURVE",
"386 63 CURVE SMOOTH",
"338 70 OFFCURVE",
"289 91 OFFCURVE",
"245 129 CURVE SMOOTH",
"177 188 OFFCURVE",
"152 264 OFFCURVE",
"152 335 CURVE SMOOTH",
"152 467 OFFCURVE",
"238 575 OFFCURVE",
"375 575 CURVE SMOOTH",
"521 575 OFFCURVE",
"646 455 OFFCURVE",
"646 313 CURVE SMOOTH",
"646 190 OFFCURVE",
"551 67 OFFCURVE",
"432 6 CURVE SMOOTH",
"407 -7 OFFCURVE",
"279 -55 OFFCURVE",
"230 -55 CURVE SMOOTH",
"224 -55 OFFCURVE",
"219 -55 OFFCURVE",
"216 -53 CURVE SMOOTH",
"208 -48 OFFCURVE",
"201 -55 OFFCURVE",
"201 -63 CURVE SMOOTH",
"201 -66 OFFCURVE",
"202 -70 OFFCURVE",
"205 -73 CURVE SMOOTH",
"254 -127 OFFCURVE",
"429 -271 OFFCURVE",
"567 -286 CURVE SMOOTH"
);
}
);
};
layerId = "404CF7D8-B1FB-4D32-849A-66F5CDD10145";
paths = (
{
closed = 1;
nodes = (
"623 -286 OFFCURVE",
"654 -261 OFFCURVE",
"671 -231 CURVE SMOOTH",
"676 -222 OFFCURVE",
"677 -208 OFFCURVE",
"702 -208 CURVE SMOOTH",
"713 -208 OFFCURVE",
"717 -203 OFFCURVE",
"717 -199 CURVE SMOOTH",
"717 -195 OFFCURVE",
"714 -192 OFFCURVE",
"709 -192 CURVE SMOOTH",
"708 -192 LINE SMOOTH",
"700 -192 OFFCURVE",
"683 -194 OFFCURVE",
"665 -194 CURVE SMOOTH",
"657 -194 OFFCURVE",
"649 -194 OFFCURVE",
"642 -193 CURVE SMOOTH",
"588 -187 OFFCURVE",
"325 -116 OFFCURVE",
"240 -77 CURVE",
"316 -61 OFFCURVE",
"383 -45 OFFCURVE",
"445 -18 CURVE SMOOTH",
"592 44 OFFCURVE",
"733 204 OFFCURVE",
"733 368 CURVE SMOOTH",
"733 531 OFFCURVE",
"602 651 OFFCURVE",
"428 651 CURVE SMOOTH",
"236 651 OFFCURVE",
"66 458 OFFCURVE",
"66 262 CURVE SMOOTH",
"66 135 OFFCURVE",
"146 32 OFFCURVE",
"269 -3 CURVE SMOOTH",
"273 -4 OFFCURVE",
"276 -5 OFFCURVE",
"280 -5 CURVE SMOOTH",
"308 -5 OFFCURVE",
"339 23 OFFCURVE",
"381 42 CURVE SMOOTH",
"397 49 OFFCURVE",
"403 54 OFFCURVE",
"403 57 CURVE SMOOTH",
"403 60 OFFCURVE",
"396 61 OFFCURVE",
"386 63 CURVE SMOOTH",
"256 82 OFFCURVE",
"152 194 OFFCURVE",
"152 335 CURVE SMOOTH",
"152 467 OFFCURVE",
"238 575 OFFCURVE",
"375 575 CURVE SMOOTH",
"521 575 OFFCURVE",
"646 455 OFFCURVE",
"646 313 CURVE SMOOTH",
"646 190 OFFCURVE",
"551 67 OFFCURVE",
"432 6 CURVE SMOOTH",
"407 -7 OFFCURVE",
"279 -55 OFFCURVE",
"230 -55 CURVE SMOOTH",
"224 -55 OFFCURVE",
"219 -55 OFFCURVE",
"216 -53 CURVE SMOOTH",
"208 -48 OFFCURVE",
"201 -55 OFFCURVE",
"201 -63 CURVE SMOOTH",
"201 -66 OFFCURVE",
"202 -70 OFFCURVE",
"205 -73 CURVE SMOOTH",
"254 -127 OFFCURVE",
"447 -286 OFFCURVE",
"575 -286 CURVE SMOOTH"
);
}
);
width = 735;
}
);
leftKerningGroup = O;
leftMetricsKey = O;
note = Q;
rightKerningGroup = O;
rightMetricsKey = O;
unicode = 0051;
},
{
color = 3;
glyphname = R;
lastChange = "2022-03-24 15:34:18 +0000";
layers = (
{
anchors = (
{
name = bottom;
position = "{322, 0}";
},
{
name = top;
position = "{451, 640}";
}
);
background = {
paths = (
{
closed = 1;
nodes = (
"720 -20 OFFCURVE",
"691 -9 OFFCURVE",
"670 3 CURVE SMOOTH",
"622 31 OFFCURVE",
"402 219 OFFCURVE",
"350 285 CURVE",
"370 282 OFFCURVE",
"400 285 OFFCURVE",
"448 301 CURVE SMOOTH",
"535 330 OFFCURVE",
"627 410 OFFCURVE",
"639 492 CURVE SMOOTH",
"654 593 OFFCURVE",
"572 646 OFFCURVE",
"486 649 CURVE SMOOTH",
"421 652 OFFCURVE",
"345 630 OFFCURVE",
"302 630 CURVE SMOOTH",
"291 630 OFFCURVE",
"296 630 OFFCURVE",
"284 630 CURVE SMOOTH",
"219 630 OFFCURVE",
"133 634 OFFCURVE",
"76 634 CURVE SMOOTH",
"66 634 OFFCURVE",
"54 617 OFFCURVE",
"67 617 CURVE SMOOTH",
"82 618 OFFCURVE",
"159 616 OFFCURVE",
"180 613 CURVE SMOOTH",
"198 610 OFFCURVE",
"218 587 OFFCURVE",
"215 561 CURVE SMOOTH",
"201 412 OFFCURVE",
"185 280 OFFCURVE",
"153 132 CURVE SMOOTH",
"124 1 OFFCURVE",
"129 15 OFFCURVE",
"-23 17 CURVE",
"-31 18 OFFCURVE",
"-44 -2 OFFCURVE",
"-33 0 CURVE",
"33 -1 OFFCURVE",
"115 3 OFFCURVE",
"146 3 CURVE SMOOTH",
"191 3 OFFCURVE",
"251 1 OFFCURVE",
"415 -2 CURVE",
"425 -4 OFFCURVE",
"437 18 OFFCURVE",
"428 17 CURVE SMOOTH",
"399 14 OFFCURVE",
"354 15 OFFCURVE",
"329 18 CURVE SMOOTH",
"300 22 OFFCURVE",
"278 44 OFFCURVE",
"273 75 CURVE SMOOTH",
"265 122 OFFCURVE",
"274 208 OFFCURVE",
"276 225 CURVE SMOOTH",
"297 407 OFFCURVE",
"314 482 OFFCURVE",
"322 507 CURVE SMOOTH",
"343 574 OFFCURVE",
"365 623 OFFCURVE",
"426 623 CURVE SMOOTH",
"487 623 OFFCURVE",
"514 574 OFFCURVE",
"514 514 CURVE SMOOTH",
"514 442 OFFCURVE",
"450 290 OFFCURVE",
"366 299 CURVE SMOOTH",
"326 304 OFFCURVE",
"331 327 OFFCURVE",
"322 330 CURVE SMOOTH",
"311 334 OFFCURVE",
"298 310 OFFCURVE",
"316 300 CURVE SMOOTH",
"327 294 OFFCURVE",
"357 236 OFFCURVE",
"375 191 CURVE SMOOTH",
"409 106 OFFCURVE",
"506 -62 OFFCURVE",
"615 -64 CURVE SMOOTH",
"640 -64 OFFCURVE",
"665 -56 OFFCURVE",
"681 -44 CURVE SMOOTH",
"690 -38 OFFCURVE",
"696 -26 OFFCURVE",
"719 -36 CURVE SMOOTH",
"738 -45 OFFCURVE",
"742 -28 OFFCURVE",
"731 -24 CURVE SMOOTH"
);
}
);
};
layerId = "404CF7D8-B1FB-4D32-849A-66F5CDD10145";
paths = (
{
closed = 1;
nodes = (
"640 -64 OFFCURVE",
"665 -56 OFFCURVE",
"681 -44 CURVE",
"688 -40 OFFCURVE",
"692 -32 OFFCURVE",
"703 -32 CURVE SMOOTH",
"708 -32 OFFCURVE",
"713 -33 OFFCURVE",
"719 -36 CURVE SMOOTH",
"723 -38 OFFCURVE",
"726 -39 OFFCURVE",
"729 -39 CURVE SMOOTH",
"734 -39 OFFCURVE",
"737 -35 OFFCURVE",
"737 -32 CURVE SMOOTH",
"737 -29 OFFCURVE",
"735 -25 OFFCURVE",
"731 -24 CURVE SMOOTH",
"720 -20 OFFCURVE",
"691 -9 OFFCURVE",
"670 3 CURVE SMOOTH",
"622 31 OFFCURVE",
"402 219 OFFCURVE",
"350 285 CURVE",
"354 284 OFFCURVE",
"359 284 OFFCURVE",
"365 284 CURVE SMOOTH",
"384 284 OFFCURVE",
"411 289 OFFCURVE",
"448 301 CURVE SMOOTH",
"535 330 OFFCURVE",
"627 410 OFFCURVE",
"639 492 CURVE SMOOTH",
"640 500 OFFCURVE",
"641 508 OFFCURVE",
"641 516 CURVE SMOOTH",
"641 606 OFFCURVE",
"557 649 OFFCURVE",
"473 649 CURVE SMOOTH",
"411 649 OFFCURVE",
"342 630 OFFCURVE",
"302 630 CURVE SMOOTH",
"284 630 LINE SMOOTH",
"219 630 OFFCURVE",
"133 634 OFFCURVE",
"76 634 CURVE SMOOTH",
"69 634 OFFCURVE",
"61 626 OFFCURVE",
"61 621 CURVE SMOOTH",
"61 619 OFFCURVE",
"63 617 OFFCURVE",
"67 617 CURVE SMOOTH",
"82 618 OFFCURVE",
"159 616 OFFCURVE",
"180 613 CURVE SMOOTH",
"198 610 OFFCURVE",
"218 587 OFFCURVE",
"215 561 CURVE SMOOTH",
"201 412 OFFCURVE",
"185 280 OFFCURVE",
"153 132 CURVE SMOOTH",
"130 29 OFFCURVE",
"128 16 OFFCURVE",
"55 16 CURVE SMOOTH",
"35 16 OFFCURVE",
"9 17 OFFCURVE",
"-23 17 CURVE",
"-29 18 OFFCURVE",
"-37 8 OFFCURVE",
"-37 3 CURVE SMOOTH",
"-37 1 OFFCURVE",
"-36 0 OFFCURVE",
"-34 0 CURVE SMOOTH",
"-33 0 LINE SMOOTH",
"33 0 OFFCURVE",
"115 3 OFFCURVE",
"146 3 CURVE SMOOTH",
"191 3 OFFCURVE",
"251 1 OFFCURVE",
"415 -2 CURVE",
"423 -4 OFFCURVE",
"431 9 OFFCURVE",
"431 14 CURVE SMOOTH",
"431 16 OFFCURVE",
"430 17 OFFCURVE",
"428 17 CURVE SMOOTH",
"416 16 OFFCURVE",
"401 15 OFFCURVE",
"386 15 CURVE SMOOTH",
"365 15 OFFCURVE",
"344 16 OFFCURVE",
"329 18 CURVE SMOOTH",
"300 22 OFFCURVE",
"278 44 OFFCURVE",
"273 75 CURVE SMOOTH",
"271 89 OFFCURVE",
"270 106 OFFCURVE",
"270 125 CURVE SMOOTH",
"270 167 OFFCURVE",
"275 213 OFFCURVE",
"276 225 CURVE SMOOTH",
"297 407 OFFCURVE",
"314 482 OFFCURVE",
"322 507 CURVE SMOOTH",
"343 574 OFFCURVE",
"365 623 OFFCURVE",
"426 623 CURVE SMOOTH",
"487 623 OFFCURVE",
"514 574 OFFCURVE",
"514 514 CURVE SMOOTH",
"514 442 OFFCURVE",
"450 290 OFFCURVE",
"366 299 CURVE SMOOTH",
"322 304 OFFCURVE",
"332 331 OFFCURVE",
"319 331 CURVE SMOOTH",
"313 331 OFFCURVE",
"307 323 OFFCURVE",
"307 314 CURVE SMOOTH",
"307 309 OFFCURVE",
"310 304 OFFCURVE",
"316 300 CURVE SMOOTH",
"327 294 OFFCURVE",
"357 236 OFFCURVE",
"375 191 CURVE SMOOTH",
"409 106 OFFCURVE",
"506 -62 OFFCURVE",
"615 -64 CURVE SMOOTH"
);
}
);
width = 678;
}
);
leftKerningGroup = H;
note = R;
rightKerningGroup = R;
unicode = 0052;
},
{
color = 3;
glyphname = S;
lastChange = "2022-03-24 14:09:46 +0000";
layers = (
{
anchors = (
{
name = bottom;
position = "{288, 0}";
},
{
name = cedilla;
position = "{262, 0}";
},
{
name = top;
position = "{438, 640}";
}
);
background = {
paths = (
{
closed = 1;
nodes = (
"602 336 OFFCURVE",
"563 374 OFFCURVE",
"453 374 CURVE SMOOTH",
"417 374 OFFCURVE",
"252 361 OFFCURVE",
"252 467 CURVE SMOOTH",
"252 528 OFFCURVE",
"287 567 OFFCURVE",
"330 588 CURVE SMOOTH",
"430 638 OFFCURVE",
"556 557 OFFCURVE",
"524 437 CURVE",
"516 420 OFFCURVE",
"525 404 OFFCURVE",
"535 428 CURVE SMOOTH",
"557 483 OFFCURVE",
"565 494 OFFCURVE",
"589 526 CURVE SMOOTH",
"611 556 OFFCURVE",
"614 571 OFFCURVE",
"589 609 CURVE SMOOTH",
"512 722 OFFCURVE",
"119 607 OFFCURVE",
"119 425 CURVE SMOOTH",
"119 367 OFFCURVE",
"185 312 OFFCURVE",
"284 312 CURVE SMOOTH",
"368 312 OFFCURVE",
"485 298 OFFCURVE",
"485 207 CURVE SMOOTH",
"485 0 OFFCURVE",
"154 -27 OFFCURVE",
"158 214 CURVE SMOOTH",
"158 232 OFFCURVE",
"165 263 OFFCURVE",
"160 266 CURVE SMOOTH",
"147 273 OFFCURVE",
"147 249 OFFCURVE",
"142 233 CURVE SMOOTH",
"121 159 OFFCURVE",
"95 135 OFFCURVE",
"70 99 CURVE SMOOTH",
"51 72 OFFCURVE",
"90 32 OFFCURVE",
"105 14 CURVE SMOOTH",
"124 -9 OFFCURVE",
"157 -17 OFFCURVE",
"192 -17 CURVE SMOOTH",
"400 -17 OFFCURVE",
"602 144 OFFCURVE",
"602 286 CURVE SMOOTH"
);
}
);
};
layerId = "404CF7D8-B1FB-4D32-849A-66F5CDD10145";
paths = (
{
closed = 1;
nodes = (
"400 -17 OFFCURVE",
"602 144 OFFCURVE",
"602 286 CURVE SMOOTH",
"602 336 OFFCURVE",
"563 374 OFFCURVE",
"453 374 CURVE SMOOTH",
"446 374 OFFCURVE",
"434 373 OFFCURVE",
"419 373 CURVE SMOOTH",
"358 373 OFFCURVE",
"252 382 OFFCURVE",
"252 467 CURVE SMOOTH",
"252 528 OFFCURVE",
"287 567 OFFCURVE",
"330 588 CURVE SMOOTH",
"351 598 OFFCURVE",
"372 603 OFFCURVE",
"393 603 CURVE SMOOTH",
"464 603 OFFCURVE",
"529 550 OFFCURVE",
"529 474 CURVE SMOOTH",
"529 462 OFFCURVE",
"527 450 OFFCURVE",
"524 437 CURVE",
"522 432 OFFCURVE",
"521 428 OFFCURVE",
"521 424 CURVE SMOOTH",
"521 419 OFFCURVE",
"523 416 OFFCURVE",
"525 416 CURVE SMOOTH",
"528 416 OFFCURVE",
"531 419 OFFCURVE",
"535 428 CURVE SMOOTH",
"557 483 OFFCURVE",
"565 494 OFFCURVE",
"589 526 CURVE SMOOTH",
"600 541 OFFCURVE",
"607 553 OFFCURVE",
"607 566 CURVE SMOOTH",
"607 578 OFFCURVE",
"601 591 OFFCURVE",
"589 609 CURVE SMOOTH",
"568 640 OFFCURVE",
"523 654 OFFCURVE",
"469 654 CURVE SMOOTH",
"326 654 OFFCURVE",
"119 557 OFFCURVE",
"119 425 CURVE SMOOTH",
"119 367 OFFCURVE",
"185 312 OFFCURVE",
"284 312 CURVE SMOOTH",
"368 312 OFFCURVE",
"485 298 OFFCURVE",
"485 207 CURVE SMOOTH",
"485 101 OFFCURVE",
"399 42 OFFCURVE",
"315 42 CURVE SMOOTH",
"235 42 OFFCURVE",
"158 95 OFFCURVE",
"158 210 CURVE SMOOTH",
"158 222 OFFCURVE",
"162 245 OFFCURVE",
"162 258 CURVE SMOOTH",
"162 262 OFFCURVE",
"161 265 OFFCURVE",
"160 266 CURVE",
"147 273 OFFCURVE",
"147 249 OFFCURVE",
"142 233 CURVE SMOOTH",
"121 159 OFFCURVE",
"95 135 OFFCURVE",
"70 99 CURVE SMOOTH",
"66 94 OFFCURVE",
"65 88 OFFCURVE",
"65 83 CURVE SMOOTH",
"65 58 OFFCURVE",
"93 29 OFFCURVE",
"105 14 CURVE SMOOTH",
"124 -9 OFFCURVE",
"157 -17 OFFCURVE",
"192 -17 CURVE SMOOTH"
);
}
);
width = 604;
}
);
leftKerningGroup = S;
note = S;
rightKerningGroup = S;
unicode = 0053;
},
{
color = 6;
glyphname = Germandbls;
lastChange = "2022-03-23 16:42:11 +0000";
layers = (
{
background = {
paths = (
{
closed = 1;
nodes = (
"133 257 OFFCURVE",
"74 -154 OFFCURVE",
"20 -187 CURVE SMOOTH",
"7 -195 OFFCURVE",
"11 -202 OFFCURVE",
"25 -198 CURVE SMOOTH",
"35 -195 OFFCURVE",
"56 -189 OFFCURVE",
"62 -187 CURVE SMOOTH",
"126 -169 OFFCURVE",
"158 -149 OFFCURVE",
"164 -113 CURVE SMOOTH",
"197 98 OFFCURVE",
"222 320 OFFCURVE",
"266 529 CURVE SMOOTH",
"293 659 OFFCURVE",
"443 637 OFFCURVE",
"439 516 CURVE SMOOTH",
"437 470 OFFCURVE",
"383 420 OFFCURVE",
"337 382 CURVE SMOOTH",
"315 365 OFFCURVE",
"300 337 OFFCURVE",
"335 316 CURVE SMOOTH",
"371 295 OFFCURVE",
"439 264 OFFCURVE",
"459 225 CURVE SMOOTH",
"492 163 OFFCURVE",
"484 79 OFFCURVE",
"421 42 CURVE SMOOTH",
"357 4 OFFCURVE",
"289 42 OFFCURVE",
"249 88 CURVE SMOOTH",
"234 106 OFFCURVE",
"226 36 OFFCURVE",
"248 18 CURVE SMOOTH",
"271 0 OFFCURVE",
"299 -5 OFFCURVE",
"326 -7 CURVE SMOOTH",
"394 -13 OFFCURVE",
"429 23 OFFCURVE",
"452 40 CURVE SMOOTH",
"528 95 LINE SMOOTH",
"608 153 OFFCURVE",
"594 242 OFFCURVE",
"520 301 CURVE SMOOTH",
"492 324 OFFCURVE",
"428 341 OFFCURVE",
"393 351 CURVE SMOOTH",
"359 361 OFFCURVE",
"364 384 OFFCURVE",
"407 404 CURVE SMOOTH",
"472 435 OFFCURVE",
"544 485 OFFCURVE",
"544 543 CURVE SMOOTH",
"544 640 OFFCURVE",
"432 642 OFFCURVE",
"339 636 CURVE SMOOTH",
"196 626 OFFCURVE",
"171 570 OFFCURVE",
"156 458 CURVE",
"153 434 OFFCURVE",
"151 410 OFFCURVE",
"138 303 CURVE"
);
}
);
};
layerId = "404CF7D8-B1FB-4D32-849A-66F5CDD10145";
paths = (
{
closed = 1;
nodes = (
"20 -199 OFFCURVE",
"22 -199 OFFCURVE",
"25 -198 CURVE SMOOTH",
"62 -187 LINE SMOOTH",
"126 -169 OFFCURVE",
"158 -149 OFFCURVE",
"164 -113 CURVE SMOOTH",
"197 98 OFFCURVE",
"222 320 OFFCURVE",
"266 529 CURVE SMOOTH",
"279 589 OFFCURVE",
"318 617 OFFCURVE",
"356 617 CURVE SMOOTH",
"398 617 OFFCURVE",
"439 583 OFFCURVE",
"439 521 CURVE SMOOTH",
"439 473 OFFCURVE",
"384 421 OFFCURVE",
"337 382 CURVE SMOOTH",
"324 372 OFFCURVE",
"314 359 OFFCURVE",
"314 345 CURVE SMOOTH",
"314 335 OFFCURVE",
"320 325 OFFCURVE",
"335 316 CURVE SMOOTH",
"371 295 OFFCURVE",
"439 264 OFFCURVE",
"459 225 CURVE SMOOTH",
"471 202 OFFCURVE",
"478 175 OFFCURVE",
"478 149 CURVE SMOOTH",
"478 106 OFFCURVE",
"460 65 OFFCURVE",
"421 42 CURVE SMOOTH",
"403 31 OFFCURVE",
"384 26 OFFCURVE",
"366 26 CURVE SMOOTH",
"320 26 OFFCURVE",
"278 55 OFFCURVE",
"249 88 CURVE SMOOTH",
"241 98 OFFCURVE",
"234 81 OFFCURVE",
"234 60 CURVE SMOOTH",
"234 44 OFFCURVE",
"238 26 OFFCURVE",
"248 18 CURVE SMOOTH",
"275 -3 OFFCURVE",
"310 -8 OFFCURVE",
"341 -8 CURVE SMOOTH",
"399 -8 OFFCURVE",
"431 24 OFFCURVE",
"452 40 CURVE SMOOTH",
"528 95 LINE SMOOTH",
"565 122 OFFCURVE",
"582 156 OFFCURVE",
"582 190 CURVE SMOOTH",
"582 229 OFFCURVE",
"560 269 OFFCURVE",
"520 301 CURVE SMOOTH",
"492 324 OFFCURVE",
"428 341 OFFCURVE",
"393 351 CURVE SMOOTH",
"378 355 OFFCURVE",
"371 362 OFFCURVE",
"371 370 CURVE SMOOTH",
"371 381 OFFCURVE",
"383 393 OFFCURVE",
"407 404 CURVE SMOOTH",
"472 435 OFFCURVE",
"544 485 OFFCURVE",
"544 543 CURVE SMOOTH",
"544 622 OFFCURVE",
"470 638 OFFCURVE",
"392 638 CURVE SMOOTH",
"374 638 OFFCURVE",
"356 637 OFFCURVE",
"339 636 CURVE SMOOTH",
"196 626 OFFCURVE",
"171 570 OFFCURVE",
"156 458 CURVE SMOOTH",
"153 434 OFFCURVE",
"151 410 OFFCURVE",
"138 303 CURVE SMOOTH",
"133 257 OFFCURVE",
"74 -154 OFFCURVE",
"20 -187 CURVE SMOOTH",
"15 -190 OFFCURVE",
"12 -193 OFFCURVE",
"12 -196 CURVE SMOOTH",
"12 -198 OFFCURVE",
"14 -199 OFFCURVE",
"18 -199 CURVE SMOOTH"
);
}
);
width = 602;
}
);
leftKerningGroup = Germ;
rightKerningGroup = B;
unicode = 1E9E;
},
{
glyphname = Schwa;
lastChange = "2022-03-23 16:42:22 +0000";
layers = (
{
background = {
paths = (
{
closed = 1;
nodes = (
"55 439 OFFCURVE",
"58 436 OFFCURVE",
"61 436 CURVE SMOOTH",
"68 436 OFFCURVE",
"73 442 OFFCURVE",
"76 446 CURVE SMOOTH",
"86 458 OFFCURVE",
"95 469 OFFCURVE",
"105 479 CURVE SMOOTH",
"161 531 OFFCURVE",
"240 557 OFFCURVE",
"316 557 CURVE SMOOTH",
"457 557 OFFCURVE",
"582 473 OFFCURVE",
"582 322 CURVE SMOOTH",
"582 151 OFFCURVE",
"458 31 OFFCURVE",
"292 34 CURVE SMOOTH",
"208 34 OFFCURVE",
"163 86 OFFCURVE",
"163 144 CURVE SMOOTH",
"165 297 OFFCURVE",
"441 350 OFFCURVE",
"612 294 CURVE SMOOTH",
"616 293 OFFCURVE",
"625 351 OFFCURVE",
"621 351 CURVE SMOOTH",
"534 351 OFFCURVE",
"313 346 OFFCURVE",
"242 319 CURVE SMOOTH",
"98 265 OFFCURVE",
"56 199 OFFCURVE",
"56 103 CURVE SMOOTH",
"56 27 OFFCURVE",
"119 -19 OFFCURVE",
"242 -19 CURVE SMOOTH",
"410 -19 OFFCURVE",
"665 152 OFFCURVE",
"665 384 CURVE SMOOTH",
"665 422 OFFCURVE",
"656 461 OFFCURVE",
"640 495 CURVE SMOOTH",
"588 603 OFFCURVE",
"477 647 OFFCURVE",
"363 647 CURVE SMOOTH",
"319 647 OFFCURVE",
"272 643 OFFCURVE",
"230 631 CURVE SMOOTH",
"188 620 OFFCURVE",
"168 591 OFFCURVE",
"146 556 CURVE SMOOTH",
"124 520 OFFCURVE",
"98 488 OFFCURVE",
"67 459 CURVE SMOOTH",
"62 455 OFFCURVE",
"55 449 OFFCURVE",
"55 442 CURVE SMOOTH"
);
}
);
};
layerId = "404CF7D8-B1FB-4D32-849A-66F5CDD10145";
paths = (
{
closed = 1;
nodes = (
"410 -19 OFFCURVE",
"665 152 OFFCURVE",
"665 384 CURVE SMOOTH",
"665 422 OFFCURVE",
"656 461 OFFCURVE",
"640 495 CURVE SMOOTH",
"588 603 OFFCURVE",
"477 647 OFFCURVE",
"363 647 CURVE SMOOTH",
"319 647 OFFCURVE",
"272 643 OFFCURVE",
"230 631 CURVE SMOOTH",
"188 620 OFFCURVE",
"168 591 OFFCURVE",
"146 556 CURVE SMOOTH",
"124 520 OFFCURVE",
"98 488 OFFCURVE",
"67 459 CURVE SMOOTH",
"62 455 OFFCURVE",
"55 449 OFFCURVE",
"55 442 CURVE SMOOTH",
"55 439 OFFCURVE",
"58 436 OFFCURVE",
"61 436 CURVE SMOOTH",
"68 436 OFFCURVE",
"73 442 OFFCURVE",
"76 446 CURVE SMOOTH",
"86 458 OFFCURVE",
"95 469 OFFCURVE",
"105 479 CURVE SMOOTH",
"161 531 OFFCURVE",
"240 557 OFFCURVE",
"316 557 CURVE SMOOTH",
"457 557 OFFCURVE",
"582 473 OFFCURVE",
"582 322 CURVE SMOOTH",
"582 151 OFFCURVE",
"458 31 OFFCURVE",
"292 34 CURVE SMOOTH",
"208 34 OFFCURVE",
"163 86 OFFCURVE",
"163 144 CURVE SMOOTH",
"164 257 OFFCURVE",
"316 316 OFFCURVE",
"464 316 CURVE SMOOTH",
"516 316 OFFCURVE",
"568 309 OFFCURVE",
"612 294 CURVE SMOOTH",
"616 293 OFFCURVE",
"625 351 OFFCURVE",
"621 351 CURVE SMOOTH",
"534 351 OFFCURVE",
"313 346 OFFCURVE",
"242 319 CURVE SMOOTH",
"98 265 OFFCURVE",
"56 199 OFFCURVE",
"56 103 CURVE SMOOTH",
"56 27 OFFCURVE",
"119 -19 OFFCURVE",
"242 -19 CURVE SMOOTH"
);
}
);
width = 670;
}
);
leftKerningGroup = Schwa;
rightKerningGroup = O;
unicode = 018F;
},
{
color = 3;
glyphname = T;
lastChange = "2022-03-24 15:35:21 +0000";
layers = (
{
anchors = (
{
name = bottom;
position = "{295, 0}";
},
{
name = cedilla;
position = "{294, 0}";
},
{
name = center;
position = "{347, 350}";
},
{
name = top;
position = "{395, 640}";
}
);
background = {
paths = (
{
closed = 1;
nodes = (
"652 622 OFFCURVE",
"642 639 OFFCURVE",
"597 637 CURVE SMOOTH",
"502 632 OFFCURVE",
"461 628 OFFCURVE",
"367 629 CURVE SMOOTH",
"291 630 OFFCURVE",
"215 636 OFFCURVE",
"168 639 CURVE SMOOTH",
"113 643 OFFCURVE",
"109 590 OFFCURVE",
"91 531 CURVE SMOOTH",
"81 498 OFFCURVE",
"75 468 OFFCURVE",
"70 452 CURVE SMOOTH",
"68 445 OFFCURVE",
"79 437 OFFCURVE",
"81 444 CURVE SMOOTH",
"112 534 OFFCURVE",
"158 590 OFFCURVE",
"239 590 CURVE SMOOTH",
"312 590 OFFCURVE",
"324 577 OFFCURVE",
"316 508 CURVE SMOOTH",
"310 454 OFFCURVE",
"301 382 OFFCURVE",
"290 312 CURVE SMOOTH",
"282 256 OFFCURVE",
"269 178 OFFCURVE",
"260 133 CURVE SMOOTH",
"235 13 OFFCURVE",
"238 15 OFFCURVE",
"85 17 CURVE",
"78 18 OFFCURVE",
"65 -2 OFFCURVE",
"76 0 CURVE",
"142 -1 OFFCURVE",
"224 2 OFFCURVE",
"254 3 CURVE SMOOTH",
"321 6 OFFCURVE",
"477 0 OFFCURVE",
"544 0 CURVE SMOOTH",
"554 0 OFFCURVE",
"566 19 OFFCURVE",
"553 18 CURVE SMOOTH",
"522 17 OFFCURVE",
"417 19 OFFCURVE",
"396 23 CURVE SMOOTH",
"358 29 OFFCURVE",
"363 82 OFFCURVE",
"366 110 CURVE",
"366 110 OFFCURVE",
"371 202 OFFCURVE",
"386 304 CURVE SMOOTH",
"401 402 OFFCURVE",
"417 512 OFFCURVE",
"417 512 CURVE",
"425 565 OFFCURVE",
"434 580 OFFCURVE",
"533 581 CURVE SMOOTH",
"591 581 OFFCURVE",
"630 550 OFFCURVE",
"623 454 CURVE SMOOTH",
"622 437 OFFCURVE",
"637 436 OFFCURVE",
"638 445 CURVE SMOOTH",
"641 499 OFFCURVE",
"640 524 OFFCURVE",
"646 572 CURVE SMOOTH"
);
}
);
};
layerId = "404CF7D8-B1FB-4D32-849A-66F5CDD10145";
paths = (
{
closed = 1;
nodes = (
"76 0 LINE SMOOTH",
"142 0 OFFCURVE",
"224 2 OFFCURVE",
"254 3 CURVE SMOOTH",
"267 4 OFFCURVE",
"284 4 OFFCURVE",
"303 4 CURVE SMOOTH",
"380 4 OFFCURVE",
"490 0 OFFCURVE",
"544 0 CURVE SMOOTH",
"551 0 OFFCURVE",
"559 9 OFFCURVE",
"559 14 CURVE SMOOTH",
"559 16 OFFCURVE",
"557 18 OFFCURVE",
"554 18 CURVE SMOOTH",
"553 18 LINE SMOOTH",
"522 18 OFFCURVE",
"417 19 OFFCURVE",
"396 23 CURVE SMOOTH",
"370 27 OFFCURVE",
"364 54 OFFCURVE",
"364 79 CURVE SMOOTH",
"364 90 OFFCURVE",
"365 101 OFFCURVE",
"366 110 CURVE",
"366 110 OFFCURVE",
"371 202 OFFCURVE",
"386 304 CURVE SMOOTH",
"401 402 OFFCURVE",
"417 512 OFFCURVE",
"417 512 CURVE",
"425 565 OFFCURVE",
"434 580 OFFCURVE",
"533 581 CURVE SMOOTH",
"586 581 OFFCURVE",
"624 555 OFFCURVE",
"624 475 CURVE SMOOTH",
"624 468 OFFCURVE",
"623 459 OFFCURVE",
"623 452 CURVE SMOOTH",
"623 443 OFFCURVE",
"628 439 OFFCURVE",
"632 439 CURVE SMOOTH",
"635 439 OFFCURVE",
"638 441 OFFCURVE",
"638 445 CURVE SMOOTH",
"641 499 OFFCURVE",
"640 524 OFFCURVE",
"646 572 CURVE SMOOTH",
"647 581 OFFCURVE",
"648 588 OFFCURVE",
"648 595 CURVE SMOOTH",
"648 627 OFFCURVE",
"634 639 OFFCURVE",
"597 637 CURVE SMOOTH",
"512 633 OFFCURVE",
"470 629 OFFCURVE",
"395 629 CURVE SMOOTH",
"310 629 OFFCURVE",
"221 636 OFFCURVE",
"168 639 CURVE SMOOTH",
"113 643 OFFCURVE",
"109 590 OFFCURVE",
"91 531 CURVE SMOOTH",
"81 498 OFFCURVE",
"75 468 OFFCURVE",
"70 452 CURVE SMOOTH",
"69 447 OFFCURVE",
"74 441 OFFCURVE",
"78 441 CURVE SMOOTH",
"79 441 OFFCURVE",
"80 442 OFFCURVE",
"81 444 CURVE SMOOTH",
"112 534 OFFCURVE",
"158 590 OFFCURVE",
"239 590 CURVE SMOOTH",
"300 590 OFFCURVE",
"318 581 OFFCURVE",
"318 539 CURVE SMOOTH",
"318 530 OFFCURVE",
"317 520 OFFCURVE",
"316 508 CURVE SMOOTH",
"310 454 OFFCURVE",
"301 382 OFFCURVE",
"290 312 CURVE SMOOTH",
"282 256 OFFCURVE",
"269 178 OFFCURVE",
"260 133 CURVE SMOOTH",
"238 28 OFFCURVE",
"238 16 OFFCURVE",
"136 16 CURVE SMOOTH",
"122 16 OFFCURVE",
"105 17 OFFCURVE",
"85 17 CURVE",
"80 18 OFFCURVE",
"72 8 OFFCURVE",
"72 3 CURVE SMOOTH",
"72 1 OFFCURVE",
"73 0 OFFCURVE",
"75 0 CURVE SMOOTH"
);
}
);
width = 598;
}
);
leftKerningGroup = T;
note = T;
rightKerningGroup = T;
unicode = 0054;
},
{
color = 3;
glyphname = U;
lastChange = "2022-03-24 15:36:29 +0000";
layers = (
{
anchors = (
{
name = bottom;
position = "{345, 0}";
},
{
name = horn;
position = "{691, 633}";
},
{
name = ogonek;
position = "{494, 0}";
},
{
name = top;
position = "{455, 640}";
}
);
background = {
paths = (
{
closed = 1;
nodes = (
"740 634 OFFCURVE",
"658 632 OFFCURVE",
"628 632 CURVE SMOOTH",
"562 631 OFFCURVE",
"563 632 OFFCURVE",
"497 635 CURVE SMOOTH",
"487 636 OFFCURVE",
"475 619 OFFCURVE",
"488 619 CURVE SMOOTH",
"503 620 OFFCURVE",
"513 621 OFFCURVE",
"534 618 CURVE SMOOTH",
"546 615 OFFCURVE",
"567 603 OFFCURVE",
"564 577 CURVE SMOOTH",
"551 448 OFFCURVE",
"529 261 OFFCURVE",
"505 130 CURVE SMOOTH",
"492 56 OFFCURVE",
"432 19 OFFCURVE",
"374 17 CURVE",
"370 16 OFFCURVE",
"334 17 OFFCURVE",
"329 17 CURVE SMOOTH",
"265 20 OFFCURVE",
"206 65 OFFCURVE",
"215 148 CURVE SMOOTH",
"225 239 OFFCURVE",
"244 417 OFFCURVE",
"270 529 CURVE SMOOTH",
"289 613 OFFCURVE",
"306 621 OFFCURVE",
"387 618 CURVE",
"399 614 OFFCURVE",
"398 636 OFFCURVE",
"387 635 CURVE SMOOTH",
"343 632 OFFCURVE",
"294 632 OFFCURVE",
"272 631 CURVE SMOOTH",
"205 628 OFFCURVE",
"97 634 OFFCURVE",
"29 634 CURVE SMOOTH",
"19 634 OFFCURVE",
"7 617 OFFCURVE",
"20 617 CURVE SMOOTH",
"35 618 OFFCURVE",
"112 616 OFFCURVE",
"133 613 CURVE SMOOTH",
"152 610 OFFCURVE",
"170 587 OFFCURVE",
"168 561 CURVE SMOOTH",
"156 440 OFFCURVE",
"140 319 OFFCURVE",
"121 198 CURVE SMOOTH",
"97 38 OFFCURVE",
"211 -14 OFFCURVE",
"327 -16 CURVE SMOOTH",
"331 -16 OFFCURVE",
"366 -16 OFFCURVE",
"370 -16 CURVE SMOOTH",
"500 -14 OFFCURVE",
"588 16 OFFCURVE",
"612 148 CURVE SMOOTH",
"620 194 OFFCURVE",
"621 242 OFFCURVE",
"626 284 CURVE SMOOTH",
"636 364 OFFCURVE",
"650 452 OFFCURVE",
"659 501 CURVE SMOOTH",
"679 605 OFFCURVE",
"704 618 OFFCURVE",
"797 616 CURVE",
"804 615 OFFCURVE",
"817 635 OFFCURVE",
"807 634 CURVE"
);
}
);
};
layerId = "404CF7D8-B1FB-4D32-849A-66F5CDD10145";
paths = (
{
closed = 1;
nodes = (
"370 -16 LINE SMOOTH",
"500 -16 OFFCURVE",
"588 16 OFFCURVE",
"612 148 CURVE SMOOTH",
"620 194 OFFCURVE",
"621 242 OFFCURVE",
"626 284 CURVE SMOOTH",
"636 364 OFFCURVE",
"650 452 OFFCURVE",
"659 501 CURVE SMOOTH",
"679 605 OFFCURVE",
"704 618 OFFCURVE",
"797 616 CURVE",
"802 615 OFFCURVE",
"811 626 OFFCURVE",
"811 631 CURVE SMOOTH",
"811 633 OFFCURVE",
"810 634 OFFCURVE",
"807 634 CURVE SMOOTH",
"740 634 OFFCURVE",
"658 632 OFFCURVE",
"628 632 CURVE SMOOTH",
"589 632 LINE SMOOTH",
"558 632 OFFCURVE",
"547 633 OFFCURVE",
"497 635 CURVE SMOOTH",
"490 636 OFFCURVE",
"482 628 OFFCURVE",
"482 623 CURVE SMOOTH",
"482 621 OFFCURVE",
"484 619 OFFCURVE",
"488 619 CURVE SMOOTH",
"496 620 OFFCURVE",
"502 620 OFFCURVE",
"509 620 CURVE SMOOTH",
"516 620 OFFCURVE",
"524 620 OFFCURVE",
"534 618 CURVE SMOOTH",
"546 615 OFFCURVE",
"567 603 OFFCURVE",
"564 577 CURVE SMOOTH",
"551 448 OFFCURVE",
"529 261 OFFCURVE",
"505 130 CURVE SMOOTH",
"492 56 OFFCURVE",
"432 19 OFFCURVE",
"374 17 CURVE",
"370 16 OFFCURVE",
"334 17 OFFCURVE",
"329 17 CURVE SMOOTH",
"269 20 OFFCURVE",
"214 59 OFFCURVE",
"214 132 CURVE SMOOTH",
"214 137 OFFCURVE",
"214 142 OFFCURVE",
"215 148 CURVE SMOOTH",
"225 239 OFFCURVE",
"244 417 OFFCURVE",
"270 529 CURVE SMOOTH",
"289 613 OFFCURVE",
"306 621 OFFCURVE",
"387 618 CURVE",
"393 616 OFFCURVE",
"396 620 OFFCURVE",
"396 625 CURVE SMOOTH",
"396 630 OFFCURVE",
"393 635 OFFCURVE",
"388 635 CURVE SMOOTH",
"387 635 LINE SMOOTH",
"343 635 OFFCURVE",
"294 632 OFFCURVE",
"272 631 CURVE SMOOTH",
"259 630 OFFCURVE",
"244 630 OFFCURVE",
"228 630 CURVE SMOOTH",
"163 630 OFFCURVE",
"83 634 OFFCURVE",
"29 634 CURVE SMOOTH",
"22 634 OFFCURVE",
"14 626 OFFCURVE",
"14 621 CURVE SMOOTH",
"14 619 OFFCURVE",
"16 617 OFFCURVE",
"20 617 CURVE SMOOTH",
"35 618 OFFCURVE",
"112 616 OFFCURVE",
"133 613 CURVE SMOOTH",
"152 610 OFFCURVE",
"170 587 OFFCURVE",
"168 561 CURVE SMOOTH",
"156 440 OFFCURVE",
"140 319 OFFCURVE",
"121 198 CURVE SMOOTH",
"119 183 OFFCURVE",
"118 170 OFFCURVE",
"118 157 CURVE SMOOTH",
"118 29 OFFCURVE",
"222 -16 OFFCURVE",
"327 -16 CURVE SMOOTH"
);
}
);
width = 749;
}
);
leftKerningGroup = U;
note = U;
rightKerningGroup = U;
unicode = 0055;
},
{
color = 3;
glyphname = Uhorn;
lastChange = "2022-03-23 16:44:21 +0000";
layers = (
{
anchors = (
{
name = bottom;
position = "{345, 0}";
},
{
name = top;
position = "{455, 640}";
}
);
background = {
paths = (
{
closed = 1;
nodes = (
"370 -16 LINE SMOOTH",
"500 -16 OFFCURVE",
"588 16 OFFCURVE",
"612 148 CURVE SMOOTH",
"620 194 OFFCURVE",
"621 242 OFFCURVE",
"626 284 CURVE SMOOTH",
"636 364 OFFCURVE",
"650 452 OFFCURVE",
"659 501 CURVE SMOOTH",
"672 569 OFFCURVE",
"687 598 OFFCURVE",
"722 610 CURVE",
"735 608 OFFCURVE",
"747 608 OFFCURVE",
"758 608 CURVE SMOOTH",
"797 608 OFFCURVE",
"827 618 OFFCURVE",
"852 641 CURVE SMOOTH",
"889 675 OFFCURVE",
"908 722 OFFCURVE",
"908 761 CURVE SMOOTH",
"908 775 OFFCURVE",
"872 790 OFFCURVE",
"833 790 CURVE",
"833 761 OFFCURVE",
"822 707 OFFCURVE",
"806 683 CURVE SMOOTH",
"795 666 OFFCURVE",
"764 634 OFFCURVE",
"732 633 CURVE SMOOTH",
"687 632 OFFCURVE",
"662 631 OFFCURVE",
"636 631 CURVE SMOOTH",
"604 631 OFFCURVE",
"571 632 OFFCURVE",
"497 635 CURVE SMOOTH",
"490 635 OFFCURVE",
"482 627 OFFCURVE",
"482 623 CURVE SMOOTH",
"482 621 OFFCURVE",
"484 619 OFFCURVE",
"488 619 CURVE SMOOTH",
"496 620 OFFCURVE",
"502 620 OFFCURVE",
"509 620 CURVE SMOOTH",
"516 620 OFFCURVE",
"524 620 OFFCURVE",
"534 618 CURVE SMOOTH",
"546 615 OFFCURVE",
"567 603 OFFCURVE",
"564 577 CURVE SMOOTH",
"551 448 OFFCURVE",
"529 261 OFFCURVE",
"505 130 CURVE SMOOTH",
"492 56 OFFCURVE",
"432 19 OFFCURVE",
"374 17 CURVE",
"370 16 OFFCURVE",
"334 17 OFFCURVE",
"329 17 CURVE SMOOTH",
"269 20 OFFCURVE",
"214 59 OFFCURVE",
"214 132 CURVE SMOOTH",
"214 137 OFFCURVE",
"214 142 OFFCURVE",
"215 148 CURVE SMOOTH",
"225 239 OFFCURVE",
"244 417 OFFCURVE",
"270 529 CURVE SMOOTH",
"289 613 OFFCURVE",
"306 621 OFFCURVE",
"387 618 CURVE",
"393 616 OFFCURVE",
"396 620 OFFCURVE",
"396 625 CURVE SMOOTH",
"396 630 OFFCURVE",
"393 635 OFFCURVE",
"388 635 CURVE SMOOTH",
"387 635 LINE SMOOTH",
"343 632 OFFCURVE",
"294 632 OFFCURVE",
"272 631 CURVE SMOOTH",
"259 630 OFFCURVE",
"244 630 OFFCURVE",
"228 630 CURVE SMOOTH",
"163 630 OFFCURVE",
"83 634 OFFCURVE",
"29 634 CURVE SMOOTH",
"22 634 OFFCURVE",
"14 626 OFFCURVE",
"14 621 CURVE SMOOTH",
"14 619 OFFCURVE",
"16 617 OFFCURVE",
"20 617 CURVE SMOOTH",
"35 618 OFFCURVE",
"112 616 OFFCURVE",
"133 613 CURVE SMOOTH",
"152 610 OFFCURVE",
"170 587 OFFCURVE",
"168 561 CURVE SMOOTH",
"156 440 OFFCURVE",
"140 319 OFFCURVE",
"121 198 CURVE SMOOTH",
"119 183 OFFCURVE",
"118 170 OFFCURVE",
"118 157 CURVE SMOOTH",
"118 29 OFFCURVE",
"222 -16 OFFCURVE",
"327 -16 CURVE SMOOTH"
);
}
);
};
layerId = "404CF7D8-B1FB-4D32-849A-66F5CDD10145";
paths = (
{
closed = 1;
nodes = (
"370 -16 LINE SMOOTH",
"500 -16 OFFCURVE",
"588 16 OFFCURVE",
"612 148 CURVE SMOOTH",
"620 194 OFFCURVE",
"621 242 OFFCURVE",
"626 284 CURVE SMOOTH",
"636 364 OFFCURVE",
"650 452 OFFCURVE",
"659 501 CURVE SMOOTH",
"675 584 OFFCURVE",
"683 608 OFFCURVE",
"738 608 CURVE SMOOTH",
"767 608 OFFCURVE",
"797 618 OFFCURVE",
"822 641 CURVE SMOOTH",
"859 675 OFFCURVE",
"878 722 OFFCURVE",
"878 761 CURVE SMOOTH",
"878 775 OFFCURVE",
"842 790 OFFCURVE",
"803 790 CURVE",
"803 711 OFFCURVE",
"764 635 OFFCURVE",
"722 633 CURVE SMOOTH",
"687 632 OFFCURVE",
"662 631 OFFCURVE",
"636 631 CURVE SMOOTH",
"604 631 OFFCURVE",
"571 632 OFFCURVE",
"497 635 CURVE SMOOTH",
"490 635 OFFCURVE",
"482 627 OFFCURVE",
"482 623 CURVE SMOOTH",
"482 621 OFFCURVE",
"484 619 OFFCURVE",
"488 619 CURVE SMOOTH",
"496 620 OFFCURVE",
"502 620 OFFCURVE",
"509 620 CURVE SMOOTH",
"516 620 OFFCURVE",
"524 620 OFFCURVE",
"534 618 CURVE SMOOTH",
"546 615 OFFCURVE",
"567 603 OFFCURVE",
"564 577 CURVE SMOOTH",
"551 448 OFFCURVE",
"529 261 OFFCURVE",
"505 130 CURVE SMOOTH",
"492 56 OFFCURVE",
"432 19 OFFCURVE",
"374 17 CURVE",
"370 16 OFFCURVE",
"334 17 OFFCURVE",
"329 17 CURVE SMOOTH",
"269 20 OFFCURVE",
"214 59 OFFCURVE",
"214 132 CURVE SMOOTH",
"214 137 OFFCURVE",
"214 142 OFFCURVE",
"215 148 CURVE SMOOTH",
"225 239 OFFCURVE",
"244 417 OFFCURVE",
"270 529 CURVE SMOOTH",
"289 613 OFFCURVE",
"306 621 OFFCURVE",
"387 618 CURVE",
"393 616 OFFCURVE",
"396 620 OFFCURVE",
"396 625 CURVE SMOOTH",
"396 630 OFFCURVE",
"393 635 OFFCURVE",
"388 635 CURVE SMOOTH",
"387 635 LINE SMOOTH",
"343 635 OFFCURVE",
"294 632 OFFCURVE",
"272 631 CURVE SMOOTH",
"259 630 OFFCURVE",
"244 630 OFFCURVE",
"228 630 CURVE SMOOTH",
"163 630 OFFCURVE",
"83 634 OFFCURVE",
"29 634 CURVE SMOOTH",
"22 634 OFFCURVE",
"14 626 OFFCURVE",
"14 621 CURVE SMOOTH",
"14 619 OFFCURVE",
"16 617 OFFCURVE",
"20 617 CURVE SMOOTH",
"35 618 OFFCURVE",
"112 616 OFFCURVE",
"133 613 CURVE SMOOTH",
"152 610 OFFCURVE",
"170 587 OFFCURVE",
"168 561 CURVE SMOOTH",
"156 440 OFFCURVE",
"140 319 OFFCURVE",
"121 198 CURVE SMOOTH",
"119 183 OFFCURVE",
"118 170 OFFCURVE",
"118 157 CURVE SMOOTH",
"118 29 OFFCURVE",
"222 -16 OFFCURVE",
"327 -16 CURVE SMOOTH"
);
}
);
width = 749;
}
);
leftKerningGroup = U;
leftMetricsKey = U;
widthMetricsKey = U;
rightKerningGroup = U;
unicode = 01AF;
},
{
glyphname = V;
lastChange = "2022-03-24 15:37:00 +0000";
layers = (
{
background = {
paths = (
{
closed = 1;
nodes = (
"709 634 OFFCURVE",
"646 630 OFFCURVE",
"608 631 CURVE SMOOTH",
"578 631 OFFCURVE",
"541 633 OFFCURVE",
"472 635 CURVE",
"462 637 OFFCURVE",
"445 615 OFFCURVE",
"460 619 CURVE",
"509 621 OFFCURVE",
"590 625 OFFCURVE",
"536 500 CURVE SMOOTH",
"484 381 OFFCURVE",
"412 222 OFFCURVE",
"355 117 CURVE SMOOTH",
"340 90 OFFCURVE",
"331 93 OFFCURVE",
"325 117 CURVE SMOOTH",
"299 228 OFFCURVE",
"246 499 OFFCURVE",
"240 575 CURVE SMOOTH",
"236 621 OFFCURVE",
"315 618 OFFCURVE",
"343 617 CURVE SMOOTH",
"356 616 OFFCURVE",
"360 634 OFFCURVE",
"350 633 CURVE SMOOTH",
"283 630 OFFCURVE",
"207 628 OFFCURVE",
"140 631 CURVE SMOOTH",
"109 632 OFFCURVE",
"93 631 OFFCURVE",
"23 634 CURVE SMOOTH",
"12 634 OFFCURVE",
"-1 617 OFFCURVE",
"13 617 CURVE SMOOTH",
"47 618 OFFCURVE",
"114 632 OFFCURVE",
"148 500 CURVE SMOOTH",
"187 347 OFFCURVE",
"213 185 OFFCURVE",
"237 30 CURVE SMOOTH",
"241 1 OFFCURVE",
"235 -20 OFFCURVE",
"251 -20 CURVE SMOOTH",
"276 -19 OFFCURVE",
"304 18 OFFCURVE",
"338 32 CURVE SMOOTH",
"401 57 OFFCURVE",
"368 55 OFFCURVE",
"384 86 CURVE SMOOTH",
"420 157 OFFCURVE",
"569 457 OFFCURVE",
"628 546 CURVE SMOOTH",
"682 628 OFFCURVE",
"740 615 OFFCURVE",
"755 616 CURVE",
"763 615 OFFCURVE",
"776 635 OFFCURVE",
"765 634 CURVE"
);
}
);
};
layerId = "404CF7D8-B1FB-4D32-849A-66F5CDD10145";
paths = (
{
closed = 1;
nodes = (
"276 -19 OFFCURVE",
"304 18 OFFCURVE",
"338 32 CURVE SMOOTH",
"384 50 OFFCURVE",
"379 54 OFFCURVE",
"379 67 CURVE SMOOTH",
"379 71 OFFCURVE",
"380 77 OFFCURVE",
"384 86 CURVE SMOOTH",
"420 157 OFFCURVE",
"569 457 OFFCURVE",
"628 546 CURVE SMOOTH",
"682 628 OFFCURVE",
"740 615 OFFCURVE",
"755 616 CURVE",
"761 615 OFFCURVE",
"769 626 OFFCURVE",
"769 631 CURVE SMOOTH",
"769 633 OFFCURVE",
"768 634 OFFCURVE",
"765 634 CURVE SMOOTH",
"715 634 OFFCURVE",
"660 631 OFFCURVE",
"622 631 CURVE SMOOTH",
"589 631 OFFCURVE",
"552 633 OFFCURVE",
"472 635 CURVE",
"465 637 OFFCURVE",
"454 626 OFFCURVE",
"454 621 CURVE SMOOTH",
"454 620 OFFCURVE",
"455 619 OFFCURVE",
"457 619 CURVE SMOOTH",
"460 619 LINE SMOOTH",
"498 621 OFFCURVE",
"554 623 OFFCURVE",
"554 568 CURVE SMOOTH",
"554 551 OFFCURVE",
"549 529 OFFCURVE",
"536 500 CURVE SMOOTH",
"484 381 OFFCURVE",
"412 222 OFFCURVE",
"355 117 CURVE SMOOTH",
"348 104 OFFCURVE",
"342 98 OFFCURVE",
"337 98 CURVE SMOOTH",
"332 98 OFFCURVE",
"328 105 OFFCURVE",
"325 117 CURVE SMOOTH",
"299 228 OFFCURVE",
"246 499 OFFCURVE",
"240 575 CURVE SMOOTH",
"236 622 OFFCURVE",
"318 617 OFFCURVE",
"345 617 CURVE SMOOTH",
"352 617 OFFCURVE",
"356 623 OFFCURVE",
"356 628 CURVE SMOOTH",
"356 631 OFFCURVE",
"354 633 OFFCURVE",
"350 633 CURVE SMOOTH",
"306 631 OFFCURVE",
"259 630 OFFCURVE",
"213 630 CURVE SMOOTH",
"188 630 OFFCURVE",
"163 630 OFFCURVE",
"140 631 CURVE SMOOTH",
"109 632 OFFCURVE",
"93 631 OFFCURVE",
"23 634 CURVE SMOOTH",
"15 634 OFFCURVE",
"7 626 OFFCURVE",
"7 621 CURVE SMOOTH",
"7 619 OFFCURVE",
"9 617 OFFCURVE",
"13 617 CURVE SMOOTH",
"47 618 OFFCURVE",
"114 632 OFFCURVE",
"148 500 CURVE SMOOTH",
"187 347 OFFCURVE",
"213 185 OFFCURVE",
"237 30 CURVE SMOOTH",
"241 1 OFFCURVE",
"235 -20 OFFCURVE",
"251 -20 CURVE SMOOTH"
);
}
);
width = 614;
}
);
leftKerningGroup = V;
note = V;
rightKerningGroup = V;
unicode = 0056;
},
{
color = 3;
glyphname = W;
lastChange = "2022-04-07 18:33:24 +0000";
layers = (
{
anchors = (
{
name = top;
position = "{625, 640}";
}
);
background = {
paths = (
{
closed = 1;
nodes = (
"1089 634 OFFCURVE",
"1026 630 OFFCURVE",
"988 631 CURVE SMOOTH",
"958 631 OFFCURVE",
"900 634 OFFCURVE",
"830 629 CURVE",
"820 631 OFFCURVE",
"803 609 OFFCURVE",
"818 613 CURVE",
"867 615 OFFCURVE",
"980 632 OFFCURVE",
"916 500 CURVE SMOOTH",
"857 380 OFFCURVE",
"793 221 OFFCURVE",
"736 116 CURVE SMOOTH",
"721 89 OFFCURVE",
"712 92 OFFCURVE",
"706 117 CURVE SMOOTH",
"680 227 OFFCURVE",
"628 476 OFFCURVE",
"622 552 CURVE SMOOTH",
"618 598 OFFCURVE",
"716 611 OFFCURVE",
"750 616 CURVE SMOOTH",
"758 617 OFFCURVE",
"765 631 OFFCURVE",
"757 631 CURVE SMOOTH",
"690 627 OFFCURVE",
"582 625 OFFCURVE",
"515 628 CURVE SMOOTH",
"485 629 OFFCURVE",
"481 631 OFFCURVE",
"411 633 CURVE",
"400 635 OFFCURVE",
"399 613 OFFCURVE",
"411 616 CURVE",
"487 614 OFFCURVE",
"505 584 OFFCURVE",
"520 526 CURVE SMOOTH",
"526 502 OFFCURVE",
"531 489 OFFCURVE",
"511 447 CURVE SMOOTH",
"459 336 OFFCURVE",
"405 207 OFFCURVE",
"356 116 CURVE SMOOTH",
"341 89 OFFCURVE",
"332 92 OFFCURVE",
"326 117 CURVE SMOOTH",
"300 227 OFFCURVE",
"246 499 OFFCURVE",
"240 575 CURVE SMOOTH",
"236 621 OFFCURVE",
"315 618 OFFCURVE",
"343 617 CURVE SMOOTH",
"356 616 OFFCURVE",
"360 634 OFFCURVE",
"350 633 CURVE SMOOTH",
"283 630 OFFCURVE",
"207 628 OFFCURVE",
"140 631 CURVE SMOOTH",
"109 632 OFFCURVE",
"93 631 OFFCURVE",
"23 634 CURVE SMOOTH",
"12 634 OFFCURVE",
"-1 617 OFFCURVE",
"13 617 CURVE SMOOTH",
"47 618 OFFCURVE",
"114 632 OFFCURVE",
"148 500 CURVE SMOOTH",
"187 347 OFFCURVE",
"214 185 OFFCURVE",
"237 30 CURVE SMOOTH",
"242 0 OFFCURVE",
"236 -20 OFFCURVE",
"252 -20 CURVE SMOOTH",
"276 -19 OFFCURVE",
"305 18 OFFCURVE",
"338 31 CURVE SMOOTH",
"402 57 OFFCURVE",
"372 54 OFFCURVE",
"385 86 CURVE SMOOTH",
"406 136 OFFCURVE",
"486 294 OFFCURVE",
"550 408 CURVE",
"578 283 OFFCURVE",
"599 154 OFFCURVE",
"618 30 CURVE SMOOTH",
"622 0 OFFCURVE",
"616 -20 OFFCURVE",
"632 -20 CURVE SMOOTH",
"657 -19 OFFCURVE",
"685 18 OFFCURVE",
"718 31 CURVE SMOOTH",
"782 57 OFFCURVE",
"752 54 OFFCURVE",
"765 86 CURVE SMOOTH",
"793 153 OFFCURVE",
"949 457 OFFCURVE",
"1008 546 CURVE SMOOTH",
"1062 628 OFFCURVE",
"1120 615 OFFCURVE",
"1135 616 CURVE",
"1142 615 OFFCURVE",
"1155 635 OFFCURVE",
"1145 634 CURVE"
);
}
);
};
layerId = "404CF7D8-B1FB-4D32-849A-66F5CDD10145";
paths = (
{
closed = 1;
nodes = (
"276 -19 OFFCURVE",
"305 18 OFFCURVE",
"338 31 CURVE SMOOTH",
"386 50 OFFCURVE",
"381 54 OFFCURVE",
"381 67 CURVE SMOOTH",
"381 72 OFFCURVE",
"382 78 OFFCURVE",
"385 86 CURVE SMOOTH",
"406 136 OFFCURVE",
"486 294 OFFCURVE",
"550 408 CURVE",
"578 283 OFFCURVE",
"599 154 OFFCURVE",
"618 30 CURVE SMOOTH",
"622 0 OFFCURVE",
"616 -20 OFFCURVE",
"632 -20 CURVE SMOOTH",
"657 -19 OFFCURVE",
"685 18 OFFCURVE",
"718 31 CURVE SMOOTH",
"766 50 OFFCURVE",
"761 54 OFFCURVE",
"761 67 CURVE SMOOTH",
"761 72 OFFCURVE",
"762 78 OFFCURVE",
"765 86 CURVE SMOOTH",
"793 153 OFFCURVE",
"949 457 OFFCURVE",
"1008 546 CURVE SMOOTH",
"1062 628 OFFCURVE",
"1120 615 OFFCURVE",
"1135 616 CURVE",
"1140 615 OFFCURVE",
"1149 626 OFFCURVE",
"1149 631 CURVE SMOOTH",
"1149 633 OFFCURVE",
"1148 634 OFFCURVE",
"1145 634 CURVE SMOOTH",
"1089 634 OFFCURVE",
"1026 630 OFFCURVE",
"988 631 CURVE SMOOTH",
"972 631 OFFCURVE",
"947 632 OFFCURVE",
"917 632 CURVE SMOOTH",
"891 632 OFFCURVE",
"862 631 OFFCURVE",
"830 629 CURVE",
"823 631 OFFCURVE",
"812 620 OFFCURVE",
"812 615 CURVE SMOOTH",
"812 614 OFFCURVE",
"813 613 OFFCURVE",
"815 613 CURVE SMOOTH",
"818 613 LINE SMOOTH",
"829 613 OFFCURVE",
"844 615 OFFCURVE",
"859 615 CURVE SMOOTH",
"896 615 OFFCURVE",
"935 607 OFFCURVE",
"935 565 CURVE SMOOTH",
"935 549 OFFCURVE",
"930 528 OFFCURVE",
"916 500 CURVE SMOOTH",
"857 380 OFFCURVE",
"793 221 OFFCURVE",
"736 116 CURVE SMOOTH",
"729 103 OFFCURVE",
"723 97 OFFCURVE",
"718 97 CURVE SMOOTH",
"713 97 OFFCURVE",
"709 104 OFFCURVE",
"706 117 CURVE SMOOTH",
"680 227 OFFCURVE",
"628 476 OFFCURVE",
"622 552 CURVE SMOOTH",
"618 598 OFFCURVE",
"716 611 OFFCURVE",
"750 616 CURVE SMOOTH",
"756 617 OFFCURVE",
"761 624 OFFCURVE",
"761 628 CURVE SMOOTH",
"761 630 OFFCURVE",
"759 631 OFFCURVE",
"757 631 CURVE SMOOTH",
"712 628 OFFCURVE",
"649 627 OFFCURVE",
"593 627 CURVE SMOOTH",
"564 627 OFFCURVE",
"537 627 OFFCURVE",
"515 628 CURVE SMOOTH",
"485 629 OFFCURVE",
"481 631 OFFCURVE",
"411 633 CURVE",
"406 634 OFFCURVE",
"402 629 OFFCURVE",
"402 624 CURVE SMOOTH",
"402 620 OFFCURVE",
"404 616 OFFCURVE",
"409 616 CURVE SMOOTH",
"411 616 LINE SMOOTH",
"487 616 OFFCURVE",
"505 584 OFFCURVE",
"520 526 CURVE SMOOTH",
"523 515 OFFCURVE",
"525 506 OFFCURVE",
"525 496 CURVE SMOOTH",
"525 484 OFFCURVE",
"522 470 OFFCURVE",
"511 447 CURVE SMOOTH",
"459 336 OFFCURVE",
"405 207 OFFCURVE",
"356 116 CURVE SMOOTH",
"349 103 OFFCURVE",
"343 97 OFFCURVE",
"338 97 CURVE SMOOTH",
"333 97 OFFCURVE",
"329 104 OFFCURVE",
"326 117 CURVE SMOOTH",
"300 227 OFFCURVE",
"246 499 OFFCURVE",
"240 575 CURVE SMOOTH",
"236 622 OFFCURVE",
"318 617 OFFCURVE",
"345 617 CURVE SMOOTH",
"352 617 OFFCURVE",
"356 623 OFFCURVE",
"356 628 CURVE SMOOTH",
"356 631 OFFCURVE",
"354 633 OFFCURVE",
"350 633 CURVE SMOOTH",
"306 631 OFFCURVE",
"259 630 OFFCURVE",
"213 630 CURVE SMOOTH",
"188 630 OFFCURVE",
"163 630 OFFCURVE",
"140 631 CURVE SMOOTH",
"109 632 OFFCURVE",
"93 631 OFFCURVE",
"23 634 CURVE SMOOTH",
"15 634 OFFCURVE",
"7 626 OFFCURVE",
"7 621 CURVE SMOOTH",
"7 619 OFFCURVE",
"9 617 OFFCURVE",
"13 617 CURVE SMOOTH",
"47 618 OFFCURVE",
"114 632 OFFCURVE",
"148 500 CURVE SMOOTH",
"187 347 OFFCURVE",
"214 185 OFFCURVE",
"237 30 CURVE SMOOTH",
"242 0 OFFCURVE",
"236 -20 OFFCURVE",
"252 -20 CURVE SMOOTH"
);
}
);
width = 994;
}
);
leftKerningGroup = V;
note = W;
rightKerningGroup = V;
unicode = 0057;
},
{
glyphname = X;
lastChange = "2022-04-06 17:44:33 +0000";
layers = (
{
background = {
paths = (
{
closed = 1;
nodes = (
"720 634 OFFCURVE",
"657 630 OFFCURVE",
"619 631 CURVE SMOOTH",
"589 631 OFFCURVE",
"552 633 OFFCURVE",
"483 635 CURVE",
"474 637 OFFCURVE",
"456 618 OFFCURVE",
"472 619 CURVE SMOOTH",
"509 621 OFFCURVE",
"633 632 OFFCURVE",
"522 500 CURVE SMOOTH",
"487 459 OFFCURVE",
"452 417 OFFCURVE",
"417 376 CURVE",
"394 418 OFFCURVE",
"373 460 OFFCURVE",
"352 500 CURVE SMOOTH",
"283 632 OFFCURVE",
"379 621 OFFCURVE",
"423 619 CURVE",
"437 615 OFFCURVE",
"448 637 OFFCURVE",
"440 635 CURVE",
"377 633 OFFCURVE",
"244 629 OFFCURVE",
"217 630 CURVE SMOOTH",
"203 631 OFFCURVE",
"89 632 OFFCURVE",
"69 634 CURVE SMOOTH",
"59 634 OFFCURVE",
"49 615 OFFCURVE",
"59 616 CURVE SMOOTH",
"103 621 OFFCURVE",
"147 614 OFFCURVE",
"182 579 CURVE SMOOTH",
"211 550 OFFCURVE",
"285 420 OFFCURVE",
"349 300 CURVE",
"285 227 OFFCURVE",
"219 156 OFFCURVE",
"150 87 CURVE SMOOTH",
"68 5 OFFCURVE",
"20 18 OFFCURVE",
"6 17 CURVE SMOOTH",
"-4 16 OFFCURVE",
"-17 2 OFFCURVE",
"-7 2 CURVE SMOOTH",
"14 2 OFFCURVE",
"69 -2 OFFCURVE",
"121 0 CURVE SMOOTH",
"177 2 OFFCURVE",
"244 0 OFFCURVE",
"306 -2 CURVE",
"314 -4 OFFCURVE",
"330 19 OFFCURVE",
"315 15 CURVE",
"270 13 OFFCURVE",
"141 2 OFFCURVE",
"252 133 CURVE SMOOTH",
"291 179 OFFCURVE",
"329 224 OFFCURVE",
"366 267 CURVE",
"407 189 OFFCURVE",
"441 120 OFFCURVE",
"453 90 CURVE SMOOTH",
"479 26 OFFCURVE",
"439 18 OFFCURVE",
"387 13 CURVE",
"372 13 OFFCURVE",
"370 -6 OFFCURVE",
"378 -4 CURVE",
"441 0 OFFCURVE",
"536 -3 OFFCURVE",
"563 -2 CURVE SMOOTH",
"622 1 OFFCURVE",
"692 0 OFFCURVE",
"736 0 CURVE SMOOTH",
"746 0 OFFCURVE",
"757 17 OFFCURVE",
"746 17 CURVE SMOOTH",
"730 16 OFFCURVE",
"647 13 OFFCURVE",
"578 107 CURVE SMOOTH",
"526 179 OFFCURVE",
"479 261 OFFCURVE",
"434 343 CURVE",
"490 406 OFFCURVE",
"548 469 OFFCURVE",
"609 537 CURVE SMOOTH",
"656 588 OFFCURVE",
"712 612 OFFCURVE",
"737 616 CURVE SMOOTH",
"750 618 OFFCURVE",
"761 616 OFFCURVE",
"766 616 CURVE SMOOTH",
"774 615 OFFCURVE",
"787 635 OFFCURVE",
"776 634 CURVE"
);
}
);
};
layerId = "404CF7D8-B1FB-4D32-849A-66F5CDD10145";
paths = (
{
closed = 1;
nodes = (
"378 -4 LINE SMOOTH",
"405 -2 OFFCURVE",
"439 -2 OFFCURVE",
"470 -2 CURVE SMOOTH",
"511 -2 OFFCURVE",
"548 -3 OFFCURVE",
"563 -2 CURVE SMOOTH",
"598 0 OFFCURVE",
"638 0 OFFCURVE",
"673 0 CURVE SMOOTH",
"736 0 LINE SMOOTH",
"743 0 OFFCURVE",
"751 8 OFFCURVE",
"751 13 CURVE SMOOTH",
"751 16 OFFCURVE",
"749 17 OFFCURVE",
"746 17 CURVE SMOOTH",
"730 16 OFFCURVE",
"647 13 OFFCURVE",
"578 107 CURVE SMOOTH",
"526 179 OFFCURVE",
"479 261 OFFCURVE",
"434 343 CURVE",
"490 406 OFFCURVE",
"548 469 OFFCURVE",
"609 537 CURVE SMOOTH",
"656 588 OFFCURVE",
"712 612 OFFCURVE",
"737 616 CURVE SMOOTH",
"750 618 OFFCURVE",
"761 616 OFFCURVE",
"766 616 CURVE SMOOTH",
"772 615 OFFCURVE",
"780 626 OFFCURVE",
"780 631 CURVE SMOOTH",
"780 633 OFFCURVE",
"779 634 OFFCURVE",
"776 634 CURVE SMOOTH",
"726 634 OFFCURVE",
"671 631 OFFCURVE",
"633 631 CURVE SMOOTH",
"600 631 OFFCURVE",
"563 633 OFFCURVE",
"483 635 CURVE",
"476 636 OFFCURVE",
"466 627 OFFCURVE",
"466 622 CURVE SMOOTH",
"466 620 OFFCURVE",
"467 619 OFFCURVE",
"471 619 CURVE SMOOTH",
"472 619 LINE SMOOTH",
"498 620 OFFCURVE",
"567 626 OFFCURVE",
"567 584 CURVE SMOOTH",
"567 566 OFFCURVE",
"555 539 OFFCURVE",
"522 500 CURVE SMOOTH",
"417 376 LINE",
"394 418 OFFCURVE",
"373 460 OFFCURVE",
"352 500 CURVE SMOOTH",
"335 533 OFFCURVE",
"328 557 OFFCURVE",
"328 574 CURVE SMOOTH",
"328 614 OFFCURVE",
"363 620 OFFCURVE",
"394 620 CURVE SMOOTH",
"405 620 OFFCURVE",
"415 619 OFFCURVE",
"423 619 CURVE",
"433 616 OFFCURVE",
"443 628 OFFCURVE",
"443 633 CURVE SMOOTH",
"443 634 OFFCURVE",
"442 635 OFFCURVE",
"441 635 CURVE SMOOTH",
"440 635 LINE SMOOTH",
"384 633 OFFCURVE",
"272 630 OFFCURVE",
"229 630 CURVE SMOOTH",
"268 630 OFFCURVE",
"94 631 OFFCURVE",
"69 634 CURVE SMOOTH",
"62 634 OFFCURVE",
"55 625 OFFCURVE",
"55 619 CURVE SMOOTH",
"55 617 OFFCURVE",
"56 616 OFFCURVE",
"59 616 CURVE SMOOTH",
"67 617 OFFCURVE",
"75 617 OFFCURVE",
"83 617 CURVE SMOOTH",
"119 617 OFFCURVE",
"153 608 OFFCURVE",
"182 579 CURVE SMOOTH",
"211 550 OFFCURVE",
"285 420 OFFCURVE",
"349 300 CURVE",
"285 227 OFFCURVE",
"219 156 OFFCURVE",
"150 87 CURVE SMOOTH",
"72 9 OFFCURVE",
"24 17 OFFCURVE",
"8 17 CURVE SMOOTH",
"1 17 OFFCURVE",
"-11 8 OFFCURVE",
"-11 4 CURVE SMOOTH",
"-11 3 OFFCURVE",
"-10 2 OFFCURVE",
"-7 2 CURVE SMOOTH",
"10 2 OFFCURVE",
"48 -1 OFFCURVE",
"90 -1 CURVE SMOOTH",
"100 -1 OFFCURVE",
"111 0 OFFCURVE",
"121 0 CURVE SMOOTH",
"137 1 OFFCURVE",
"155 1 OFFCURVE",
"173 1 CURVE SMOOTH",
"216 1 OFFCURVE",
"262 -1 OFFCURVE",
"306 -2 CURVE",
"311 -4 OFFCURVE",
"321 7 OFFCURVE",
"321 12 CURVE SMOOTH",
"321 14 OFFCURVE",
"320 15 OFFCURVE",
"318 15 CURVE SMOOTH",
"315 15 LINE SMOOTH",
"307 15 OFFCURVE",
"296 14 OFFCURVE",
"284 14 CURVE SMOOTH",
"250 14 OFFCURVE",
"208 19 OFFCURVE",
"208 52 CURVE SMOOTH",
"208 70 OFFCURVE",
"220 95 OFFCURVE",
"252 133 CURVE SMOOTH",
"291 179 OFFCURVE",
"329 224 OFFCURVE",
"366 267 CURVE",
"407 189 OFFCURVE",
"441 120 OFFCURVE",
"453 90 CURVE SMOOTH",
"459 76 OFFCURVE",
"461 65 OFFCURVE",
"461 56 CURVE SMOOTH",
"461 23 OFFCURVE",
"428 17 OFFCURVE",
"387 13 CURVE SMOOTH",
"378 13 OFFCURVE",
"373 6 OFFCURVE",
"373 1 CURVE SMOOTH",
"373 -2 OFFCURVE",
"375 -4 OFFCURVE",
"377 -4 CURVE SMOOTH"
);
}
);
width = 737;
}
);
leftKerningGroup = X;
note = X;
rightKerningGroup = X;
unicode = 0058;
},
{
color = 3;
glyphname = Y;
lastChange = "2022-03-24 15:39:20 +0000";
layers = (
{
anchors = (
{
name = bottom;
position = "{303, 0}";
},
{
name = top;
position = "{453, 640}";
}
);
background = {
paths = (
{
closed = 1;
nodes = (
"673 634 OFFCURVE",
"611 630 OFFCURVE",
"572 631 CURVE SMOOTH",
"543 631 OFFCURVE",
"505 633 OFFCURVE",
"436 635 CURVE",
"427 637 OFFCURVE",
"410 615 OFFCURVE",
"425 619 CURVE",
"473 621 OFFCURVE",
"565 632 OFFCURVE",
"501 500 CURVE SMOOTH",
"475 446 OFFCURVE",
"436 380 OFFCURVE",
"408 344 CURVE SMOOTH",
"399 333 OFFCURVE",
"382 311 OFFCURVE",
"374 357 CURVE SMOOTH",
"321 668 OFFCURVE",
"253 643 OFFCURVE",
"228 641 CURVE SMOOTH",
"162 635 OFFCURVE",
"96 627 OFFCURVE",
"29 624 CURVE SMOOTH",
"19 624 OFFCURVE",
"7 605 OFFCURVE",
"21 607 CURVE SMOOTH",
"109 619 OFFCURVE",
"159 614 OFFCURVE",
"209 534 CURVE SMOOTH",
"224 510 OFFCURVE",
"240 477 OFFCURVE",
"255 435 CURVE SMOOTH",
"267 399 OFFCURVE",
"288 340 OFFCURVE",
"297 276 CURVE SMOOTH",
"298 267 OFFCURVE",
"297 238 OFFCURVE",
"296 230 CURVE SMOOTH",
"292 197 OFFCURVE",
"284 165 OFFCURVE",
"277 132 CURVE SMOOTH",
"248 1 OFFCURVE",
"253 15 OFFCURVE",
"101 17 CURVE",
"93 18 OFFCURVE",
"80 -2 OFFCURVE",
"91 0 CURVE",
"157 -1 OFFCURVE",
"239 2 OFFCURVE",
"270 3 CURVE SMOOTH",
"337 6 OFFCURVE",
"453 0 OFFCURVE",
"519 0 CURVE SMOOTH",
"530 0 OFFCURVE",
"542 17 OFFCURVE",
"529 16 CURVE SMOOTH",
"514 15 OFFCURVE",
"437 17 OFFCURVE",
"416 20 CURVE SMOOTH",
"404 23 OFFCURVE",
"378 35 OFFCURVE",
"379 68 CURVE SMOOTH",
"381 103 OFFCURVE",
"382 155 OFFCURVE",
"395 229 CURVE SMOOTH",
"398 245 OFFCURVE",
"403 259 OFFCURVE",
"410 273 CURVE SMOOTH",
"459 362 OFFCURVE",
"539 477 OFFCURVE",
"583 538 CURVE SMOOTH",
"640 619 OFFCURVE",
"705 615 OFFCURVE",
"719 616 CURVE",
"727 615 OFFCURVE",
"740 635 OFFCURVE",
"729 634 CURVE"
);
}
);
};
layerId = "404CF7D8-B1FB-4D32-849A-66F5CDD10145";
paths = (
{
closed = 1;
nodes = (
"91 0 LINE SMOOTH",
"157 0 OFFCURVE",
"239 2 OFFCURVE",
"270 3 CURVE SMOOTH",
"283 4 OFFCURVE",
"299 4 OFFCURVE",
"315 4 CURVE SMOOTH",
"381 4 OFFCURVE",
"466 0 OFFCURVE",
"519 0 CURVE SMOOTH",
"527 0 OFFCURVE",
"535 8 OFFCURVE",
"535 13 CURVE SMOOTH",
"535 15 OFFCURVE",
"533 16 OFFCURVE",
"530 16 CURVE SMOOTH",
"529 16 LINE SMOOTH",
"514 16 OFFCURVE",
"437 17 OFFCURVE",
"416 20 CURVE SMOOTH",
"404 23 OFFCURVE",
"378 35 OFFCURVE",
"379 68 CURVE SMOOTH",
"381 103 OFFCURVE",
"382 155 OFFCURVE",
"395 229 CURVE SMOOTH",
"398 245 OFFCURVE",
"403 259 OFFCURVE",
"410 273 CURVE SMOOTH",
"459 362 OFFCURVE",
"539 477 OFFCURVE",
"583 538 CURVE SMOOTH",
"640 619 OFFCURVE",
"705 615 OFFCURVE",
"719 616 CURVE",
"725 615 OFFCURVE",
"733 626 OFFCURVE",
"733 631 CURVE SMOOTH",
"733 633 OFFCURVE",
"732 634 OFFCURVE",
"729 634 CURVE SMOOTH",
"679 634 OFFCURVE",
"625 631 OFFCURVE",
"586 631 CURVE SMOOTH",
"555 631 OFFCURVE",
"517 633 OFFCURVE",
"436 635 CURVE",
"430 637 OFFCURVE",
"419 626 OFFCURVE",
"419 621 CURVE SMOOTH",
"419 620 OFFCURVE",
"420 619 OFFCURVE",
"422 619 CURVE SMOOTH",
"425 619 LINE SMOOTH",
"434 619 OFFCURVE",
"445 620 OFFCURVE",
"456 620 CURVE SMOOTH",
"488 620 OFFCURVE",
"523 614 OFFCURVE",
"523 573 CURVE SMOOTH",
"523 556 OFFCURVE",
"517 532 OFFCURVE",
"501 500 CURVE SMOOTH",
"475 446 OFFCURVE",
"436 380 OFFCURVE",
"408 344 CURVE SMOOTH",
"403 338 OFFCURVE",
"396 329 OFFCURVE",
"389 329 CURVE SMOOTH",
"383 329 OFFCURVE",
"378 336 OFFCURVE",
"374 357 CURVE SMOOTH",
"330 617 OFFCURVE",
"275 642 OFFCURVE",
"243 642 CURVE SMOOTH",
"237 642 OFFCURVE",
"232 641 OFFCURVE",
"228 641 CURVE SMOOTH",
"162 635 OFFCURVE",
"96 627 OFFCURVE",
"29 624 CURVE SMOOTH",
"23 624 OFFCURVE",
"15 615 OFFCURVE",
"15 610 CURVE SMOOTH",
"15 608 OFFCURVE",
"16 607 OFFCURVE",
"19 607 CURVE SMOOTH",
"21 607 LINE SMOOTH",
"43 607 OFFCURVE",
"62 612 OFFCURVE",
"80 612 CURVE SMOOTH",
"134 612 OFFCURVE",
"171 594 OFFCURVE",
"209 534 CURVE SMOOTH",
"224 510 OFFCURVE",
"240 477 OFFCURVE",
"255 435 CURVE SMOOTH",
"267 399 OFFCURVE",
"288 340 OFFCURVE",
"297 276 CURVE SMOOTH",
"298 267 OFFCURVE",
"297 238 OFFCURVE",
"296 230 CURVE SMOOTH",
"292 197 OFFCURVE",
"284 165 OFFCURVE",
"277 132 CURVE SMOOTH",
"254 29 OFFCURVE",
"252 16 OFFCURVE",
"179 16 CURVE SMOOTH",
"159 16 OFFCURVE",
"133 17 OFFCURVE",
"101 17 CURVE",
"95 18 OFFCURVE",
"87 8 OFFCURVE",
"87 3 CURVE SMOOTH",
"87 1 OFFCURVE",
"88 0 OFFCURVE",
"90 0 CURVE SMOOTH"
);
}
);
width = 667;
}
);
leftKerningGroup = Y;
note = Y;
rightKerningGroup = Y;
unicode = 0059;
},
{
color = 3;
glyphname = Z;
lastChange = "2022-03-24 15:39:46 +0000";
layers = (
{
anchors = (
{
name = top;
position = "{423, 640}";
}
);
background = {
paths = (
{
closed = 1;
nodes = (
"655 639 OFFCURVE",
"593 633 OFFCURVE",
"578 633 CURVE SMOOTH",
"470 631 OFFCURVE",
"301 633 OFFCURVE",
"208 637 CURVE SMOOTH",
"158 639 OFFCURVE",
"146 622 OFFCURVE",
"147 572 CURVE SMOOTH",
"148 524 OFFCURVE",
"143 499 OFFCURVE",
"142 445 CURVE SMOOTH",
"141 436 OFFCURVE",
"158 437 OFFCURVE",
"159 454 CURVE SMOOTH",
"162 550 OFFCURVE",
"210 598 OFFCURVE",
"274 597 CURVE SMOOTH",
"372 596 OFFCURVE",
"483 615 OFFCURVE",
"427 534 CURVE SMOOTH",
"178 174 LINE SMOOTH",
"110 75 OFFCURVE",
"82 53 OFFCURVE",
"53 30 CURVE SMOOTH",
"42 21 OFFCURVE",
"15 -20 OFFCURVE",
"79 -8 CURVE SMOOTH",
"153 5 OFFCURVE",
"273 0 OFFCURVE",
"336 0 CURVE SMOOTH",
"458 0 OFFCURVE",
"527 -13 OFFCURVE",
"546 0 CURVE SMOOTH",
"591 31 OFFCURVE",
"605 145 OFFCURVE",
"615 175 CURVE SMOOTH",
"617 182 OFFCURVE",
"608 190 OFFCURVE",
"605 183 CURVE SMOOTH",
"572 94 OFFCURVE",
"502 32 OFFCURVE",
"399 32 CURVE SMOOTH",
"296 32 OFFCURVE",
"214 48 OFFCURVE",
"251 100 CURVE",
"251 100 OFFCURVE",
"415 382 OFFCURVE",
"564 545 CURVE SMOOTH",
"603 588 OFFCURVE",
"614 604 OFFCURVE",
"629 616 CURVE SMOOTH"
);
}
);
};
layerId = "404CF7D8-B1FB-4D32-849A-66F5CDD10145";
paths = (
{
closed = 1;
nodes = (
"64 -10 OFFCURVE",
"71 -10 OFFCURVE",
"79 -8 CURVE SMOOTH",
"121 -1 OFFCURVE",
"177 1 OFFCURVE",
"230 1 CURVE SMOOTH",
"270 1 OFFCURVE",
"309 0 OFFCURVE",
"336 0 CURVE SMOOTH",
"417 0 OFFCURVE",
"475 -6 OFFCURVE",
"510 -6 CURVE SMOOTH",
"528 -6 OFFCURVE",
"540 -4 OFFCURVE",
"546 0 CURVE SMOOTH",
"591 31 OFFCURVE",
"605 145 OFFCURVE",
"615 175 CURVE SMOOTH",
"616 180 OFFCURVE",
"612 186 OFFCURVE",
"608 186 CURVE SMOOTH",
"607 186 OFFCURVE",
"606 185 OFFCURVE",
"605 183 CURVE SMOOTH",
"572 94 OFFCURVE",
"502 32 OFFCURVE",
"399 32 CURVE SMOOTH",
"313 32 OFFCURVE",
"242 43 OFFCURVE",
"242 77 CURVE SMOOTH",
"242 84 OFFCURVE",
"245 91 OFFCURVE",
"251 100 CURVE",
"251 100 OFFCURVE",
"415 382 OFFCURVE",
"564 545 CURVE SMOOTH",
"603 588 OFFCURVE",
"614 604 OFFCURVE",
"629 616 CURVE SMOOTH",
"633 620 OFFCURVE",
"635 623 OFFCURVE",
"635 625 CURVE SMOOTH",
"635 632 OFFCURVE",
"620 634 OFFCURVE",
"605 634 CURVE SMOOTH",
"594 634 OFFCURVE",
"583 633 OFFCURVE",
"578 633 CURVE SMOOTH",
"549 632 OFFCURVE",
"516 632 OFFCURVE",
"481 632 CURVE SMOOTH",
"385 632 OFFCURVE",
"276 634 OFFCURVE",
"208 637 CURVE SMOOTH",
"160 639 OFFCURVE",
"147 623 OFFCURVE",
"147 577 CURVE SMOOTH",
"147 526 OFFCURVE",
"143 501 OFFCURVE",
"142 445 CURVE SMOOTH",
"141 436 OFFCURVE",
"158 437 OFFCURVE",
"159 454 CURVE SMOOTH",
"162 549 OFFCURVE",
"209 597 OFFCURVE",
"272 597 CURVE SMOOTH",
"304 597 OFFCURVE",
"336 598 OFFCURVE",
"364 598 CURVE SMOOTH",
"409 598 OFFCURVE",
"442 594 OFFCURVE",
"442 570 CURVE SMOOTH",
"442 561 OFFCURVE",
"437 549 OFFCURVE",
"427 534 CURVE SMOOTH",
"178 174 LINE SMOOTH",
"110 75 OFFCURVE",
"82 53 OFFCURVE",
"53 30 CURVE SMOOTH",
"47 25 OFFCURVE",
"38 13 OFFCURVE",
"38 3 CURVE SMOOTH",
"38 -4 OFFCURVE",
"43 -10 OFFCURVE",
"59 -10 CURVE SMOOTH"
);
}
);
width = 614;
}
);
leftKerningGroup = Z;
note = Z;
rightKerningGroup = Z;
unicode = 005A;
},
{
color = 3;
glyphname = a;
lastChange = "2022-04-07 18:41:12 +0000";
layers = (
{
anchors = (
{
name = bottom;
position = "{261, 0}";
},
{
name = ogonek;
position = "{524, 10}";
},
{
name = top;
position = "{327, 454}";
}
);
background = {
paths = (
{
closed = 1;
nodes = (
"529 16 OFFCURVE",
"483 17 OFFCURVE",
"461 21 CURVE SMOOTH",
"417 28 OFFCURVE",
"435 126 OFFCURVE",
"438 156 CURVE SMOOTH",
"443 214 OFFCURVE",
"453 272 OFFCURVE",
"466 330 CURVE SMOOTH",
"487 425 OFFCURVE",
"401 473 OFFCURVE",
"305 467 CURVE SMOOTH",
"247 464 OFFCURVE",
"137 434 OFFCURVE",
"103 378 CURVE SMOOTH",
"97 368 OFFCURVE",
"94 327 OFFCURVE",
"90 298 CURVE SMOOTH",
"84 254 OFFCURVE",
"124 274 OFFCURVE",
"137 282 CURVE SMOOTH",
"158 295 OFFCURVE",
"170 296 OFFCURVE",
"187 313 CURVE SMOOTH",
"209 333 OFFCURVE",
"203 390 OFFCURVE",
"240 425 CURVE SMOOTH",
"256 439 OFFCURVE",
"280 453 OFFCURVE",
"305 453 CURVE SMOOTH",
"373 453 OFFCURVE",
"352 313 OFFCURVE",
"347 268 CURVE",
"345 259 OFFCURVE",
"335 256 OFFCURVE",
"329 259 CURVE",
"329 259 OFFCURVE",
"333 289 OFFCURVE",
"335 310 CURVE SMOOTH",
"338 343 OFFCURVE",
"336 380 OFFCURVE",
"323 400 CURVE SMOOTH",
"318 408 OFFCURVE",
"313 413 OFFCURVE",
"306 410 CURVE SMOOTH",
"296 406 OFFCURVE",
"308 393 OFFCURVE",
"311 389 CURVE SMOOTH",
"324 368 OFFCURVE",
"325 335 OFFCURVE",
"324 311 CURVE SMOOTH",
"323 292 OFFCURVE",
"318 259 OFFCURVE",
"318 259 CURVE",
"220 261 OFFCURVE",
"37 239 OFFCURVE",
"37 93 CURVE SMOOTH",
"37 69 OFFCURVE",
"51 -6 OFFCURVE",
"102 -6 CURVE SMOOTH",
"207 -6 LINE SMOOTH",
"254 -6 OFFCURVE",
"315 135 OFFCURVE",
"328 249 CURVE",
"334 247 OFFCURVE",
"345 246 OFFCURVE",
"343 235 CURVE SMOOTH",
"340 216 OFFCURVE",
"324 87 OFFCURVE",
"308 28 CURVE SMOOTH",
"301 0 OFFCURVE",
"297 -1 OFFCURVE",
"325 0 CURVE SMOOTH",
"396 4 OFFCURVE",
"465 0 OFFCURVE",
"535 0 CURVE SMOOTH",
"547 0 OFFCURVE",
"559 18 OFFCURVE",
"545 17 CURVE SMOOTH"
);
},
{
closed = 1;
nodes = (
"316 237 OFFCURVE",
"301 128 OFFCURVE",
"259 80 CURVE SMOOTH",
"233 50 OFFCURVE",
"179 46 OFFCURVE",
"161 88 CURVE SMOOTH",
"141 134 OFFCURVE",
"169 196 OFFCURVE",
"208 224 CURVE SMOOTH",
"235 243 OFFCURVE",
"273 256 OFFCURVE",
"318 250 CURVE"
);
}
);
};
layerId = "404CF7D8-B1FB-4D32-849A-66F5CDD10145";
paths = (
{
closed = 1;
nodes = (
"207 -6 LINE SMOOTH",
"254 -6 OFFCURVE",
"315 135 OFFCURVE",
"328 249 CURVE",
"334 247 OFFCURVE",
"343 246 OFFCURVE",
"343 237 CURVE SMOOTH",
"343 235 LINE SMOOTH",
"343 216 OFFCURVE",
"324 87 OFFCURVE",
"308 28 CURVE SMOOTH",
"305 17 OFFCURVE",
"303 10 OFFCURVE",
"303 6 CURVE SMOOTH",
"303 1 OFFCURVE",
"306 0 OFFCURVE",
"315 0 CURVE SMOOTH",
"325 0 LINE SMOOTH",
"349 0 OFFCURVE",
"372 2 OFFCURVE",
"395 2 CURVE SMOOTH",
"442 2 OFFCURVE",
"488 0 OFFCURVE",
"535 0 CURVE SMOOTH",
"543 0 OFFCURVE",
"551 8 OFFCURVE",
"551 13 CURVE SMOOTH",
"551 15 OFFCURVE",
"550 17 OFFCURVE",
"546 17 CURVE SMOOTH",
"545 17 LINE SMOOTH",
"529 17 OFFCURVE",
"483 17 OFFCURVE",
"461 21 CURVE SMOOTH",
"438 25 OFFCURVE",
"432 54 OFFCURVE",
"432 85 CURVE SMOOTH",
"432 113 OFFCURVE",
"437 142 OFFCURVE",
"438 156 CURVE SMOOTH",
"443 214 OFFCURVE",
"453 272 OFFCURVE",
"466 330 CURVE SMOOTH",
"468 340 OFFCURVE",
"469 349 OFFCURVE",
"469 358 CURVE SMOOTH",
"469 434 OFFCURVE",
"391 472 OFFCURVE",
"305 467 CURVE SMOOTH",
"247 464 OFFCURVE",
"137 434 OFFCURVE",
"103 378 CURVE SMOOTH",
"97 368 OFFCURVE",
"94 327 OFFCURVE",
"90 298 CURVE SMOOTH",
"87 277 OFFCURVE",
"95 270 OFFCURVE",
"105 270 CURVE SMOOTH",
"116 270 OFFCURVE",
"130 278 OFFCURVE",
"137 282 CURVE SMOOTH",
"158 295 OFFCURVE",
"170 296 OFFCURVE",
"187 313 CURVE SMOOTH",
"209 333 OFFCURVE",
"203 390 OFFCURVE",
"240 425 CURVE SMOOTH",
"256 439 OFFCURVE",
"280 453 OFFCURVE",
"305 453 CURVE SMOOTH",
"345 453 OFFCURVE",
"354 406 OFFCURVE",
"354 357 CURVE SMOOTH",
"354 322 OFFCURVE",
"349 287 OFFCURVE",
"347 268 CURVE SMOOTH",
"346 261 OFFCURVE",
"340 258 OFFCURVE",
"334 258 CURVE SMOOTH",
"332 258 OFFCURVE",
"331 258 OFFCURVE",
"329 259 CURVE",
"329 259 OFFCURVE",
"333 289 OFFCURVE",
"335 310 CURVE SMOOTH",
"336 319 OFFCURVE",
"336 327 OFFCURVE",
"336 336 CURVE SMOOTH",
"336 361 OFFCURVE",
"333 385 OFFCURVE",
"323 400 CURVE SMOOTH",
"319 406 OFFCURVE",
"315 411 OFFCURVE",
"310 411 CURVE SMOOTH",
"309 411 OFFCURVE",
"307 411 OFFCURVE",
"306 410 CURVE",
"296 406 OFFCURVE",
"308 393 OFFCURVE",
"311 389 CURVE SMOOTH",
"324 368 OFFCURVE",
"325 335 OFFCURVE",
"324 311 CURVE SMOOTH",
"323 292 OFFCURVE",
"318 259 OFFCURVE",
"318 259 CURVE",
"220 261 OFFCURVE",
"37 239 OFFCURVE",
"37 93 CURVE SMOOTH",
"37 69 OFFCURVE",
"51 -6 OFFCURVE",
"102 -6 CURVE SMOOTH"
);
},
{
closed = 1;
nodes = (
"189 57 OFFCURVE",
"170 66 OFFCURVE",
"161 88 CURVE SMOOTH",
"156 99 OFFCURVE",
"154 110 OFFCURVE",
"154 121 CURVE SMOOTH",
"154 161 OFFCURVE",
"178 202 OFFCURVE",
"208 224 CURVE SMOOTH",
"230 240 OFFCURVE",
"261 251 OFFCURVE",
"296 251 CURVE SMOOTH",
"303 251 OFFCURVE",
"310 251 OFFCURVE",
"318 250 CURVE",
"316 237 OFFCURVE",
"301 128 OFFCURVE",
"259 80 CURVE SMOOTH",
"246 65 OFFCURVE",
"227 57 OFFCURVE",
"209 57 CURVE SMOOTH"
);
}
);
width = 529;
}
);
leftKerningGroup = a;
note = a;
rightKerningGroup = n;
unicode = 0061;
},
{
color = 3;
glyphname = ae;
lastChange = "2022-03-23 08:41:54 +0000";
layers = (
{
anchors = (
{
name = top;
position = "{385, 454}";
}
);
background = {
paths = (
{
closed = 1;
nodes = (
"741 269 OFFCURVE",
"746 283 OFFCURVE",
"725 286 CURVE SMOOTH",
"695 291 OFFCURVE",
"625 283 OFFCURVE",
"613 281 CURVE",
"620 320 OFFCURVE",
"644 362 OFFCURVE",
"661 384 CURVE SMOOTH",
"667 391 OFFCURVE",
"666 401 OFFCURVE",
"660 410 CURVE SMOOTH",
"653 421 OFFCURVE",
"645 431 OFFCURVE",
"632 442 CURVE SMOOTH",
"571 493 OFFCURVE",
"490 473 OFFCURVE",
"426 421 CURVE",
"396 454 OFFCURVE",
"342 470 OFFCURVE",
"285 467 CURVE SMOOTH",
"227 463 OFFCURVE",
"117 434 OFFCURVE",
"83 378 CURVE SMOOTH",
"77 368 OFFCURVE",
"74 327 OFFCURVE",
"70 298 CURVE SMOOTH",
"64 254 OFFCURVE",
"104 274 OFFCURVE",
"117 282 CURVE SMOOTH",
"138 295 OFFCURVE",
"150 296 OFFCURVE",
"167 313 CURVE SMOOTH",
"189 333 OFFCURVE",
"183 390 OFFCURVE",
"220 425 CURVE SMOOTH",
"236 439 OFFCURVE",
"260 453 OFFCURVE",
"285 453 CURVE SMOOTH",
"353 453 OFFCURVE",
"332 313 OFFCURVE",
"327 268 CURVE",
"325 259 OFFCURVE",
"315 256 OFFCURVE",
"309 259 CURVE",
"309 259 OFFCURVE",
"313 289 OFFCURVE",
"315 310 CURVE SMOOTH",
"318 343 OFFCURVE",
"316 380 OFFCURVE",
"303 400 CURVE SMOOTH",
"298 408 OFFCURVE",
"293 413 OFFCURVE",
"286 410 CURVE SMOOTH",
"276 406 OFFCURVE",
"288 393 OFFCURVE",
"291 389 CURVE SMOOTH",
"304 368 OFFCURVE",
"305 335 OFFCURVE",
"304 311 CURVE SMOOTH",
"303 292 OFFCURVE",
"298 259 OFFCURVE",
"298 259 CURVE",
"200 261 OFFCURVE",
"17 239 OFFCURVE",
"17 93 CURVE SMOOTH",
"17 69 OFFCURVE",
"31 -6 OFFCURVE",
"82 -6 CURVE SMOOTH",
"187 -6 LINE SMOOTH",
"234 -6 OFFCURVE",
"295 135 OFFCURVE",
"308 249 CURVE",
"313 247 OFFCURVE",
"322 247 OFFCURVE",
"323 239 CURVE",
"322 231 OFFCURVE",
"321 222 OFFCURVE",
"320 214 CURVE SMOOTH",
"315 170 OFFCURVE",
"301 76 OFFCURVE",
"288 28 CURVE SMOOTH",
"281 0 OFFCURVE",
"277 -1 OFFCURVE",
"305 0 CURVE SMOOTH",
"342 2 OFFCURVE",
"378 2 OFFCURVE",
"414 1 CURVE",
"448 -11 OFFCURVE",
"488 -12 OFFCURVE",
"516 0 CURVE",
"519 0 OFFCURVE",
"523 2 OFFCURVE",
"525 4 CURVE",
"554 17 OFFCURVE",
"572 55 OFFCURVE",
"597 71 CURVE SMOOTH",
"614 82 OFFCURVE",
"642 103 OFFCURVE",
"649 115 CURVE SMOOTH",
"651 120 OFFCURVE",
"649 129 OFFCURVE",
"642 121 CURVE SMOOTH",
"599 74 OFFCURVE",
"454 17 OFFCURVE",
"409 198 CURVE",
"461 227 OFFCURVE",
"523 251 OFFCURVE",
"598 264 CURVE",
"597 257 LINE SMOOTH",
"594 235 OFFCURVE",
"610 243 OFFCURVE",
"612 259 CURVE SMOOTH",
"612 262 OFFCURVE",
"612 264 OFFCURVE",
"612 266 CURVE",
"623 268 OFFCURVE",
"700 281 OFFCURVE",
"725 274 CURVE SMOOTH"
);
},
{
closed = 1;
nodes = (
"531 270 OFFCURVE",
"465 250 OFFCURVE",
"404 227 CURVE",
"398 280 OFFCURVE",
"406 323 OFFCURVE",
"421 355 CURVE",
"429 366 OFFCURVE",
"436 376 OFFCURVE",
"440 385 CURVE",
"499 457 OFFCURVE",
"606 428 OFFCURVE",
"600 280 CURVE"
);
},
{
closed = 1;
nodes = (
"296 237 OFFCURVE",
"281 128 OFFCURVE",
"239 80 CURVE SMOOTH",
"213 50 OFFCURVE",
"159 46 OFFCURVE",
"141 88 CURVE SMOOTH",
"121 134 OFFCURVE",
"149 196 OFFCURVE",
"188 224 CURVE SMOOTH",
"215 243 OFFCURVE",
"253 256 OFFCURVE",
"298 250 CURVE"
);
}
);
};
layerId = "404CF7D8-B1FB-4D32-849A-66F5CDD10145";
paths = (
{
closed = 1;
nodes = (
"486 -9 OFFCURVE",
"503 -6 OFFCURVE",
"516 0 CURVE",
"519 0 OFFCURVE",
"523 2 OFFCURVE",
"525 4 CURVE",
"554 17 OFFCURVE",
"572 55 OFFCURVE",
"597 71 CURVE SMOOTH",
"616 83 OFFCURVE",
"650 109 OFFCURVE",
"650 120 CURVE SMOOTH",
"650 122 OFFCURVE",
"649 124 OFFCURVE",
"647 124 CURVE SMOOTH",
"646 124 OFFCURVE",
"644 123 OFFCURVE",
"642 121 CURVE SMOOTH",
"621 99 OFFCURVE",
"578 74 OFFCURVE",
"533 74 CURVE SMOOTH",
"483 74 OFFCURVE",
"433 103 OFFCURVE",
"409 198 CURVE",
"461 227 OFFCURVE",
"523 251 OFFCURVE",
"598 264 CURVE",
"597 257 LINE SMOOTH",
"596 247 OFFCURVE",
"598 244 OFFCURVE",
"601 244 CURVE SMOOTH",
"605 244 OFFCURVE",
"612 250 OFFCURVE",
"612 259 CURVE SMOOTH",
"612 266 LINE",
"621 268 OFFCURVE",
"671 276 OFFCURVE",
"704 276 CURVE SMOOTH",
"712 276 OFFCURVE",
"720 275 OFFCURVE",
"725 274 CURVE SMOOTH",
"734 271 OFFCURVE",
"739 274 OFFCURVE",
"739 278 CURVE SMOOTH",
"739 281 OFFCURVE",
"735 285 OFFCURVE",
"725 286 CURVE SMOOTH",
"718 287 OFFCURVE",
"709 288 OFFCURVE",
"699 288 CURVE SMOOTH",
"666 288 OFFCURVE",
"622 283 OFFCURVE",
"613 281 CURVE",
"620 320 OFFCURVE",
"644 362 OFFCURVE",
"661 384 CURVE SMOOTH",
"664 387 OFFCURVE",
"665 391 OFFCURVE",
"665 395 CURVE SMOOTH",
"665 400 OFFCURVE",
"663 405 OFFCURVE",
"660 410 CURVE SMOOTH",
"653 421 OFFCURVE",
"645 431 OFFCURVE",
"632 442 CURVE SMOOTH",
"607 463 OFFCURVE",
"579 472 OFFCURVE",
"551 472 CURVE SMOOTH",
"508 472 OFFCURVE",
"464 452 OFFCURVE",
"426 421 CURVE",
"398 451 OFFCURVE",
"350 467 OFFCURVE",
"298 467 CURVE SMOOTH",
"246 467 OFFCURVE",
"120 439 OFFCURVE",
"83 378 CURVE SMOOTH",
"77 368 OFFCURVE",
"74 327 OFFCURVE",
"70 298 CURVE SMOOTH",
"67 277 OFFCURVE",
"75 270 OFFCURVE",
"85 270 CURVE SMOOTH",
"96 270 OFFCURVE",
"110 278 OFFCURVE",
"117 282 CURVE SMOOTH",
"138 295 OFFCURVE",
"150 296 OFFCURVE",
"167 313 CURVE SMOOTH",
"189 333 OFFCURVE",
"183 390 OFFCURVE",
"220 425 CURVE SMOOTH",
"236 439 OFFCURVE",
"260 453 OFFCURVE",
"285 453 CURVE SMOOTH",
"325 453 OFFCURVE",
"334 406 OFFCURVE",
"334 357 CURVE SMOOTH",
"334 322 OFFCURVE",
"329 287 OFFCURVE",
"327 268 CURVE SMOOTH",
"326 261 OFFCURVE",
"320 258 OFFCURVE",
"314 258 CURVE SMOOTH",
"312 258 OFFCURVE",
"311 258 OFFCURVE",
"309 259 CURVE",
"309 259 OFFCURVE",
"313 289 OFFCURVE",
"315 310 CURVE SMOOTH",
"316 319 OFFCURVE",
"316 327 OFFCURVE",
"316 336 CURVE SMOOTH",
"316 361 OFFCURVE",
"313 385 OFFCURVE",
"303 400 CURVE SMOOTH",
"299 406 OFFCURVE",
"295 411 OFFCURVE",
"290 411 CURVE SMOOTH",
"289 411 OFFCURVE",
"287 411 OFFCURVE",
"286 410 CURVE",
"276 406 OFFCURVE",
"288 393 OFFCURVE",
"291 389 CURVE SMOOTH",
"304 368 OFFCURVE",
"305 335 OFFCURVE",
"304 311 CURVE SMOOTH",
"303 292 OFFCURVE",
"298 259 OFFCURVE",
"298 259 CURVE",
"200 261 OFFCURVE",
"17 239 OFFCURVE",
"17 93 CURVE SMOOTH",
"17 69 OFFCURVE",
"31 -6 OFFCURVE",
"82 -6 CURVE SMOOTH",
"187 -6 LINE SMOOTH",
"234 -6 OFFCURVE",
"295 135 OFFCURVE",
"308 249 CURVE",
"313 247 OFFCURVE",
"322 247 OFFCURVE",
"323 239 CURVE",
"320 214 LINE SMOOTH",
"315 170 OFFCURVE",
"301 76 OFFCURVE",
"288 28 CURVE SMOOTH",
"285 17 OFFCURVE",
"283 10 OFFCURVE",
"283 6 CURVE SMOOTH",
"283 1 OFFCURVE",
"286 0 OFFCURVE",
"295 0 CURVE SMOOTH",
"305 0 LINE SMOOTH",
"327 0 OFFCURVE",
"348 2 OFFCURVE",
"369 2 CURVE SMOOTH",
"384 2 OFFCURVE",
"399 1 OFFCURVE",
"414 1 CURVE",
"432 -5 OFFCURVE",
"451 -9 OFFCURVE",
"469 -9 CURVE SMOOTH"
);
},
{
closed = 1;
nodes = (
"169 57 OFFCURVE",
"150 66 OFFCURVE",
"141 88 CURVE SMOOTH",
"136 99 OFFCURVE",
"134 110 OFFCURVE",
"134 121 CURVE SMOOTH",
"134 161 OFFCURVE",
"158 202 OFFCURVE",
"188 224 CURVE SMOOTH",
"210 240 OFFCURVE",
"241 251 OFFCURVE",
"276 251 CURVE SMOOTH",
"283 251 OFFCURVE",
"290 251 OFFCURVE",
"298 250 CURVE",
"296 237 OFFCURVE",
"281 128 OFFCURVE",
"239 80 CURVE SMOOTH",
"226 65 OFFCURVE",
"207 57 OFFCURVE",
"189 57 CURVE SMOOTH"
);
},
{
closed = 1;
nodes = (
"403 239 OFFCURVE",
"402 251 OFFCURVE",
"402 262 CURVE SMOOTH",
"402 299 OFFCURVE",
"409 330 OFFCURVE",
"421 355 CURVE",
"429 366 OFFCURVE",
"436 376 OFFCURVE",
"440 385 CURVE",
"460 410 OFFCURVE",
"487 423 OFFCURVE",
"512 423 CURVE SMOOTH",
"559 423 OFFCURVE",
"604 377 OFFCURVE",
"600 280 CURVE",
"531 270 OFFCURVE",
"465 250 OFFCURVE",
"404 227 CURVE"
);
}
);
width = 669;
}
);
leftKerningGroup = a;
note = ae;
rightKerningGroup = e;
unicode = 00E6;
},
{
glyphname = b;
lastChange = "2022-03-24 14:57:53 +0000";
layers = (
{
background = {
paths = (
{
closed = 1;
nodes = (
"227 465 OFFCURVE",
"240 207 OFFCURVE",
"215 22 CURVE",
"209 26 OFFCURVE",
"204 33 OFFCURVE",
"204 44 CURVE SMOOTH",
"208 149 OFFCURVE",
"237 362 OFFCURVE",
"258 501 CURVE SMOOTH",
"263 537 OFFCURVE",
"271 586 OFFCURVE",
"274 608 CURVE SMOOTH",
"276 619 OFFCURVE",
"280 632 OFFCURVE",
"266 631 CURVE SMOOTH",
"230 630 OFFCURVE",
"195 631 OFFCURVE",
"130 632 CURVE SMOOTH",
"123 632 OFFCURVE",
"80 633 OFFCURVE",
"69 634 CURVE SMOOTH",
"57 634 OFFCURVE",
"39 616 OFFCURVE",
"64 616 CURVE SMOOTH",
"132 616 OFFCURVE",
"162 623 OFFCURVE",
"157 548 CURVE SMOOTH",
"151 457 OFFCURVE",
"139 274 OFFCURVE",
"116 140 CURVE SMOOTH",
"94 10 OFFCURVE",
"102 18 OFFCURVE",
"18 18 CURVE SMOOTH",
"10 18 OFFCURVE",
"-4 -2 OFFCURVE",
"7 0 CURVE",
"78 -2 OFFCURVE",
"104 3 OFFCURVE",
"136 3 CURVE SMOOTH",
"204 3 OFFCURVE",
"279 -20 OFFCURVE",
"341 7 CURVE SMOOTH",
"514 81 OFFCURVE",
"536 465 OFFCURVE",
"357 465 CURVE SMOOTH"
);
},
{
closed = 1;
nodes = (
"382 235 OFFCURVE",
"372 134 OFFCURVE",
"365 110 CURVE SMOOTH",
"343 36 OFFCURVE",
"305 5 OFFCURVE",
"225 19 CURVE",
"232 97 OFFCURVE",
"242 284 OFFCURVE",
"280 370 CURVE SMOOTH",
"327 477 OFFCURVE",
"366 374 OFFCURVE",
"373 312 CURVE SMOOTH"
);
}
);
};
layerId = "404CF7D8-B1FB-4D32-849A-66F5CDD10145";
paths = (
{
closed = 1;
nodes = (
"293 -6 OFFCURVE",
"318 -3 OFFCURVE",
"341 7 CURVE SMOOTH",
"432 46 OFFCURVE",
"481 171 OFFCURVE",
"481 281 CURVE SMOOTH",
"481 379 OFFCURVE",
"442 465 OFFCURVE",
"357 465 CURVE SMOOTH",
"227 465 OFFCURVE",
"240 207 OFFCURVE",
"215 22 CURVE",
"209 26 OFFCURVE",
"204 33 OFFCURVE",
"204 44 CURVE SMOOTH",
"208 149 OFFCURVE",
"237 362 OFFCURVE",
"258 501 CURVE SMOOTH",
"263 537 OFFCURVE",
"271 586 OFFCURVE",
"274 608 CURVE SMOOTH",
"275 613 OFFCURVE",
"276 618 OFFCURVE",
"276 622 CURVE SMOOTH",
"276 627 OFFCURVE",
"274 631 OFFCURVE",
"267 631 CURVE",
"267 631 OFFCURVE",
"267 631 OFFCURVE",
"266 631 CURVE SMOOTH",
"234 631 LINE SMOOTH",
"207 631 OFFCURVE",
"176 631 OFFCURVE",
"130 632 CURVE SMOOTH",
"123 632 OFFCURVE",
"80 633 OFFCURVE",
"69 634 CURVE SMOOTH",
"61 634 OFFCURVE",
"51 627 OFFCURVE",
"51 622 CURVE SMOOTH",
"51 618 OFFCURVE",
"55 616 OFFCURVE",
"64 616 CURVE SMOOTH",
"132 616 OFFCURVE",
"162 623 OFFCURVE",
"157 548 CURVE SMOOTH",
"151 457 OFFCURVE",
"139 274 OFFCURVE",
"116 140 CURVE SMOOTH",
"94 10 OFFCURVE",
"102 18 OFFCURVE",
"18 18 CURVE SMOOTH",
"12 18 OFFCURVE",
"3 8 OFFCURVE",
"3 3 CURVE SMOOTH",
"3 1 OFFCURVE",
"4 0 OFFCURVE",
"6 0 CURVE",
"6 0 OFFCURVE",
"6 0 OFFCURVE",
"7 0 CURVE SMOOTH",
"39 0 LINE SMOOTH",
"87 0 OFFCURVE",
"109 3 OFFCURVE",
"136 3 CURVE SMOOTH",
"179 3 OFFCURVE",
"224 -6 OFFCURVE",
"268 -6 CURVE SMOOTH"
);
},
{
closed = 1;
nodes = (
"249 16 OFFCURVE",
"237 17 OFFCURVE",
"225 19 CURVE",
"232 97 OFFCURVE",
"242 284 OFFCURVE",
"280 370 CURVE SMOOTH",
"295 404 OFFCURVE",
"309 416 OFFCURVE",
"321 416 CURVE SMOOTH",
"348 416 OFFCURVE",
"368 355 OFFCURVE",
"373 312 CURVE SMOOTH",
"376 290 OFFCURVE",
"377 266 OFFCURVE",
"377 243 CURVE SMOOTH",
"377 184 OFFCURVE",
"370 127 OFFCURVE",
"365 110 CURVE SMOOTH",
"346 48 OFFCURVE",
"316 16 OFFCURVE",
"259 16 CURVE SMOOTH"
);
}
);
width = 508;
}
);
leftKerningGroup = l;
note = b;
rightKerningGroup = b;
unicode = 0062;
},
{
color = 3;
glyphname = c;
lastChange = "2022-03-24 14:58:24 +0000";
layers = (
{
anchors = (
{
name = cedilla;
position = "{185, 0}";
},
{
name = top;
position = "{267, 454}";
}
);
background = {
paths = (
{
closed = 1;
nodes = (
"396 402 OFFCURVE",
"364 430 OFFCURVE",
"352 442 CURVE SMOOTH",
"280 514 OFFCURVE",
"38 451 OFFCURVE",
"38 176 CURVE SMOOTH",
"38 77 OFFCURVE",
"84 -11 OFFCURVE",
"187 -11 CURVE SMOOTH",
"256 -11 OFFCURVE",
"256 35 OFFCURVE",
"302 64 CURVE SMOOTH",
"319 75 OFFCURVE",
"347 96 OFFCURVE",
"354 108 CURVE SMOOTH",
"357 113 OFFCURVE",
"354 122 OFFCURVE",
"347 114 CURVE SMOOTH",
"324 89 OFFCURVE",
"293 76 OFFCURVE",
"262 76 CURVE SMOOTH",
"161 76 OFFCURVE",
"124 165 OFFCURVE",
"124 259 CURVE SMOOTH",
"124 416 OFFCURVE",
"248 485 OFFCURVE",
"302 366 CURVE SMOOTH",
"309 350 OFFCURVE",
"311 322 OFFCURVE",
"310 305 CURVE SMOOTH",
"310 292 OFFCURVE",
"303 270 OFFCURVE",
"308 268 CURVE SMOOTH",
"318 264 OFFCURVE",
"318 280 OFFCURVE",
"322 292 CURVE SMOOTH",
"340 342 OFFCURVE",
"360 359 OFFCURVE",
"381 384 CURVE SMOOTH"
);
}
);
};
layerId = "404CF7D8-B1FB-4D32-849A-66F5CDD10145";
paths = (
{
closed = 1;
nodes = (
"256 -11 OFFCURVE",
"256 35 OFFCURVE",
"302 64 CURVE SMOOTH",
"321 76 OFFCURVE",
"355 102 OFFCURVE",
"355 112 CURVE SMOOTH",
"355 115 OFFCURVE",
"354 117 OFFCURVE",
"352 117 CURVE SMOOTH",
"351 117 OFFCURVE",
"349 116 OFFCURVE",
"347 114 CURVE SMOOTH",
"324 89 OFFCURVE",
"293 76 OFFCURVE",
"262 76 CURVE SMOOTH",
"161 76 OFFCURVE",
"124 165 OFFCURVE",
"124 259 CURVE SMOOTH",
"124 361 OFFCURVE",
"177 426 OFFCURVE",
"228 426 CURVE SMOOTH",
"256 426 OFFCURVE",
"283 408 OFFCURVE",
"302 366 CURVE SMOOTH",
"309 350 OFFCURVE",
"311 322 OFFCURVE",
"310 305 CURVE SMOOTH",
"310 292 OFFCURVE",
"303 270 OFFCURVE",
"308 268 CURVE SMOOTH",
"318 264 OFFCURVE",
"318 280 OFFCURVE",
"322 292 CURVE SMOOTH",
"340 342 OFFCURVE",
"360 359 OFFCURVE",
"381 384 CURVE SMOOTH",
"384 387 OFFCURVE",
"385 391 OFFCURVE",
"385 395 CURVE SMOOTH",
"385 412 OFFCURVE",
"362 432 OFFCURVE",
"352 442 CURVE SMOOTH",
"334 460 OFFCURVE",
"306 469 OFFCURVE",
"273 469 CURVE SMOOTH",
"174 469 OFFCURVE",
"38 383 OFFCURVE",
"38 176 CURVE SMOOTH",
"38 77 OFFCURVE",
"84 -11 OFFCURVE",
"187 -11 CURVE SMOOTH"
);
}
);
width = 365;
}
);
leftKerningGroup = o;
note = c;
rightKerningGroup = c;
unicode = 0063;
},
{
color = 3;
glyphname = d;
lastChange = "2022-04-07 18:33:33 +0000";
layers = (
{
anchors = (
{
name = bottom;
position = "{241, 0}";
},
{
name = center;
position = "{425, 535}";
},
{
name = top;
position = "{432, 630}";
},
{
name = topright;
position = "{504, 700}";
}
);
background = {
paths = (
{
closed = 1;
nodes = (
"505 16 OFFCURVE",
"459 18 OFFCURVE",
"437 22 CURVE SMOOTH",
"424 24 OFFCURVE",
"403 37 OFFCURVE",
"405 65 CURVE SMOOTH",
"406 92 OFFCURVE",
"411 116 OFFCURVE",
"424 210 CURVE SMOOTH",
"436 298 OFFCURVE",
"454 408 OFFCURVE",
"454 408 CURVE",
"485 419 OFFCURVE",
"500 450 OFFCURVE",
"491 455 CURVE",
"462 455 LINE",
"470 500 OFFCURVE",
"478 544 OFFCURVE",
"485 589 CURVE SMOOTH",
"491 630 OFFCURVE",
"492 631 OFFCURVE",
"474 631 CURVE SMOOTH",
"414 629 OFFCURVE",
"360 627 OFFCURVE",
"274 629 CURVE SMOOTH",
"262 629 OFFCURVE",
"263 611 OFFCURVE",
"274 613 CURVE SMOOTH",
"302 617 OFFCURVE",
"322 618 OFFCURVE",
"336 618 CURVE SMOOTH",
"380 616 OFFCURVE",
"373 585 OFFCURVE",
"372 552 CURVE SMOOTH",
"370 517 OFFCURVE",
"365 472 OFFCURVE",
"364 458 CURVE",
"364 458 LINE",
"342 459 OFFCURVE",
"323 458 OFFCURVE",
"309 458 CURVE SMOOTH",
"195 461 OFFCURVE",
"97 382 OFFCURVE",
"59 276 CURVE SMOOTH",
"22 175 OFFCURVE",
"24 0 OFFCURVE",
"159 -8 CURVE SMOOTH",
"243 -13 OFFCURVE",
"276 81 OFFCURVE",
"296 170 CURVE SMOOTH",
"314 253 OFFCURVE",
"329 340 OFFCURVE",
"341 425 CURVE",
"344 424 OFFCURVE",
"350 422 OFFCURVE",
"359 420 CURVE",
"342 297 OFFCURVE",
"317 138 OFFCURVE",
"296 45 CURVE SMOOTH",
"288 9 OFFCURVE",
"275 -7 OFFCURVE",
"326 0 CURVE SMOOTH",
"341 2 OFFCURVE",
"364 3 OFFCURVE",
"382 3 CURVE SMOOTH",
"425 3 OFFCURVE",
"467 0 OFFCURVE",
"511 0 CURVE SMOOTH",
"522 0 OFFCURVE",
"535 18 OFFCURVE",
"521 17 CURVE SMOOTH"
);
},
{
closed = 1;
nodes = (
"327 400 OFFCURVE",
"288 52 OFFCURVE",
"207 52 CURVE SMOOTH",
"129 52 OFFCURVE",
"119 231 OFFCURVE",
"162 344 CURVE SMOOTH",
"192 423 OFFCURVE",
"257 444 OFFCURVE",
"331 426 CURVE"
);
}
);
};
layerId = "404CF7D8-B1FB-4D32-849A-66F5CDD10145";
paths = (
{
closed = 1;
nodes = (
"245 -8 OFFCURVE",
"277 83 OFFCURVE",
"296 170 CURVE SMOOTH",
"314 253 OFFCURVE",
"329 340 OFFCURVE",
"341 425 CURVE",
"344 424 OFFCURVE",
"350 422 OFFCURVE",
"359 420 CURVE",
"342 297 OFFCURVE",
"317 138 OFFCURVE",
"296 45 CURVE SMOOTH",
"293 30 OFFCURVE",
"288 19 OFFCURVE",
"288 11 CURVE SMOOTH",
"288 2 OFFCURVE",
"293 -2 OFFCURVE",
"307 -2 CURVE SMOOTH",
"312 -2 OFFCURVE",
"318 -1 OFFCURVE",
"326 0 CURVE SMOOTH",
"341 2 OFFCURVE",
"364 3 OFFCURVE",
"382 3 CURVE SMOOTH",
"425 3 OFFCURVE",
"467 0 OFFCURVE",
"511 0 CURVE SMOOTH",
"519 0 OFFCURVE",
"527 8 OFFCURVE",
"527 13 CURVE SMOOTH",
"527 16 OFFCURVE",
"526 17 OFFCURVE",
"522 17 CURVE SMOOTH",
"521 17 LINE SMOOTH",
"505 17 OFFCURVE",
"459 18 OFFCURVE",
"437 22 CURVE SMOOTH",
"425 24 OFFCURVE",
"405 36 OFFCURVE",
"405 61 CURVE SMOOTH",
"405 90 OFFCURVE",
"410 112 OFFCURVE",
"424 210 CURVE SMOOTH",
"436 298 OFFCURVE",
"454 408 OFFCURVE",
"454 408 CURVE",
"485 419 OFFCURVE",
"500 450 OFFCURVE",
"491 455 CURVE",
"462 455 LINE",
"470 500 OFFCURVE",
"478 544 OFFCURVE",
"485 589 CURVE SMOOTH",
"487 605 OFFCURVE",
"489 615 OFFCURVE",
"489 621 CURVE SMOOTH",
"489 631 OFFCURVE",
"485 631 OFFCURVE",
"474 631 CURVE SMOOTH",
"432 630 OFFCURVE",
"392 628 OFFCURVE",
"342 628 CURVE SMOOTH",
"322 628 OFFCURVE",
"299 628 OFFCURVE",
"274 629 CURVE SMOOTH",
"268 629 OFFCURVE",
"265 625 OFFCURVE",
"265 620 CURVE SMOOTH",
"265 617 OFFCURVE",
"268 613 OFFCURVE",
"272 613 CURVE SMOOTH",
"274 613 LINE SMOOTH",
"302 613 OFFCURVE",
"322 618 OFFCURVE",
"336 618 CURVE SMOOTH",
"368 617 OFFCURVE",
"373 600 OFFCURVE",
"373 578 CURVE SMOOTH",
"373 545 OFFCURVE",
"365 476 OFFCURVE",
"364 458 CURVE",
"339 459 OFFCURVE",
"317 458 OFFCURVE",
"303 458 CURVE SMOOTH",
"191 458 OFFCURVE",
"96 380 OFFCURVE",
"59 276 CURVE SMOOTH",
"46 242 OFFCURVE",
"38 199 OFFCURVE",
"38 157 CURVE SMOOTH",
"38 73 OFFCURVE",
"71 -8 OFFCURVE",
"165 -8 CURVE SMOOTH"
);
},
{
closed = 1;
nodes = (
"159 52 OFFCURVE",
"137 120 OFFCURVE",
"137 198 CURVE SMOOTH",
"137 247 OFFCURVE",
"145 301 OFFCURVE",
"162 344 CURVE SMOOTH",
"185 406 OFFCURVE",
"230 432 OFFCURVE",
"284 432 CURVE SMOOTH",
"299 432 OFFCURVE",
"315 430 OFFCURVE",
"331 426 CURVE",
"327 400 OFFCURVE",
"288 52 OFFCURVE",
"207 52 CURVE SMOOTH"
);
}
);
width = 512;
}
);
leftKerningGroup = o;
note = d;
unicode = 0064;
},
{
glyphname = eth;
lastChange = "2022-03-24 09:50:16 +0000";
layers = (
{
background = {
components = (
{
name = partialdiff;
transform = "{1, 0, 0, 1, 37, 0}";
},
{
name = hyphen;
transform = "{1.06006, 0.6624, -0.45043, 0.72084, 249, 292}";
}
);
};
layerId = "404CF7D8-B1FB-4D32-849A-66F5CDD10145";
paths = (
{
closed = 1;
nodes = (
"394 -10 OFFCURVE",
"478 146 OFFCURVE",
"478 325 CURVE SMOOTH",
"478 544 OFFCURVE",
"361 674 OFFCURVE",
"148 674 CURVE",
"148 665 OFFCURVE",
"148 663 OFFCURVE",
"147 658 CURVE",
"147 648 OFFCURVE",
"179 644 OFFCURVE",
"193 640 CURVE SMOOTH",
"318 600 OFFCURVE",
"381 466 OFFCURVE",
"381 303 CURVE SMOOTH",
"381 189 OFFCURVE",
"354 19 OFFCURVE",
"277 19 CURVE SMOOTH",
"229 19 OFFCURVE",
"184 92 OFFCURVE",
"184 207 CURVE SMOOTH",
"184 328 OFFCURVE",
"240 449 OFFCURVE",
"299 449 CURVE SMOOTH",
"307 449 OFFCURVE",
"321 461 OFFCURVE",
"321 466 CURVE SMOOTH",
"321 468 OFFCURVE",
"320 469 OFFCURVE",
"317 469 CURVE SMOOTH",
"174 466 OFFCURVE",
"89 321 OFFCURVE",
"83 161 CURVE SMOOTH",
"80 57 OFFCURVE",
"127 -10 OFFCURVE",
"235 -10 CURVE SMOOTH"
);
},
{
closed = 1;
nodes = (
"408.369 633.919 LINE SMOOTH",
"420.029 641.206 OFFCURVE",
"432.171 694.899 OFFCURVE",
"416.27 684.963 CURVE",
"416.27 684.963 LINE",
"170.337 531.286 LINE SMOOTH",
"160.796 525.324 OFFCURVE",
"152.894 474.281 OFFCURVE",
"162.435 480.242 CURVE SMOOTH"
);
}
);
width = 458;
}
);
leftKerningGroup = o;
note = eth;
unicode = 00F0;
},
{
glyphname = dcroat;
lastChange = "2022-03-23 11:55:54 +0000";
layers = (
{
anchors = (
{
name = bottom;
position = "{271, 0}";
},
{
name = center;
position = "{271, 227}";
},
{
name = top;
position = "{271, 630}";
},
{
name = topright;
position = "{505, 454}";
}
);
background = {
components = (
{
name = d;
transform = "{1, 0, 0, 1, 17, 0}";
},
{
name = endash;
transform = "{0.6, 0, 0, 0.6, 273, 365}";
}
);
};
layerId = "404CF7D8-B1FB-4D32-849A-66F5CDD10145";
paths = (
{
closed = 1;
nodes = (
"245 -8 OFFCURVE",
"277 83 OFFCURVE",
"296 170 CURVE SMOOTH",
"314 253 OFFCURVE",
"329 340 OFFCURVE",
"341 425 CURVE",
"344 424 OFFCURVE",
"350 422 OFFCURVE",
"359 420 CURVE",
"342 297 OFFCURVE",
"317 138 OFFCURVE",
"296 45 CURVE SMOOTH",
"293 30 OFFCURVE",
"288 19 OFFCURVE",
"288 11 CURVE SMOOTH",
"288 2 OFFCURVE",
"293 -2 OFFCURVE",
"307 -2 CURVE SMOOTH",
"312 -2 OFFCURVE",
"318 -1 OFFCURVE",
"326 0 CURVE SMOOTH",
"341 2 OFFCURVE",
"364 3 OFFCURVE",
"382 3 CURVE SMOOTH",
"425 3 OFFCURVE",
"467 0 OFFCURVE",
"511 0 CURVE SMOOTH",
"519 0 OFFCURVE",
"527 8 OFFCURVE",
"527 13 CURVE SMOOTH",
"527 16 OFFCURVE",
"526 17 OFFCURVE",
"522 17 CURVE SMOOTH",
"521 17 LINE SMOOTH",
"505 16 OFFCURVE",
"459 18 OFFCURVE",
"437 22 CURVE SMOOTH",
"425 24 OFFCURVE",
"405 36 OFFCURVE",
"405 61 CURVE SMOOTH",
"405 90 OFFCURVE",
"410 112 OFFCURVE",
"424 210 CURVE SMOOTH",
"436 298 OFFCURVE",
"454 408 OFFCURVE",
"454 408 CURVE",
"485 419 OFFCURVE",
"500 450 OFFCURVE",
"491 455 CURVE",
"462 455 LINE",
"470 500 OFFCURVE",
"478 544 OFFCURVE",
"485 589 CURVE SMOOTH",
"487 605 OFFCURVE",
"489 615 OFFCURVE",
"489 621 CURVE SMOOTH",
"489 631 OFFCURVE",
"485 631 OFFCURVE",
"474 631 CURVE SMOOTH",
"432 630 OFFCURVE",
"392 628 OFFCURVE",
"342 628 CURVE SMOOTH",
"322 628 OFFCURVE",
"299 628 OFFCURVE",
"274 629 CURVE SMOOTH",
"268 629 OFFCURVE",
"265 625 OFFCURVE",
"265 620 CURVE SMOOTH",
"265 617 OFFCURVE",
"268 613 OFFCURVE",
"272 613 CURVE SMOOTH",
"274 613 LINE SMOOTH",
"302 617 OFFCURVE",
"322 618 OFFCURVE",
"336 618 CURVE SMOOTH",
"368 617 OFFCURVE",
"373 600 OFFCURVE",
"373 578 CURVE SMOOTH",
"373 545 OFFCURVE",
"365 476 OFFCURVE",
"364 458 CURVE",
"339 459 OFFCURVE",
"317 458 OFFCURVE",
"303 458 CURVE SMOOTH",
"191 458 OFFCURVE",
"96 380 OFFCURVE",
"59 276 CURVE SMOOTH",
"46 242 OFFCURVE",
"38 199 OFFCURVE",
"38 157 CURVE SMOOTH",
"38 73 OFFCURVE",
"71 -8 OFFCURVE",
"165 -8 CURVE SMOOTH"
);
},
{
closed = 1;
nodes = (
"159 52 OFFCURVE",
"137 120 OFFCURVE",
"137 198 CURVE SMOOTH",
"137 247 OFFCURVE",
"145 301 OFFCURVE",
"162 344 CURVE SMOOTH",
"185 406 OFFCURVE",
"230 432 OFFCURVE",
"284 432 CURVE SMOOTH",
"299 432 OFFCURVE",
"315 430 OFFCURVE",
"331 426 CURVE",
"327 400 OFFCURVE",
"288 52 OFFCURVE",
"207 52 CURVE SMOOTH"
);
},
{
closed = 1;
nodes = (
"520 520 LINE SMOOTH",
"526 520 OFFCURVE",
"545 547 OFFCURVE",
"536 547 CURVE",
"536 547 LINE",
"294 547 LINE SMOOTH",
"289 547 OFFCURVE",
"272 520 OFFCURVE",
"278 520 CURVE SMOOTH"
);
}
);
width = 512;
}
);
leftKerningGroup = o;
leftMetricsKey = d;
widthMetricsKey = d;
rightKerningGroup = l;
unicode = 0111;
},
{
color = 3;
glyphname = e;
lastChange = "2022-04-06 17:43:07 +0000";
layers = (
{
anchors = (
{
name = bottom;
position = "{177, 0}";
},
{
name = ogonek;
position = "{254, 10}";
},
{
name = top;
position = "{277, 454}";
}
);
background = {
paths = (
{
closed = 1;
nodes = (
"460 270 OFFCURVE",
"466 283 OFFCURVE",
"444 286 CURVE SMOOTH",
"415 291 OFFCURVE",
"344 283 OFFCURVE",
"332 281 CURVE",
"340 320 OFFCURVE",
"363 362 OFFCURVE",
"380 384 CURVE",
"387 391 OFFCURVE",
"386 401 OFFCURVE",
"380 410 CURVE SMOOTH",
"372 421 OFFCURVE",
"364 431 OFFCURVE",
"351 442 CURVE SMOOTH",
"258 520 OFFCURVE",
"116 431 OFFCURVE",
"64 316 CURVE SMOOTH",
"27 233 OFFCURVE",
"29 113 OFFCURVE",
"78 42 CURVE SMOOTH",
"115 -10 OFFCURVE",
"194 -17 OFFCURVE",
"240 2 CURVE SMOOTH",
"270 14 OFFCURVE",
"290 54 OFFCURVE",
"317 71 CURVE SMOOTH",
"333 82 OFFCURVE",
"361 103 OFFCURVE",
"368 115 CURVE SMOOTH",
"371 120 OFFCURVE",
"368 129 OFFCURVE",
"361 121 CURVE SMOOTH",
"318 74 OFFCURVE",
"174 17 OFFCURVE",
"128 198 CURVE",
"181 227 OFFCURVE",
"242 251 OFFCURVE",
"317 264 CURVE",
"317 261 OFFCURVE",
"317 259 OFFCURVE",
"316 257 CURVE",
"314 235 OFFCURVE",
"330 243 OFFCURVE",
"331 259 CURVE",
"332 262 OFFCURVE",
"332 264 OFFCURVE",
"332 266 CURVE",
"343 268 OFFCURVE",
"419 282 OFFCURVE",
"445 274 CURVE SMOOTH"
);
},
{
closed = 1;
nodes = (
"250 270 OFFCURVE",
"184 250 OFFCURVE",
"124 227 CURVE",
"97 458 OFFCURVE",
"328 496 OFFCURVE",
"320 280 CURVE"
);
}
);
};
layerId = "404CF7D8-B1FB-4D32-849A-66F5CDD10145";
paths = (
{
closed = 1;
nodes = (
"206 -8 OFFCURVE",
"225 -4 OFFCURVE",
"240 2 CURVE SMOOTH",
"270 14 OFFCURVE",
"290 54 OFFCURVE",
"317 71 CURVE SMOOTH",
"335 83 OFFCURVE",
"369 109 OFFCURVE",
"369 119 CURVE SMOOTH",
"369 122 OFFCURVE",
"368 124 OFFCURVE",
"366 124 CURVE SMOOTH",
"365 124 OFFCURVE",
"363 123 OFFCURVE",
"361 121 CURVE SMOOTH",
"340 99 OFFCURVE",
"297 74 OFFCURVE",
"252 74 CURVE SMOOTH",
"203 74 OFFCURVE",
"152 103 OFFCURVE",
"128 198 CURVE",
"181 227 OFFCURVE",
"242 251 OFFCURVE",
"317 264 CURVE",
"317 261 OFFCURVE",
"317 259 OFFCURVE",
"316 257 CURVE",
"315 247 OFFCURVE",
"318 244 OFFCURVE",
"321 244 CURVE SMOOTH",
"325 244 OFFCURVE",
"330 250 OFFCURVE",
"331 259 CURVE",
"332 262 OFFCURVE",
"332 264 OFFCURVE",
"332 266 CURVE",
"341 268 OFFCURVE",
"389 276 OFFCURVE",
"422 276 CURVE SMOOTH",
"431 276 OFFCURVE",
"439 276 OFFCURVE",
"445 274 CURVE SMOOTH",
"453 272 OFFCURVE",
"458 275 OFFCURVE",
"458 278 CURVE SMOOTH",
"458 281 OFFCURVE",
"454 285 OFFCURVE",
"444 286 CURVE SMOOTH",
"437 287 OFFCURVE",
"428 288 OFFCURVE",
"418 288 CURVE SMOOTH",
"385 288 OFFCURVE",
"341 283 OFFCURVE",
"332 281 CURVE",
"340 320 OFFCURVE",
"363 362 OFFCURVE",
"380 384 CURVE SMOOTH",
"383 387 OFFCURVE",
"385 391 OFFCURVE",
"385 396 CURVE SMOOTH",
"385 400 OFFCURVE",
"383 405 OFFCURVE",
"380 410 CURVE SMOOTH",
"372 421 OFFCURVE",
"364 431 OFFCURVE",
"351 442 CURVE SMOOTH",
"327 462 OFFCURVE",
"299 471 OFFCURVE",
"270 471 CURVE SMOOTH",
"190 471 OFFCURVE",
"102 401 OFFCURVE",
"64 316 CURVE SMOOTH",
"47 278 OFFCURVE",
"38 233 OFFCURVE",
"38 188 CURVE SMOOTH",
"38 134 OFFCURVE",
"51 81 OFFCURVE",
"78 42 CURVE SMOOTH",
"103 7 OFFCURVE",
"147 -8 OFFCURVE",
"187 -8 CURVE SMOOTH"
);
},
{
closed = 1;
nodes = (
"122 240 OFFCURVE",
"122 252 OFFCURVE",
"122 264 CURVE SMOOTH",
"122 367 OFFCURVE",
"178 423 OFFCURVE",
"231 423 CURVE SMOOTH",
"279 423 OFFCURVE",
"324 377 OFFCURVE",
"320 280 CURVE",
"250 270 OFFCURVE",
"184 250 OFFCURVE",
"124 227 CURVE"
);
}
);
width = 384;
}
);
leftKerningGroup = o;
leftMetricsKey = o;
note = e;
rightKerningGroup = e;
unicode = 0065;
},
{
glyphname = schwa;
lastChange = "2022-03-23 09:55:12 +0000";
layers = (
{
background = {
paths = (
{
closed = 1;
nodes = (
"31 196 OFFCURVE",
"30 181 OFFCURVE",
"42 183 CURVE",
"34 144 OFFCURVE",
"11 102 OFFCURVE",
"-6 80 CURVE",
"-13 73 OFFCURVE",
"-12 63 OFFCURVE",
"-6 54 CURVE SMOOTH",
"2 43 OFFCURVE",
"10 33 OFFCURVE",
"23 22 CURVE SMOOTH",
"116 -56 OFFCURVE",
"258 33 OFFCURVE",
"310 148 CURVE SMOOTH",
"347 231 OFFCURVE",
"345 351 OFFCURVE",
"296 422 CURVE SMOOTH",
"259 474 OFFCURVE",
"180 481 OFFCURVE",
"134 462 CURVE SMOOTH",
"104 450 OFFCURVE",
"84 410 OFFCURVE",
"57 393 CURVE SMOOTH",
"41 382 OFFCURVE",
"13 361 OFFCURVE",
"6 349 CURVE SMOOTH",
"3 344 OFFCURVE",
"6 335 OFFCURVE",
"13 343 CURVE SMOOTH",
"56 390 OFFCURVE",
"200 447 OFFCURVE",
"246 266 CURVE",
"193 237 OFFCURVE",
"132 213 OFFCURVE",
"57 200 CURVE",
"57 203 OFFCURVE",
"57 205 OFFCURVE",
"58 207 CURVE",
"60 229 OFFCURVE",
"44 221 OFFCURVE",
"43 205 CURVE",
"42 202 OFFCURVE",
"42 200 OFFCURVE",
"42 198 CURVE"
);
},
{
closed = 1;
nodes = (
"124 194 OFFCURVE",
"190 214 OFFCURVE",
"250 237 CURVE",
"277 6 OFFCURVE",
"46 -32 OFFCURVE",
"54 184 CURVE"
);
}
);
};
layerId = "404CF7D8-B1FB-4D32-849A-66F5CDD10145";
paths = (
{
closed = 1;
nodes = (
"184 -7 OFFCURVE",
"272 63 OFFCURVE",
"310 148 CURVE SMOOTH",
"327 186 OFFCURVE",
"336 231 OFFCURVE",
"336 276 CURVE SMOOTH",
"336 330 OFFCURVE",
"323 383 OFFCURVE",
"296 422 CURVE SMOOTH",
"271 457 OFFCURVE",
"227 472 OFFCURVE",
"187 472 CURVE SMOOTH",
"168 472 OFFCURVE",
"149 468 OFFCURVE",
"134 462 CURVE SMOOTH",
"104 450 OFFCURVE",
"84 410 OFFCURVE",
"57 393 CURVE SMOOTH",
"39 381 OFFCURVE",
"5 355 OFFCURVE",
"5 345 CURVE SMOOTH",
"5 342 OFFCURVE",
"6 340 OFFCURVE",
"8 340 CURVE SMOOTH",
"9 340 OFFCURVE",
"11 341 OFFCURVE",
"13 343 CURVE SMOOTH",
"34 365 OFFCURVE",
"77 390 OFFCURVE",
"122 390 CURVE SMOOTH",
"171 390 OFFCURVE",
"222 361 OFFCURVE",
"246 266 CURVE",
"193 237 OFFCURVE",
"132 213 OFFCURVE",
"57 200 CURVE",
"57 203 OFFCURVE",
"57 205 OFFCURVE",
"58 207 CURVE",
"59 217 OFFCURVE",
"56 220 OFFCURVE",
"53 220 CURVE SMOOTH",
"49 220 OFFCURVE",
"44 214 OFFCURVE",
"43 205 CURVE",
"42 202 OFFCURVE",
"42 200 OFFCURVE",
"42 198 CURVE",
"37 197 OFFCURVE",
"33 192 OFFCURVE",
"33 189 CURVE SMOOTH",
"33 186 OFFCURVE",
"35 183 OFFCURVE",
"40 183 CURVE SMOOTH",
"42 183 LINE",
"34 144 OFFCURVE",
"11 102 OFFCURVE",
"-6 80 CURVE SMOOTH",
"-9 77 OFFCURVE",
"-11 73 OFFCURVE",
"-11 68 CURVE SMOOTH",
"-11 64 OFFCURVE",
"-9 59 OFFCURVE",
"-6 54 CURVE SMOOTH",
"2 43 OFFCURVE",
"10 33 OFFCURVE",
"23 22 CURVE SMOOTH",
"47 2 OFFCURVE",
"75 -7 OFFCURVE",
"104 -7 CURVE SMOOTH"
);
},
{
closed = 1;
nodes = (
"95 41 OFFCURVE",
"50 87 OFFCURVE",
"54 184 CURVE",
"124 194 OFFCURVE",
"190 214 OFFCURVE",
"250 237 CURVE",
"252 224 OFFCURVE",
"252 212 OFFCURVE",
"252 200 CURVE SMOOTH",
"252 97 OFFCURVE",
"196 41 OFFCURVE",
"143 41 CURVE SMOOTH"
);
}
);
width = 323;
}
);
leftKerningGroup = schwa;
rightKerningGroup = o;
unicode = 0259;
},
